<?xml version="1.0" encoding="utf-8"?>
<!-- Generator: Adobe Illustrator 27.8.1, SVG Export Plug-In . SVG Version: 6.00 Build 0)  -->
<svg version="1.1" id="cloudy" xmlns="http://www.w3.org/2000/svg" xmlns:xlink="http://www.w3.org/1999/xlink" x="0px" y="0px"
	 viewBox="0 0 520 487" style="enable-background:new 0 0 520 487;" xml:space="preserve">
<style type="text/css">
	.st0{fill:url(#SVGID_1_);}
</style>
<radialGradient id="SVGID_1_" cx="202.3687" cy="228.2851" r="223.3608" fx="148.498" fy="227.3496" gradientUnits="userSpaceOnUse">
	<stop  offset="0.1568" style="stop-color:#FDFDFD"/>
	<stop  offset="0.3707" style="stop-color:#F5F5F3"/>
	<stop  offset="0.7306" style="stop-color:#E0DED9"/>
	<stop  offset="1" style="stop-color:#CDC9C1"/>
</radialGradient>
<path class="st0" d="M400.2,246.7c0.7-3.8,1.1-7.7,1.1-11.8c0-33.8-27.4-61.1-61.1-61.1c-6.2,0-12.1,0.9-17.8,2.6
	c-15-33.3-48.4-56.5-87.3-56.5c-51.4,0-93.3,40.5-95.5,91.3C97.2,211.9,63,246.5,63,289.1c0,41.6,32.6,75.6,73.7,77.8
	c0.6,0.1,1.1,0.1,1.7,0.1h256.8c0.1,0,0.1,0,0.2,0c0.1,0,0.2,0,0.3,0c33.3,0,60.3-27,60.3-60.3C456,275,431.4,249,400.2,246.7z"/>
</svg>
