<?xml version="1.0" encoding="utf-8"?>
<!-- Generator: Adobe Illustrator 27.8.1, SVG Export Plug-In . SVG Version: 6.00 Build 0)  -->
<svg version="1.1" id="Layer_2" xmlns="http://www.w3.org/2000/svg" xmlns:xlink="http://www.w3.org/1999/xlink" x="0px" y="0px"
	 viewBox="0 0 520 487" style="enable-background:new 0 0 520 487;" xml:space="preserve">
<style type="text/css">
	.st0{fill:url(#SVGID_1_);}
	.st1{fill:url(#SVGID_00000182490309759180280750000009420390156180020911_);}
	.st2{fill:url(#SVGID_00000130648209058161998420000013737288078719951002_);}
</style>
<g>
	<g>
		<g>
			
				<image style="overflow:visible;opacity:0.34;" width="248" height="249" xlink:href="DC54EDB0C713BF78.png"  transform="matrix(1 0 0 1 238 77)">
			</image>
			<g>
				
					<linearGradient id="SVGID_1_" gradientUnits="userSpaceOnUse" x1="299.541" y1="-325.1631" x2="449.8479" y2="-325.1631" gradientTransform="matrix(0.6903 0.7236 -0.7236 0.6903 -151.2762 134.9515)">
					<stop  offset="0" style="stop-color:#E9B94D"/>
					<stop  offset="0.2404" style="stop-color:#E8B349"/>
					<stop  offset="0.5685" style="stop-color:#E4A13E"/>
					<stop  offset="0.9458" style="stop-color:#DD852D"/>
					<stop  offset="1" style="stop-color:#DC802A"/>
				</linearGradient>
				<polygon class="st0" points="354.7,304.2 327.7,277.3 289.7,274 286.3,236 259.2,209.1 281,177.8 277.6,139.8 314.5,129.8 
					336.3,98.5 370.9,114.6 407.8,104.6 424,139.2 458.6,155.2 448.8,192.1 465,226.7 433.8,248.6 424,285.5 386,282.3 				"/>
			</g>
		</g>
		<g>
			
				<image style="overflow:visible;opacity:0.32;" width="190" height="189" xlink:href="DC54EDB0C713BF79.png"  transform="matrix(1 0 0 1 269 108)">
			</image>
			<g>
				
					<linearGradient id="SVGID_00000174601156032260126850000009107220732325097405_" gradientUnits="userSpaceOnUse" x1="364.1095" y1="14.0021" x2="523.1339" y2="14.0021" gradientTransform="matrix(0.9177 0.3974 -0.3974 0.9177 -39.4889 12.3727)">
					<stop  offset="0" style="stop-color:#FFFFFF"/>
					<stop  offset="4.189664e-02" style="stop-color:#FEFCF6"/>
					<stop  offset="0.2194" style="stop-color:#FBF1D5"/>
					<stop  offset="0.4019" style="stop-color:#F8E8BB"/>
					<stop  offset="0.5893" style="stop-color:#F6E2A9"/>
					<stop  offset="0.7845" style="stop-color:#F5DE9E"/>
					<stop  offset="1" style="stop-color:#F5DD9A"/>
				</linearGradient>
				<circle style="fill:url(#SVGID_00000174601156032260126850000009107220732325097405_);" cx="362" cy="201.5" r="79.5"/>
			</g>
		</g>
	</g>
	
		<radialGradient id="SVGID_00000067915486078861905620000012769462439116144571_" cx="194.1836" cy="248.9333" r="224.6669" fx="139.9979" fy="247.9923" gradientUnits="userSpaceOnUse">
		<stop  offset="0.1568" style="stop-color:#FDFDFD"/>
		<stop  offset="0.4272" style="stop-color:#FBFBFA"/>
		<stop  offset="0.6201" style="stop-color:#F3F2F1"/>
		<stop  offset="0.7889" style="stop-color:#E7E5E1"/>
		<stop  offset="0.943" style="stop-color:#D5D2CB"/>
		<stop  offset="1" style="stop-color:#CDC9C1"/>
	</radialGradient>
	<path style="fill:url(#SVGID_00000067915486078861905620000012769462439116144571_);" d="M393.2,267.5c0.7-3.8,1.1-7.8,1.1-11.8
		c0-34-27.5-61.5-61.5-61.5c-6.2,0-12.2,0.9-17.9,2.6c-15-33.5-48.7-56.8-87.8-56.8c-51.7,0-93.8,40.7-96.1,91.9
		C88.4,232.5,54,267.3,54,310.1c0,41.9,32.8,76.1,74.2,78.2c0.6,0.1,1.2,0.1,1.7,0.1h258.3c0.1,0,0.1,0,0.2,0c0.1,0,0.2,0,0.3,0
		c33.5,0,60.6-27.1,60.6-60.6C449.3,296,424.6,269.8,393.2,267.5z"/>
</g>
</svg>
