<?xml version="1.0" encoding="utf-8"?>
<!-- Generator: Adobe Illustrator 27.8.1, SVG Export Plug-In . SVG Version: 6.00 Build 0)  -->
<svg version="1.1" id="Layer_1" xmlns="http://www.w3.org/2000/svg" xmlns:xlink="http://www.w3.org/1999/xlink" x="0px" y="0px"
	 viewBox="0 0 520 487" style="enable-background:new 0 0 520 487;" xml:space="preserve">
<style type="text/css">
	.st0{fill:url(#SVGID_1_);}
	.st1{fill:url(#SVGID_00000134226337719859902700000006820340647432100232_);}
	.st2{fill:url(#SVGID_00000106115154205276102440000007692688421219471284_);}
	.st3{fill:url(#SVGID_00000145034749670264679550000018259244168010279053_);}
	.st4{fill:url(#SVGID_00000024709943007166999300000013499917907372140704_);}
	.st5{fill:url(#SVGID_00000024000211503377268910000003311384247539580580_);}
</style>
<g>
	<g>
		
			<radialGradient id="SVGID_1_" cx="167.1305" cy="67.7822" r="93.5224" gradientTransform="matrix(-1 0 0 1 527.8738 0)" gradientUnits="userSpaceOnUse">
			<stop  offset="0" style="stop-color:#CDC9C1"/>
			<stop  offset="0.3513" style="stop-color:#C3BFB7"/>
			<stop  offset="0.9429" style="stop-color:#A9A59E"/>
			<stop  offset="1" style="stop-color:#A6A29B"/>
		</radialGradient>
		<path class="st0" d="M268.5,141.3c-0.4-2.1-0.6-4.2-0.6-6.4c0-18.5,15-33.4,33.4-33.4c3.4,0,6.6,0.5,9.7,1.4
			c8.2-18.2,26.5-30.9,47.7-30.9c28.1,0,51,22.1,52.2,49.9c23.2,0.4,41.9,19.3,41.9,42.6c0,22.8-17.9,41.3-40.3,42.5
			c-0.3,0-0.6,0.1-0.9,0.1H271.2c0,0-0.1,0-0.1,0c-0.1,0-0.1,0-0.2,0c-18.2,0-32.9-14.7-32.9-32.9
			C238,156.8,251.4,142.6,268.5,141.3z"/>
		
			<radialGradient id="SVGID_00000142159497214315300990000017979404961307847843_" cx="181.1972" cy="167.9168" r="184.3663" fx="136.7312" fy="167.1446" gradientUnits="userSpaceOnUse">
			<stop  offset="0.1568" style="stop-color:#FDFDFD"/>
			<stop  offset="0.3707" style="stop-color:#F5F5F3"/>
			<stop  offset="0.7306" style="stop-color:#E0DED9"/>
			<stop  offset="1" style="stop-color:#CDC9C1"/>
		</radialGradient>
		<path style="fill:url(#SVGID_00000142159497214315300990000017979404961307847843_);" d="M344.5,183.1c0.6-3.1,0.9-6.4,0.9-9.7
			c0-27.9-22.6-50.5-50.5-50.5c-5.1,0-10,0.8-14.7,2.2c-12.3-27.5-39.9-46.6-72-46.6c-42.4,0-77,33.4-78.9,75.4
			c-35,0.5-63.3,29.1-63.3,64.3c0,34.4,26.9,62.4,60.9,64.2c0.5,0.1,0.9,0.1,1.4,0.1h212c0,0,0.1,0,0.1,0c0.1,0,0.2,0,0.3,0
			c27.5,0,49.7-22.3,49.7-49.7C390.5,206.5,370.3,185,344.5,183.1z"/>
	</g>
	
		<radialGradient id="SVGID_00000024703466976480480520000003247439061626353036_" cx="150.2122" cy="347.9136" r="21.5894" gradientUnits="userSpaceOnUse">
		<stop  offset="0" style="stop-color:#8FB8C4"/>
		<stop  offset="0.504" style="stop-color:#8DB6C2"/>
		<stop  offset="0.7721" style="stop-color:#85B0BB"/>
		<stop  offset="0.9845" style="stop-color:#77A6B0"/>
		<stop  offset="1" style="stop-color:#76A5AF"/>
	</radialGradient>
	<path style="fill:url(#SVGID_00000024703466976480480520000003247439061626353036_);" d="M166.2,358c0,8.8-7.1,15.9-15.9,15.9
		s-15.9-7.1-15.9-15.9s15.9-36.1,15.9-36.1S166.2,349.2,166.2,358z"/>
	
		<radialGradient id="SVGID_00000088108910764777753730000011859136091834794892_" cx="286.6083" cy="388.9607" r="21.5894" gradientUnits="userSpaceOnUse">
		<stop  offset="0" style="stop-color:#8FB8C4"/>
		<stop  offset="0.504" style="stop-color:#8DB6C2"/>
		<stop  offset="0.7721" style="stop-color:#85B0BB"/>
		<stop  offset="0.9845" style="stop-color:#77A6B0"/>
		<stop  offset="1" style="stop-color:#76A5AF"/>
	</radialGradient>
	<path style="fill:url(#SVGID_00000088108910764777753730000011859136091834794892_);" d="M302.6,399.1c0,8.8-7.1,15.9-15.9,15.9
		s-15.9-7.1-15.9-15.9s15.9-36.1,15.9-36.1S302.6,390.3,302.6,399.1z"/>
	
		<radialGradient id="SVGID_00000175316900627235453540000005205414406047649463_" cx="230.8526" cy="315.589" r="11.1669" gradientUnits="userSpaceOnUse">
		<stop  offset="0" style="stop-color:#8FB8C4"/>
		<stop  offset="0.504" style="stop-color:#8DB6C2"/>
		<stop  offset="0.7721" style="stop-color:#85B0BB"/>
		<stop  offset="0.9845" style="stop-color:#77A6B0"/>
		<stop  offset="1" style="stop-color:#76A5AF"/>
	</radialGradient>
	<path style="fill:url(#SVGID_00000175316900627235453540000005205414406047649463_);" d="M239.1,320.8c0,4.6-3.7,8.2-8.2,8.2
		s-8.2-3.7-8.2-8.2c0-4.6,8.2-18.7,8.2-18.7S239.1,316.3,239.1,320.8z"/>
	
		<radialGradient id="SVGID_00000165223943730754263270000012576888871933753233_" cx="359.1249" cy="329.9555" r="11.1669" gradientUnits="userSpaceOnUse">
		<stop  offset="0" style="stop-color:#8FB8C4"/>
		<stop  offset="0.504" style="stop-color:#8DB6C2"/>
		<stop  offset="0.7721" style="stop-color:#85B0BB"/>
		<stop  offset="0.9845" style="stop-color:#77A6B0"/>
		<stop  offset="1" style="stop-color:#76A5AF"/>
	</radialGradient>
	<path style="fill:url(#SVGID_00000165223943730754263270000012576888871933753233_);" d="M367.4,335.2c0,4.6-3.7,8.2-8.2,8.2
		c-4.6,0-8.2-3.7-8.2-8.2s8.2-18.7,8.2-18.7S367.4,330.6,367.4,335.2z"/>
</g>
</svg>
