<?xml version="1.0" encoding="utf-8"?>
<!-- Generator: Adobe Illustrator 27.8.1, SVG Export Plug-In . SVG Version: 6.00 Build 0)  -->
<svg version="1.1" id="Layer_1" xmlns="http://www.w3.org/2000/svg" xmlns:xlink="http://www.w3.org/1999/xlink" x="0px" y="0px"
	 viewBox="0 0 520 487" style="enable-background:new 0 0 520 487;" xml:space="preserve">
<style type="text/css">
	.st0{fill:url(#SVGID_1_);}
	.st1{fill:url(#SVGID_00000067949501244803566480000009893927160006795402_);}
	.st2{fill:url(#SVGID_00000121990388009641323410000005885493335894323109_);}
	.st3{fill:url(#SVGID_00000122713414011635107440000012912453736675156362_);}
	.st4{fill:url(#SVGID_00000058585793003541870280000016271863106595651229_);}
	.st5{fill:url(#SVGID_00000025400935431664313750000003618119243450423982_);}
	.st6{fill:url(#SVGID_00000100379155577871790970000000241288784636776581_);}
	.st7{fill:url(#SVGID_00000143591893633091959780000009978575357484638899_);}
	.st8{fill:url(#SVGID_00000013891649027127444450000013224716335680057274_);}
</style>
<g>
	<g>
		
			<radialGradient id="SVGID_1_" cx="167.5706" cy="93.6923" r="93.1159" gradientTransform="matrix(-1 0 0 1 527.8738 0)" gradientUnits="userSpaceOnUse">
			<stop  offset="0" style="stop-color:#CDC9C1"/>
			<stop  offset="0.3513" style="stop-color:#C3BFB7"/>
			<stop  offset="0.9429" style="stop-color:#A9A59E"/>
			<stop  offset="1" style="stop-color:#A6A29B"/>
		</radialGradient>
		<path class="st0" d="M268.4,166.9c-0.4-2.1-0.6-4.2-0.6-6.4c0-18.4,14.9-33.3,33.3-33.3c3.4,0,6.6,0.5,9.7,1.4
			c8.1-18.1,26.3-30.8,47.5-30.8c28,0,50.8,22.1,52,49.7C433.4,148,452,166.8,452,190c0,22.7-17.8,41.2-40.1,42.3
			c-0.3,0-0.6,0.1-0.9,0.1H271.1c0,0-0.1,0-0.1,0c-0.1,0-0.1,0-0.2,0c-18.1,0-32.8-14.7-32.8-32.8
			C238.1,182.3,251.4,168.2,268.4,166.9z"/>
		
			<radialGradient id="SVGID_00000117647307386574111950000012608579343262087855_" cx="181.5375" cy="193.3916" r="183.5649" fx="137.2649" fy="192.6228" gradientUnits="userSpaceOnUse">
			<stop  offset="0.1568" style="stop-color:#FDFDFD"/>
			<stop  offset="0.3707" style="stop-color:#F5F5F3"/>
			<stop  offset="0.7306" style="stop-color:#E0DED9"/>
			<stop  offset="1" style="stop-color:#CDC9C1"/>
		</radialGradient>
		<path style="fill:url(#SVGID_00000117647307386574111950000012608579343262087855_);" d="M344.2,208.5c0.6-3.1,0.9-6.4,0.9-9.7
			c0-27.7-22.5-50.2-50.2-50.2c-5.1,0-10,0.8-14.6,2.2c-12.3-27.4-39.8-46.4-71.7-46.4c-42.2,0-76.7,33.3-78.5,75
			c-34.9,0.5-63,29-63,64c0,34.2,26.8,62.1,60.6,63.9c0.5,0.1,0.9,0.1,1.4,0.1h211.1c0,0,0.1,0,0.1,0c0.1,0,0.2,0,0.2,0
			c27.3,0,49.5-22.2,49.5-49.5C390,231.8,369.8,210.4,344.2,208.5z"/>
	</g>
	<g>
		
			<radialGradient id="SVGID_00000029035170346025145630000013932904258372489605_" cx="173.0927" cy="313.9849" r="38.871" gradientTransform="matrix(0.8272 0.5619 -0.5619 0.8272 183.7042 -55.4385)" gradientUnits="userSpaceOnUse">
			<stop  offset="0" style="stop-color:#8FB8C4"/>
			<stop  offset="0.504" style="stop-color:#8DB6C2"/>
			<stop  offset="0.7721" style="stop-color:#85B0BB"/>
			<stop  offset="0.9845" style="stop-color:#77A6B0"/>
			<stop  offset="1" style="stop-color:#76A5AF"/>
		</radialGradient>
		<path style="fill:url(#SVGID_00000029035170346025145630000013932904258372489605_);" d="M121.4,348.1l-3.5-2.4
			c-0.8-0.6-1-1.7-0.5-2.5l59.6-87.8c0.6-0.8,1.7-1,2.5-0.5l3.5,2.4c0.8,0.6,1,1.7,0.5,2.5l-59.6,87.8
			C123.4,348.4,122.2,348.7,121.4,348.1z"/>
		
			<radialGradient id="SVGID_00000118361417339329755120000010595341684589672324_" cx="208.8538" cy="302.8236" r="38.871" gradientTransform="matrix(0.8272 0.5619 -0.64 0.9423 202.4788 -83.0812)" gradientUnits="userSpaceOnUse">
			<stop  offset="0" style="stop-color:#8FB8C4"/>
			<stop  offset="0.504" style="stop-color:#8DB6C2"/>
			<stop  offset="0.7721" style="stop-color:#85B0BB"/>
			<stop  offset="0.9845" style="stop-color:#77A6B0"/>
			<stop  offset="1" style="stop-color:#76A5AF"/>
		</radialGradient>
		<path style="fill:url(#SVGID_00000118361417339329755120000010595341684589672324_);" d="M148.1,372.5l-3.5-2.4
			c-0.8-0.6-1-1.7-0.5-2.5l68.2-100.4c0.6-0.8,1.7-1,2.5-0.5l3.5,2.4c0.8,0.6,1,1.7,0.5,2.5L150.6,372
			C150,372.8,148.9,373,148.1,372.5z"/>
		
			<radialGradient id="SVGID_00000052821925410630229510000004932275758576521108_" cx="190.9732" cy="298.7707" r="38.871" gradientTransform="matrix(0.8272 0.5619 -0.8572 1.2621 261.044 -169.3094)" gradientUnits="userSpaceOnUse">
			<stop  offset="0" style="stop-color:#8FB8C4"/>
			<stop  offset="0.504" style="stop-color:#8DB6C2"/>
			<stop  offset="0.7721" style="stop-color:#85B0BB"/>
			<stop  offset="0.9845" style="stop-color:#77A6B0"/>
			<stop  offset="1" style="stop-color:#76A5AF"/>
		</radialGradient>
		<path style="fill:url(#SVGID_00000052821925410630229510000004932275758576521108_);" d="M117.7,385.5l-3.5-2.4
			c-0.8-0.6-1-1.7-0.5-2.5l92-135.4c0.6-0.8,1.7-1,2.5-0.5l3.5,2.4c0.8,0.6,1,1.7,0.5,2.5l-92,135.4
			C119.6,385.8,118.5,386,117.7,385.5z"/>
		
			<radialGradient id="SVGID_00000079455329214094922720000007944920979755370653_" cx="225.5124" cy="283.1165" r="38.871" gradientTransform="matrix(0.8272 0.5619 -0.5619 0.8272 183.7042 -55.4385)" gradientUnits="userSpaceOnUse">
			<stop  offset="0" style="stop-color:#8FB8C4"/>
			<stop  offset="0.504" style="stop-color:#8DB6C2"/>
			<stop  offset="0.7721" style="stop-color:#85B0BB"/>
			<stop  offset="0.9845" style="stop-color:#77A6B0"/>
			<stop  offset="1" style="stop-color:#76A5AF"/>
		</radialGradient>
		<path style="fill:url(#SVGID_00000079455329214094922720000007944920979755370653_);" d="M182.1,352l-3.5-2.4
			c-0.8-0.6-1-1.7-0.5-2.5l59.6-87.8c0.6-0.8,1.7-1,2.5-0.5l3.5,2.4c0.8,0.6,1,1.7,0.5,2.5l-59.6,87.8
			C184.1,352.4,183,352.6,182.1,352z"/>
		
			<radialGradient id="SVGID_00000146469275243688172520000015113911298307711391_" cx="283.3727" cy="253.2876" r="38.871" gradientTransform="matrix(0.8272 0.5619 -0.5619 0.8272 183.7042 -55.4385)" gradientUnits="userSpaceOnUse">
			<stop  offset="0" style="stop-color:#8FB8C4"/>
			<stop  offset="0.504" style="stop-color:#8DB6C2"/>
			<stop  offset="0.7721" style="stop-color:#85B0BB"/>
			<stop  offset="0.9845" style="stop-color:#77A6B0"/>
			<stop  offset="1" style="stop-color:#76A5AF"/>
		</radialGradient>
		<path style="fill:url(#SVGID_00000146469275243688172520000015113911298307711391_);" d="M246.8,359.9l-3.5-2.4
			c-0.8-0.6-1-1.7-0.5-2.5l59.6-87.8c0.6-0.8,1.7-1,2.5-0.5l3.5,2.4c0.8,0.6,1,1.7,0.5,2.5l-59.6,87.8
			C248.7,360.2,247.6,360.4,246.8,359.9z"/>
		
			<radialGradient id="SVGID_00000063601113507821081970000015483422537746255548_" cx="261.2736" cy="275.7243" r="38.871" gradientTransform="matrix(0.8272 0.5619 -0.64 0.9423 202.4788 -83.0812)" gradientUnits="userSpaceOnUse">
			<stop  offset="0" style="stop-color:#8FB8C4"/>
			<stop  offset="0.504" style="stop-color:#8DB6C2"/>
			<stop  offset="0.7721" style="stop-color:#85B0BB"/>
			<stop  offset="0.9845" style="stop-color:#77A6B0"/>
			<stop  offset="1" style="stop-color:#76A5AF"/>
		</radialGradient>
		<path style="fill:url(#SVGID_00000063601113507821081970000015483422537746255548_);" d="M208.8,376.4l-3.5-2.4
			c-0.8-0.6-1-1.7-0.5-2.5L273,271.1c0.6-0.8,1.7-1,2.5-0.5l3.5,2.4c0.8,0.6,1,1.7,0.5,2.5l-68.2,100.4
			C210.8,376.7,209.6,376.9,208.8,376.4z"/>
		
			<radialGradient id="SVGID_00000022550588527270764920000016711493324616798884_" cx="243.393" cy="278.538" r="38.871" gradientTransform="matrix(0.8272 0.5619 -0.8572 1.2621 261.044 -169.3094)" gradientUnits="userSpaceOnUse">
			<stop  offset="0" style="stop-color:#8FB8C4"/>
			<stop  offset="0.504" style="stop-color:#8DB6C2"/>
			<stop  offset="0.7721" style="stop-color:#85B0BB"/>
			<stop  offset="0.9845" style="stop-color:#77A6B0"/>
			<stop  offset="1" style="stop-color:#76A5AF"/>
		</radialGradient>
		<path style="fill:url(#SVGID_00000022550588527270764920000016711493324616798884_);" d="M178.4,389.4l-3.5-2.4
			c-0.8-0.6-1-1.7-0.5-2.5l92-135.4c0.6-0.8,1.7-1,2.5-0.5l3.5,2.4c0.8,0.6,1,1.7,0.5,2.5l-92,135.4
			C180.3,389.7,179.2,389.9,178.4,389.4z"/>
	</g>
</g>
</svg>
