<?xml version="1.0" encoding="utf-8"?>
<!-- Generator: Adobe Illustrator 27.8.1, SVG Export Plug-In . SVG Version: 6.00 Build 0)  -->
<svg version="1.1" id="snow" xmlns="http://www.w3.org/2000/svg" xmlns:xlink="http://www.w3.org/1999/xlink" x="0px" y="0px"
	 viewBox="0 0 520 487" style="enable-background:new 0 0 520 487;" xml:space="preserve">
<style type="text/css">
	.st0{fill:url(#SVGID_1_);}
	.st1{fill:url(#SVGID_00000134232507501635587190000001717913054419891112_);}
	.st2{fill:url(#SVGID_00000173133249993037936790000009121274837069641384_);}
	.st3{fill:url(#SVGID_00000124858450311449465270000001570075867456195201_);}
	.st4{fill:url(#SVGID_00000034070017727138911860000000068553706815462064_);}
	.st5{fill:url(#SVGID_00000068662012451032391560000009532367745403580089_);}
</style>
<g>
	<radialGradient id="SVGID_1_" cx="202.6266" cy="369.8788" r="26.9764" gradientUnits="userSpaceOnUse">
		<stop  offset="0.1568" style="stop-color:#FDFDFD"/>
		<stop  offset="0.3707" style="stop-color:#F5F5F3"/>
		<stop  offset="0.7306" style="stop-color:#E0DED9"/>
		<stop  offset="1" style="stop-color:#CDC9C1"/>
	</radialGradient>
	<path class="st0" d="M228.2,368.5h-4.8l3.4-3.1c0.3-0.3,0.4-0.8,0.1-1.2c-0.3-0.3-0.8-0.4-1.2-0.1l-4.7,4.3h-8.7
		c-0.3-1.7-0.9-3.2-1.9-4.4l6.3-6.3l6.3-0.3c0.5,0,0.8-0.4,0.8-0.9c0-0.5-0.4-0.8-0.9-0.8l-4.5,0.2l3.4-3.4c0.5-0.5,0.5-1.4,0-1.9
		c-0.5-0.5-1.4-0.5-1.9,0l-3.4,3.4l0.2-4.6c0-0.5-0.3-0.8-0.8-0.9c-0.5,0-0.8,0.3-0.9,0.8l-0.3,6.4l-6.3,6.3
		c-1.3-0.9-2.8-1.5-4.4-1.7v-9.1l4.2-4.7c0.3-0.3,0.3-0.9-0.1-1.2c-0.3-0.3-0.9-0.3-1.2,0.1l-3,3.3v-4.7c0-0.8-0.6-1.4-1.4-1.4
		s-1.4,0.6-1.4,1.4v4.8l-3.1-3.4c-0.3-0.3-0.8-0.4-1.2-0.1c-0.3,0.3-0.4,0.8-0.1,1.2l4.3,4.7v9.1c-1.5,0.3-2.9,0.9-4.1,1.8l-6.5-6.5
		l-0.3-6.3c0-0.5-0.4-0.8-0.9-0.8c-0.5,0-0.8,0.4-0.8,0.9l0.2,4.5l-3.4-3.4c-0.5-0.5-1.4-0.5-1.9,0c-0.5,0.5-0.5,1.4,0,1.9l3.5,3.5
		l-4.6-0.2c-0.5,0-0.8,0.3-0.9,0.8c0,0.5,0.3,0.8,0.8,0.9l6.4,0.3l6.5,6.5c-0.9,1.2-1.6,2.7-1.8,4.3h-9.1l-4.7-4.3
		c-0.3-0.3-0.9-0.3-1.2,0.1c-0.3,0.3-0.3,0.9,0.1,1.2l3.4,3.1H177c-0.8,0-1.4,0.6-1.4,1.4s0.6,1.4,1.4,1.4h4.8l-3.3,3
		c-0.3,0.3-0.4,0.8-0.1,1.2c0.2,0.2,0.4,0.3,0.6,0.3c0.2,0,0.4-0.1,0.6-0.2l4.7-4.2h9.1c0.2,1.6,0.8,3,1.7,4.3l-6.3,6.3l-6.4,0.3
		c-0.5,0-0.8,0.4-0.8,0.9c0,0.4,0.4,0.8,0.8,0.8c0,0,0,0,0,0l4.6-0.2l-3.5,3.5c-0.5,0.5-0.5,1.4,0,1.9c0.3,0.3,0.6,0.4,1,0.4
		c0.4,0,0.7-0.1,1-0.4l3.4-3.4l-0.2,4.5c0,0.5,0.3,0.8,0.8,0.9c0,0,0,0,0,0c0.4,0,0.8-0.3,0.8-0.8l0.3-6.3l6.3-6.3
		c1.2,1,2.7,1.6,4.3,1.9v8.7l-4.3,4.7c-0.3,0.3-0.3,0.9,0.1,1.2c0.2,0.1,0.4,0.2,0.6,0.2c0.2,0,0.4-0.1,0.6-0.3l3.1-3.4v4.9
		c0,0.8,0.6,1.4,1.4,1.4s1.4-0.6,1.4-1.4v-4.8l3,3.3c0.2,0.2,0.4,0.3,0.6,0.3c0.2,0,0.4-0.1,0.6-0.2c0.3-0.3,0.4-0.8,0.1-1.2
		l-4.2-4.7v-8.7c1.7-0.2,3.3-0.9,4.7-1.9l6.1,6.1l0.3,6.4c0,0.4,0.4,0.8,0.8,0.8c0,0,0,0,0,0c0.5,0,0.8-0.4,0.8-0.9l-0.2-4.6
		l3.4,3.4c0.3,0.3,0.6,0.4,1,0.4c0.4,0,0.7-0.1,1-0.4c0.5-0.5,0.5-1.4,0-1.9l-3.4-3.4l4.5,0.2c0,0,0,0,0,0c0.4,0,0.8-0.3,0.8-0.8
		c0-0.5-0.3-0.8-0.8-0.9l-6.3-0.3l-6.2-6.2c1-1.3,1.6-2.8,1.8-4.5h8.7l4.7,4.2c0.2,0.1,0.4,0.2,0.6,0.2c0.2,0,0.4-0.1,0.6-0.3
		c0.3-0.3,0.3-0.9-0.1-1.2l-3.3-3h4.7c0.8,0,1.4-0.6,1.4-1.4S229,368.5,228.2,368.5z M210.7,368.5H206l3.3-3.3
		C210,366.2,210.5,367.3,210.7,368.5z M207.3,363.4l-3.3,3.3v-4.5C205.2,362.3,206.3,362.8,207.3,363.4z M201.3,362.2v4.2l-2.9-2.9
		C199.2,362.9,200.2,362.5,201.3,362.2z M196.4,365.4l3.1,3.1h-4.4C195.3,367.4,195.8,366.3,196.4,365.4z M195.1,371.3h4.3l-3.1,3.1
		C195.7,373.5,195.3,372.4,195.1,371.3z M198.2,376.4l3.1-3.1v4.5C200.1,377.5,199.1,377,198.2,376.4z M204,377.9V373l3.5,3.5
		C206.5,377.2,205.3,377.7,204,377.9z M209.4,374.6l-3.3-3.3h4.6C210.6,372.5,210.1,373.6,209.4,374.6z"/>
	
		<radialGradient id="SVGID_00000093890377210374911930000008974344220427219868_" cx="345.2047" cy="330.0779" r="35.5412" gradientUnits="userSpaceOnUse">
		<stop  offset="0.1568" style="stop-color:#FDFDFD"/>
		<stop  offset="0.3707" style="stop-color:#F5F5F3"/>
		<stop  offset="0.7306" style="stop-color:#E0DED9"/>
		<stop  offset="1" style="stop-color:#CDC9C1"/>
	</radialGradient>
	<path style="fill:url(#SVGID_00000093890377210374911930000008974344220427219868_);" d="M378.9,328.3h-6.3l4.4-4
		c0.4-0.4,0.5-1.1,0.1-1.5c-0.4-0.4-1.1-0.5-1.5-0.1l-6.2,5.6H358c-0.3-2.2-1.2-4.2-2.5-5.8l8.3-8.3l8.3-0.4c0.6,0,1.1-0.5,1-1.1
		c0-0.6-0.5-1.1-1.1-1l-5.9,0.3l4.4-4.4c0.7-0.7,0.7-1.8,0-2.6c-0.7-0.7-1.8-0.7-2.6,0l-4.5,4.5l0.3-6c0-0.6-0.4-1.1-1-1.1
		c-0.6,0-1.1,0.4-1.1,1l-0.4,8.4l-8.4,8.4c-1.7-1.2-3.7-2-5.9-2.3v-11.9l5.6-6.1c0.4-0.4,0.4-1.1-0.1-1.5c-0.4-0.4-1.1-0.4-1.5,0.1
		l-4,4.4v-6.2c0-1-0.8-1.8-1.8-1.8s-1.8,0.8-1.8,1.8v6.3l-4-4.4c-0.4-0.4-1.1-0.5-1.5-0.1c-0.4,0.4-0.5,1.1-0.1,1.5l5.6,6.2v12
		c-2,0.3-3.8,1.2-5.4,2.3l-8.6-8.6l-0.4-8.3c0-0.6-0.5-1.1-1.1-1c-0.6,0-1.1,0.5-1,1.1l0.3,5.9l-4.5-4.5c-0.7-0.7-1.8-0.7-2.6,0
		c-0.7,0.7-0.7,1.8,0,2.6l4.6,4.6l-6-0.3c-0.6,0-1.1,0.4-1.1,1c0,0.6,0.4,1.1,1,1.1l8.4,0.4l8.5,8.5c-1.2,1.6-2.1,3.5-2.4,5.6h-12
		l-6.2-5.6c-0.4-0.4-1.1-0.4-1.5,0.1c-0.4,0.4-0.4,1.1,0.1,1.5l4.4,4h-6.4c-1,0-1.8,0.8-1.8,1.8s0.8,1.8,1.8,1.8h6.4l-4.4,4
		c-0.4,0.4-0.5,1.1-0.1,1.5c0.2,0.2,0.5,0.4,0.8,0.4c0.3,0,0.5-0.1,0.7-0.3l6.1-5.6h12c0.3,2.1,1.1,4,2.2,5.7l-8.3,8.3l-8.4,0.4
		c-0.6,0-1.1,0.5-1,1.1c0,0.6,0.5,1,1.1,1c0,0,0,0,0.1,0l6-0.3l-4.6,4.6c-0.7,0.7-0.7,1.8,0,2.6c0.4,0.4,0.8,0.5,1.3,0.5
		s0.9-0.2,1.3-0.5l4.5-4.5l-0.3,5.9c0,0.6,0.4,1.1,1,1.1c0,0,0,0,0.1,0c0.6,0,1.1-0.5,1.1-1l0.4-8.3l8.3-8.3
		c1.6,1.3,3.5,2.1,5.6,2.5v11.5l-5.6,6.2c-0.4,0.4-0.4,1.1,0.1,1.5c0.2,0.2,0.5,0.3,0.7,0.3c0.3,0,0.6-0.1,0.8-0.4l4-4.4v6.4
		c0,1,0.8,1.8,1.8,1.8s1.8-0.8,1.8-1.8v-6.4l4,4.4c0.2,0.2,0.5,0.4,0.8,0.4c0.3,0,0.5-0.1,0.7-0.3c0.4-0.4,0.5-1.1,0.1-1.5l-5.6-6.1
		v-11.4c2.3-0.3,4.4-1.1,6.1-2.5l8.1,8.1l0.4,8.4c0,0.6,0.5,1,1.1,1c0,0,0,0,0.1,0c0.6,0,1.1-0.5,1-1.1l-0.3-6l4.5,4.5
		c0.4,0.4,0.8,0.5,1.3,0.5c0.5,0,0.9-0.2,1.3-0.5c0.7-0.7,0.7-1.8,0-2.6l-4.4-4.4l5.9,0.3c0,0,0,0,0.1,0c0.6,0,1.1-0.5,1.1-1
		c0-0.6-0.4-1.1-1-1.1l-8.3-0.4l-8.1-8.1c1.3-1.7,2.1-3.7,2.4-5.9h11.4l6.1,5.6c0.2,0.2,0.5,0.3,0.7,0.3c0.3,0,0.6-0.1,0.8-0.4
		c0.4-0.4,0.4-1.1-0.1-1.5l-4.4-4h6.2c1,0,1.8-0.8,1.8-1.8S379.9,328.3,378.9,328.3z M355.9,328.3h-6.2l4.3-4.3
		C354.9,325.3,355.6,326.7,355.9,328.3z M351.3,321.5l-4.3,4.3v-5.9C348.6,320.1,350.1,320.7,351.3,321.5z M343.4,320v5.5l-3.8-3.8
		C340.7,320.9,342,320.3,343.4,320z M337,324.2l4.1,4.1h-5.8C335.6,326.8,336.2,325.4,337,324.2z M335.3,331.9h5.7l-4.1,4.1
		C336,334.8,335.5,333.4,335.3,331.9z M339.3,338.6l4.1-4.1v6C341.9,340.2,340.5,339.5,339.3,338.6z M347,340.6v-6.4l4.6,4.6
		C350.3,339.7,348.7,340.4,347,340.6z M354.2,336.2l-4.3-4.3h6.1C355.7,333.5,355,335,354.2,336.2z"/>
	
		<radialGradient id="SVGID_00000119813939501462557240000008842932855262701734_" cx="258.5495" cy="317.9865" r="15.3888" gradientUnits="userSpaceOnUse">
		<stop  offset="0.1568" style="stop-color:#FDFDFD"/>
		<stop  offset="0.3707" style="stop-color:#F5F5F3"/>
		<stop  offset="0.7306" style="stop-color:#E0DED9"/>
		<stop  offset="1" style="stop-color:#CDC9C1"/>
	</radialGradient>
	<path style="fill:url(#SVGID_00000119813939501462557240000008842932855262701734_);" d="M273.2,317.2h-2.7l1.9-1.7
		c0.2-0.2,0.2-0.5,0-0.7c-0.2-0.2-0.5-0.2-0.7,0l-2.7,2.4h-4.9c-0.1-0.9-0.5-1.8-1.1-2.5l3.6-3.6l3.6-0.2c0.3,0,0.5-0.2,0.4-0.5
		c0-0.3-0.2-0.5-0.5-0.4l-2.6,0.1l1.9-1.9c0.3-0.3,0.3-0.8,0-1.1c-0.3-0.3-0.8-0.3-1.1,0l-1.9,1.9l0.1-2.6c0-0.3-0.2-0.5-0.4-0.5
		c-0.3,0-0.5,0.2-0.5,0.4l-0.2,3.6l-3.6,3.6c-0.7-0.5-1.6-0.9-2.5-1v-5.2l2.4-2.7c0.2-0.2,0.2-0.5,0-0.7c-0.2-0.2-0.5-0.2-0.7,0
		l-1.7,1.9v-2.7c0-0.4-0.3-0.8-0.8-0.8c-0.4,0-0.8,0.3-0.8,0.8v2.7l-1.7-1.9c-0.2-0.2-0.5-0.2-0.7,0c-0.2,0.2-0.2,0.5,0,0.7l2.4,2.7
		v5.2c-0.9,0.1-1.6,0.5-2.3,1l-3.7-3.7l-0.2-3.6c0-0.3-0.2-0.5-0.5-0.4c-0.3,0-0.5,0.2-0.4,0.5l0.1,2.6l-2-2c-0.3-0.3-0.8-0.3-1.1,0
		c-0.3,0.3-0.3,0.8,0,1.1l2,2l-2.6-0.1c-0.3,0-0.5,0.2-0.5,0.4c0,0.3,0.2,0.5,0.4,0.5l3.6,0.2l3.7,3.7c-0.5,0.7-0.9,1.5-1,2.4h-5.2
		l-2.7-2.4c-0.2-0.2-0.5-0.2-0.7,0c-0.2,0.2-0.2,0.5,0,0.7l1.9,1.7h-2.8c-0.4,0-0.8,0.3-0.8,0.8c0,0.4,0.3,0.8,0.8,0.8h2.8l-1.9,1.7
		c-0.2,0.2-0.2,0.5,0,0.7c0.1,0.1,0.2,0.2,0.3,0.2c0.1,0,0.2,0,0.3-0.1l2.7-2.4h5.2c0.1,0.9,0.5,1.7,1,2.5l-3.6,3.6L247,325
		c-0.3,0-0.5,0.2-0.4,0.5c0,0.3,0.2,0.4,0.5,0.4c0,0,0,0,0,0l2.6-0.1l-2,2c-0.3,0.3-0.3,0.8,0,1.1c0.2,0.2,0.4,0.2,0.6,0.2
		s0.4-0.1,0.6-0.2l2-2l-0.1,2.6c0,0.3,0.2,0.5,0.4,0.5c0,0,0,0,0,0c0.2,0,0.5-0.2,0.5-0.4l0.2-3.6l3.6-3.6c0.7,0.5,1.5,0.9,2.4,1.1
		v5l-2.4,2.7c-0.2,0.2-0.2,0.5,0,0.7c0.1,0.1,0.2,0.1,0.3,0.1c0.1,0,0.3-0.1,0.3-0.2l1.7-1.9v2.8c0,0.4,0.3,0.8,0.8,0.8
		c0.4,0,0.8-0.3,0.8-0.8v-2.8l1.7,1.9c0.1,0.1,0.2,0.2,0.3,0.2c0.1,0,0.2,0,0.3-0.1c0.2-0.2,0.2-0.5,0-0.7l-2.4-2.7v-4.9
		c1-0.1,1.9-0.5,2.7-1.1l3.5,3.5l0.2,3.6c0,0.3,0.2,0.4,0.5,0.4c0,0,0,0,0,0c0.3,0,0.5-0.2,0.4-0.5l-0.1-2.6l1.9,1.9
		c0.2,0.2,0.4,0.2,0.6,0.2s0.4-0.1,0.6-0.2c0.3-0.3,0.3-0.8,0-1.1l-1.9-1.9l2.6,0.1c0,0,0,0,0,0c0.2,0,0.5-0.2,0.5-0.4
		c0-0.3-0.2-0.5-0.4-0.5l-3.6-0.2l-3.5-3.5c0.5-0.7,0.9-1.6,1-2.5h4.9l2.7,2.4c0.1,0.1,0.2,0.1,0.3,0.1c0.1,0,0.3-0.1,0.3-0.2
		c0.2-0.2,0.2-0.5,0-0.7l-1.9-1.7h2.7c0.4,0,0.8-0.3,0.8-0.8C273.9,317.6,273.6,317.2,273.2,317.2z M263.2,317.2h-2.7l1.9-1.9
		C262.7,315.9,263,316.5,263.2,317.2z M261.2,314.3l-1.9,1.9v-2.6C260,313.7,260.7,313.9,261.2,314.3z M257.8,313.6v2.4l-1.7-1.7
		C256.6,314,257.2,313.8,257.8,313.6z M255,315.5l1.8,1.8h-2.5C254.4,316.6,254.7,316,255,315.5z M254.2,318.8h2.5l-1.8,1.8
		C254.6,320,254.3,319.4,254.2,318.8z M256,321.7l1.8-1.8v2.6C257.1,322.4,256.5,322.1,256,321.7z M259.3,322.5v-2.8l2,2
		C260.7,322.2,260.1,322.4,259.3,322.5z M262.4,320.7l-1.9-1.9h2.6C263.1,319.5,262.8,320.1,262.4,320.7z"/>
	
		<radialGradient id="SVGID_00000139972670515781773200000002502273437181352346_" cx="282.7323" cy="400.6112" r="15.3888" gradientUnits="userSpaceOnUse">
		<stop  offset="0.1568" style="stop-color:#FDFDFD"/>
		<stop  offset="0.3707" style="stop-color:#F5F5F3"/>
		<stop  offset="0.7306" style="stop-color:#E0DED9"/>
		<stop  offset="1" style="stop-color:#CDC9C1"/>
	</radialGradient>
	<path style="fill:url(#SVGID_00000139972670515781773200000002502273437181352346_);" d="M297.3,399.8h-2.7l1.9-1.7
		c0.2-0.2,0.2-0.5,0-0.7c-0.2-0.2-0.5-0.2-0.7,0l-2.7,2.4h-4.9c-0.1-0.9-0.5-1.8-1.1-2.5l3.6-3.6l3.6-0.2c0.3,0,0.5-0.2,0.4-0.5
		c0-0.3-0.2-0.5-0.5-0.4l-2.6,0.1l1.9-1.9c0.3-0.3,0.3-0.8,0-1.1c-0.3-0.3-0.8-0.3-1.1,0l-1.9,1.9l0.1-2.6c0-0.3-0.2-0.5-0.4-0.5
		c-0.3,0-0.5,0.2-0.5,0.4l-0.2,3.6l-3.6,3.6c-0.7-0.5-1.6-0.9-2.5-1v-5.2l2.4-2.7c0.2-0.2,0.2-0.5,0-0.7c-0.2-0.2-0.5-0.2-0.7,0
		l-1.7,1.9V386c0-0.4-0.3-0.8-0.8-0.8c-0.4,0-0.8,0.3-0.8,0.8v2.7l-1.7-1.9c-0.2-0.2-0.5-0.2-0.7,0c-0.2,0.2-0.2,0.5,0,0.7l2.4,2.7
		v5.2c-0.9,0.1-1.6,0.5-2.3,1l-3.7-3.7l-0.2-3.6c0-0.3-0.2-0.5-0.5-0.4c-0.3,0-0.5,0.2-0.4,0.5l0.1,2.6l-2-2c-0.3-0.3-0.8-0.3-1.1,0
		c-0.3,0.3-0.3,0.8,0,1.1l2,2l-2.6-0.1c-0.3,0-0.5,0.2-0.5,0.4c0,0.3,0.2,0.5,0.4,0.5l3.6,0.2l3.7,3.7c-0.5,0.7-0.9,1.5-1,2.4h-5.2
		l-2.7-2.4c-0.2-0.2-0.5-0.2-0.7,0c-0.2,0.2-0.2,0.5,0,0.7l1.9,1.7h-2.8c-0.4,0-0.8,0.3-0.8,0.8c0,0.4,0.3,0.8,0.8,0.8h2.8l-1.9,1.7
		c-0.2,0.2-0.2,0.5,0,0.7c0.1,0.1,0.2,0.2,0.3,0.2c0.1,0,0.2,0,0.3-0.1l2.7-2.4h5.2c0.1,0.9,0.5,1.7,1,2.5l-3.6,3.6l-3.6,0.2
		c-0.3,0-0.5,0.2-0.4,0.5c0,0.3,0.2,0.4,0.5,0.4c0,0,0,0,0,0l2.6-0.1l-2,2c-0.3,0.3-0.3,0.8,0,1.1c0.2,0.2,0.4,0.2,0.6,0.2
		c0.2,0,0.4-0.1,0.6-0.2l2-2l-0.1,2.6c0,0.3,0.2,0.5,0.4,0.5c0,0,0,0,0,0c0.2,0,0.5-0.2,0.5-0.4l0.2-3.6l3.6-3.6
		c0.7,0.5,1.5,0.9,2.4,1.1v5l-2.4,2.7c-0.2,0.2-0.2,0.5,0,0.7c0.1,0.1,0.2,0.1,0.3,0.1c0.1,0,0.3-0.1,0.3-0.2l1.7-1.9v2.8
		c0,0.4,0.3,0.8,0.8,0.8c0.4,0,0.8-0.3,0.8-0.8v-2.8l1.7,1.9c0.1,0.1,0.2,0.2,0.3,0.2c0.1,0,0.2,0,0.3-0.1c0.2-0.2,0.2-0.5,0-0.7
		l-2.4-2.7v-4.9c1-0.1,1.9-0.5,2.7-1.1l3.5,3.5l0.2,3.6c0,0.3,0.2,0.4,0.5,0.4c0,0,0,0,0,0c0.3,0,0.5-0.2,0.4-0.5l-0.1-2.6l1.9,1.9
		c0.2,0.2,0.4,0.2,0.6,0.2c0.2,0,0.4-0.1,0.6-0.2c0.3-0.3,0.3-0.8,0-1.1l-1.9-1.9l2.6,0.1c0,0,0,0,0,0c0.2,0,0.5-0.2,0.5-0.4
		c0-0.3-0.2-0.5-0.4-0.5l-3.6-0.2l-3.5-3.5c0.5-0.7,0.9-1.6,1-2.5h4.9l2.7,2.4c0.1,0.1,0.2,0.1,0.3,0.1c0.1,0,0.3-0.1,0.3-0.2
		c0.2-0.2,0.2-0.5,0-0.7l-1.9-1.7h2.7c0.4,0,0.8-0.3,0.8-0.8C298.1,400.2,297.8,399.8,297.3,399.8z M287.3,399.8h-2.7l1.9-1.9
		C286.9,398.5,287.2,399.2,287.3,399.8z M285.4,396.9l-1.9,1.9v-2.6C284.2,396.3,284.8,396.5,285.4,396.9z M282,396.3v2.4l-1.7-1.7
		C280.8,396.6,281.4,396.4,282,396.3z M279.2,398.1l1.8,1.8h-2.5C278.6,399.2,278.8,398.6,279.2,398.1z M278.4,401.4h2.5l-1.8,1.8
		C278.8,402.7,278.5,402.1,278.4,401.4z M280.2,404.3l1.8-1.8v2.6C281.3,405,280.7,404.7,280.2,404.3z M283.5,405.2v-2.8l2,2
		C284.9,404.8,284.3,405.1,283.5,405.2z M286.6,403.3l-1.9-1.9h2.6C287.3,402.1,287,402.7,286.6,403.3z"/>
	
		<radialGradient id="SVGID_00000096776022452116753010000014862426466466220701_" cx="155.7724" cy="313.956" r="15.3888" gradientUnits="userSpaceOnUse">
		<stop  offset="0.1568" style="stop-color:#FDFDFD"/>
		<stop  offset="0.3707" style="stop-color:#F5F5F3"/>
		<stop  offset="0.7306" style="stop-color:#E0DED9"/>
		<stop  offset="1" style="stop-color:#CDC9C1"/>
	</radialGradient>
	<path style="fill:url(#SVGID_00000096776022452116753010000014862426466466220701_);" d="M170.4,313.2h-2.7l1.9-1.7
		c0.2-0.2,0.2-0.5,0-0.7c-0.2-0.2-0.5-0.2-0.7,0l-2.7,2.4h-4.9c-0.1-0.9-0.5-1.8-1.1-2.5l3.6-3.6l3.6-0.2c0.3,0,0.5-0.2,0.4-0.5
		c0-0.3-0.2-0.5-0.5-0.4l-2.6,0.1l1.9-1.9c0.3-0.3,0.3-0.8,0-1.1c-0.3-0.3-0.8-0.3-1.1,0l-1.9,1.9l0.1-2.6c0-0.3-0.2-0.5-0.4-0.5
		c-0.3,0-0.5,0.2-0.5,0.4l-0.2,3.6l-3.6,3.6c-0.7-0.5-1.6-0.9-2.5-1v-5.2l2.4-2.7c0.2-0.2,0.2-0.5,0-0.7c-0.2-0.2-0.5-0.2-0.7,0
		l-1.7,1.9v-2.7c0-0.4-0.3-0.8-0.8-0.8s-0.8,0.3-0.8,0.8v2.7l-1.7-1.9c-0.2-0.2-0.5-0.2-0.7,0c-0.2,0.2-0.2,0.5,0,0.7l2.4,2.7v5.2
		c-0.9,0.1-1.6,0.5-2.3,1l-3.7-3.7l-0.2-3.6c0-0.3-0.2-0.5-0.5-0.4c-0.3,0-0.5,0.2-0.4,0.5l0.1,2.6l-2-2c-0.3-0.3-0.8-0.3-1.1,0
		c-0.3,0.3-0.3,0.8,0,1.1l2,2l-2.6-0.1c-0.3,0-0.5,0.2-0.5,0.4c0,0.3,0.2,0.5,0.4,0.5l3.6,0.2l3.7,3.7c-0.5,0.7-0.9,1.5-1,2.4h-5.2
		l-2.7-2.4c-0.2-0.2-0.5-0.2-0.7,0c-0.2,0.2-0.2,0.5,0,0.7l1.9,1.7h-2.8c-0.4,0-0.8,0.3-0.8,0.8s0.3,0.8,0.8,0.8h2.8l-1.9,1.7
		c-0.2,0.2-0.2,0.5,0,0.7c0.1,0.1,0.2,0.2,0.3,0.2c0.1,0,0.2,0,0.3-0.1l2.7-2.4h5.2c0.1,0.9,0.5,1.7,1,2.5l-3.6,3.6l-3.6,0.2
		c-0.3,0-0.5,0.2-0.4,0.5c0,0.3,0.2,0.4,0.5,0.4c0,0,0,0,0,0l2.6-0.1l-2,2c-0.3,0.3-0.3,0.8,0,1.1c0.2,0.2,0.4,0.2,0.6,0.2
		c0.2,0,0.4-0.1,0.6-0.2l2-2l-0.1,2.6c0,0.3,0.2,0.5,0.4,0.5c0,0,0,0,0,0c0.2,0,0.5-0.2,0.5-0.4l0.2-3.6l3.6-3.6
		c0.7,0.5,1.5,0.9,2.4,1.1v5l-2.4,2.7c-0.2,0.2-0.2,0.5,0,0.7c0.1,0.1,0.2,0.1,0.3,0.1c0.1,0,0.3-0.1,0.3-0.2l1.7-1.9v2.8
		c0,0.4,0.3,0.8,0.8,0.8s0.8-0.3,0.8-0.8v-2.8l1.7,1.9c0.1,0.1,0.2,0.2,0.3,0.2c0.1,0,0.2,0,0.3-0.1c0.2-0.2,0.2-0.5,0-0.7l-2.4-2.7
		v-4.9c1-0.1,1.9-0.5,2.7-1.1l3.5,3.5l0.2,3.6c0,0.3,0.2,0.4,0.5,0.4c0,0,0,0,0,0c0.3,0,0.5-0.2,0.4-0.5l-0.1-2.6l1.9,1.9
		c0.2,0.2,0.4,0.2,0.6,0.2c0.2,0,0.4-0.1,0.6-0.2c0.3-0.3,0.3-0.8,0-1.1l-1.9-1.9l2.6,0.1c0,0,0,0,0,0c0.2,0,0.5-0.2,0.5-0.4
		c0-0.3-0.2-0.5-0.4-0.5l-3.6-0.2l-3.5-3.5c0.5-0.7,0.9-1.6,1-2.5h4.9l2.7,2.4c0.1,0.1,0.2,0.1,0.3,0.1c0.1,0,0.3-0.1,0.3-0.2
		c0.2-0.2,0.2-0.5,0-0.7l-1.9-1.7h2.7c0.4,0,0.8-0.3,0.8-0.8S170.8,313.2,170.4,313.2z M160.4,313.2h-2.7l1.9-1.9
		C160,311.9,160.3,312.5,160.4,313.2z M158.4,310.3l-1.9,1.9v-2.6C157.2,309.6,157.9,309.9,158.4,310.3z M155,309.6v2.4l-1.7-1.7
		C153.8,310,154.4,309.7,155,309.6z M152.2,311.4l1.8,1.8h-2.5C151.6,312.5,151.9,311.9,152.2,311.4z M151.5,314.7h2.5l-1.8,1.8
		C151.8,316,151.6,315.4,151.5,314.7z M153.2,317.7l1.8-1.8v2.6C154.3,318.3,153.7,318,153.2,317.7z M156.6,318.5v-2.8l2,2
		C158,318.1,157.3,318.4,156.6,318.5z M159.6,316.6l-1.9-1.9h2.6C160.3,315.4,160,316.1,159.6,316.6z"/>
	
		<radialGradient id="SVGID_00000134232699450870603690000006942044373974177201_" cx="211.1824" cy="162.618" r="188.9028" fx="165.6223" fy="161.8269" gradientUnits="userSpaceOnUse">
		<stop  offset="0.1568" style="stop-color:#FDFDFD"/>
		<stop  offset="0.3707" style="stop-color:#F5F5F3"/>
		<stop  offset="0.7306" style="stop-color:#E0DED9"/>
		<stop  offset="1" style="stop-color:#CDC9C1"/>
	</radialGradient>
	<path style="fill:url(#SVGID_00000134232699450870603690000006942044373974177201_);" d="M378.5,178.2c0.6-3.2,1-6.5,1-9.9
		c0-28.6-23.1-51.7-51.7-51.7c-5.2,0-10.3,0.8-15,2.2C300.1,90.6,271.8,71,239,71c-43.4,0-78.9,34.3-80.8,77.2
		c-35.9,0.6-64.9,29.8-64.9,65.9c0,35.2,27.6,64,62.4,65.8c0.5,0.1,1,0.1,1.5,0.1h217.2c0,0,0.1,0,0.1,0c0.1,0,0.2,0,0.3,0
		c28.1,0,51-22.8,51-51C425.7,202.2,404.9,180.2,378.5,178.2z"/>
</g>
</svg>
