<?xml version="1.0" encoding="utf-8"?>
<!-- Generator: Adobe Illustrator 27.8.1, SVG Export Plug-In . SVG Version: 6.00 Build 0)  -->
<svg version="1.1" id="Layer_2" xmlns="http://www.w3.org/2000/svg" xmlns:xlink="http://www.w3.org/1999/xlink" x="0px" y="0px"
	 viewBox="0 0 520 487" style="enable-background:new 0 0 520 487;" xml:space="preserve">
<style type="text/css">
	.st0{fill:url(#SVGID_1_);}
	.st1{fill:url(#SVGID_00000085931157315576737900000010031665355894971534_);}
	.st2{fill:url(#SVGID_00000129926559955747756230000005991701627380209046_);}
	.st3{fill:url(#SVGID_00000021095150529135320680000009604937711208934830_);}
	.st4{fill:url(#SVGID_00000026133434589753850570000004755001890388568455_);}
	.st5{fill:url(#SVGID_00000062901992326151180880000010570646881571514775_);}
</style>
<g>
	<g>
		
			<radialGradient id="SVGID_1_" cx="175.8253" cy="66.1444" r="85.4906" gradientTransform="matrix(-1 0 0 1 527.8738 0)" gradientUnits="userSpaceOnUse">
			<stop  offset="0" style="stop-color:#CDC9C1"/>
			<stop  offset="0.3513" style="stop-color:#C3BFB7"/>
			<stop  offset="0.9429" style="stop-color:#A9A59E"/>
			<stop  offset="1" style="stop-color:#A6A29B"/>
		</radialGradient>
		<path class="st0" d="M267.7,133.4c-0.4-1.9-0.6-3.9-0.6-5.9c0-16.9,13.7-30.6,30.6-30.6c3.1,0,6.1,0.5,8.9,1.3
			C314,81.6,330.7,70,350.2,70c25.7,0,46.6,20.2,47.7,45.6c21.2,0.3,38.3,17.6,38.3,38.9c0,20.8-16.3,37.8-36.9,38.9
			c-0.3,0-0.6,0.1-0.9,0.1H270.2c0,0-0.1,0-0.1,0c-0.1,0-0.1,0-0.2,0c-16.6,0-30.1-13.5-30.1-30.1
			C239.8,147.5,252.1,134.5,267.7,133.4z"/>
		
			<radialGradient id="SVGID_00000067951158300048666420000018137527977224580262_" cx="187.9219" cy="157.6794" r="168.5328" fx="147.2747" fy="156.9735" gradientUnits="userSpaceOnUse">
			<stop  offset="0.1568" style="stop-color:#FDFDFD"/>
			<stop  offset="0.3707" style="stop-color:#F5F5F3"/>
			<stop  offset="0.7306" style="stop-color:#E0DED9"/>
			<stop  offset="1" style="stop-color:#CDC9C1"/>
		</radialGradient>
		<path style="fill:url(#SVGID_00000067951158300048666420000018137527977224580262_);" d="M337.2,171.6c0.6-2.9,0.9-5.8,0.9-8.9
			c0-25.5-20.7-46.1-46.1-46.1c-4.7,0-9.2,0.7-13.4,2c-11.3-25.1-36.5-42.6-65.8-42.6c-38.8,0-70.4,30.6-72.1,68.9
			c-32,0.5-57.9,26.6-57.9,58.8c0,31.4,24.6,57.1,55.6,58.7c0.4,0.1,0.9,0.1,1.3,0.1h193.8c0,0,0.1,0,0.1,0c0.1,0,0.2,0,0.2,0
			c25.1,0,45.5-20.4,45.5-45.5C379.3,193,360.7,173.3,337.2,171.6z"/>
	</g>
	
		<radialGradient id="SVGID_00000010277934776942625730000002199312609646596787_" cx="133.2543" cy="311.1959" r="19.7353" gradientUnits="userSpaceOnUse">
		<stop  offset="0" style="stop-color:#8FB8C4"/>
		<stop  offset="0.504" style="stop-color:#8DB6C2"/>
		<stop  offset="0.7721" style="stop-color:#85B0BB"/>
		<stop  offset="0.9845" style="stop-color:#77A6B0"/>
		<stop  offset="1" style="stop-color:#76A5AF"/>
	</radialGradient>
	<path style="fill:url(#SVGID_00000010277934776942625730000002199312609646596787_);" d="M147.8,320.4c0,8-6.5,14.6-14.6,14.6
		s-14.6-6.5-14.6-14.6c0-8,14.6-33,14.6-33S147.8,312.4,147.8,320.4z"/>
	
		<radialGradient id="SVGID_00000065759990268946844630000002277415199201764751_" cx="264.9721" cy="393.197" r="19.7353" gradientUnits="userSpaceOnUse">
		<stop  offset="0" style="stop-color:#8FB8C4"/>
		<stop  offset="0.504" style="stop-color:#8DB6C2"/>
		<stop  offset="0.7721" style="stop-color:#85B0BB"/>
		<stop  offset="0.9845" style="stop-color:#77A6B0"/>
		<stop  offset="1" style="stop-color:#76A5AF"/>
	</radialGradient>
	<path style="fill:url(#SVGID_00000065759990268946844630000002277415199201764751_);" d="M279.5,402.4c0,8-6.5,14.6-14.6,14.6
		c-8,0-14.6-6.5-14.6-14.6c0-8,14.6-33,14.6-33S279.5,394.4,279.5,402.4z"/>
	
		<radialGradient id="SVGID_00000106852319506658044250000012559631282473759361_" cx="337.9054" cy="311.4304" r="10.2079" gradientUnits="userSpaceOnUse">
		<stop  offset="0" style="stop-color:#8FB8C4"/>
		<stop  offset="0.504" style="stop-color:#8DB6C2"/>
		<stop  offset="0.7721" style="stop-color:#85B0BB"/>
		<stop  offset="0.9845" style="stop-color:#77A6B0"/>
		<stop  offset="1" style="stop-color:#76A5AF"/>
	</radialGradient>
	<path style="fill:url(#SVGID_00000106852319506658044250000012559631282473759361_);" d="M345.4,316.2c0,4.2-3.4,7.5-7.5,7.5
		c-4.2,0-7.5-3.4-7.5-7.5c0-4.2,7.5-17.1,7.5-17.1S345.4,312,345.4,316.2z"/>
	<g>
		
			<image style="overflow:visible;opacity:0.34;" width="129" height="199" xlink:href="7DE041264908D3D.png"  transform="matrix(1 0 0 1 156 205)">
		</image>
		<g>
			
				<linearGradient id="SVGID_00000074422156778497371740000008538775759720834960_" gradientUnits="userSpaceOnUse" x1="177.3873" y1="304.6295" x2="263.6878" y2="304.6295">
				<stop  offset="0" style="stop-color:#E9B94D"/>
				<stop  offset="0.2404" style="stop-color:#E8B349"/>
				<stop  offset="0.5685" style="stop-color:#E4A13E"/>
				<stop  offset="0.9458" style="stop-color:#DD852D"/>
				<stop  offset="1" style="stop-color:#DC802A"/>
			</linearGradient>
			<polygon style="fill:url(#SVGID_00000074422156778497371740000008538775759720834960_);" points="263.7,226.4 222.3,226.4 
				181,298.3 203.8,298.3 177.4,382.8 260.1,282.2 231.6,282.2 			"/>
		</g>
	</g>
</g>
</svg>
