<?xml version="1.0" encoding="UTF-8"?><svg xmlns="http://www.w3.org/2000/svg" xmlns:xlink="http://www.w3.org/1999/xlink" viewBox="0 0 520 487"><defs><style>.cls-1{fill:url(#radial-gradient-55);}.cls-1,.cls-2{opacity:0;}.cls-3{fill:none;isolation:isolate;}.cls-4{fill:url(#radial-gradient-49);}.cls-4,.cls-5,.cls-6,.cls-7,.cls-8{opacity:.8;}.cls-4,.cls-5,.cls-6,.cls-7,.cls-8,.cls-9{mix-blend-mode:color-dodge;}.cls-5{fill:url(#radial-gradient-52);}.cls-6{fill:url(#radial-gradient-51);}.cls-7{fill:url(#radial-gradient-53);}.cls-8{fill:url(#radial-gradient-50);}.cls-10{fill:url(#radial-gradient-13);}.cls-10,.cls-11,.cls-12,.cls-13,.cls-14,.cls-15,.cls-16,.cls-17,.cls-18,.cls-19,.cls-20,.cls-21,.cls-22,.cls-23,.cls-24,.cls-25,.cls-26,.cls-27,.cls-28,.cls-29,.cls-30,.cls-31,.cls-32,.cls-33,.cls-34,.cls-35,.cls-36{mix-blend-mode:screen;}.cls-11{fill:url(#radial-gradient-14);}.cls-12{fill:url(#radial-gradient-12);}.cls-13{fill:url(#radial-gradient-16);}.cls-14{fill:url(#radial-gradient-25);}.cls-15{fill:url(#radial-gradient-54);}.cls-16{fill:url(#radial-gradient-24);}.cls-17{fill:url(#radial-gradient-23);}.cls-18{fill:url(#radial-gradient-22);}.cls-19{fill:url(#radial-gradient-27);}.cls-20{fill:url(#radial-gradient-26);}.cls-21{fill:url(#radial-gradient-17);}.cls-22{fill:url(#radial-gradient-18);}.cls-23{fill:url(#radial-gradient-11);}.cls-24{fill:url(#radial-gradient-10);}.cls-25{fill:url(#radial-gradient-19);}.cls-26{fill:url(#radial-gradient-20);}.cls-27{fill:url(#radial-gradient-21);}.cls-37{fill:url(#radial-gradient-42);}.cls-37,.cls-38{opacity:.71;}.cls-38{fill:url(#radial-gradient-70);}.cls-39{fill:url(#radial-gradient-44);}.cls-39,.cls-40{opacity:.81;}.cls-40{fill:url(#radial-gradient-72);}.cls-41{fill:url(#radial-gradient-45);}.cls-41,.cls-42{opacity:.86;}.cls-42{fill:url(#radial-gradient-73);}.cls-43{fill:url(#radial-gradient-43);}.cls-43,.cls-44{opacity:.76;}.cls-44{fill:url(#radial-gradient-71);}.cls-45{fill:url(#radial-gradient-46);}.cls-45,.cls-46{opacity:.9;}.cls-46{fill:url(#radial-gradient-74);}.cls-47{fill:url(#radial-gradient-37);}.cls-47,.cls-48{opacity:.48;}.cls-48{fill:url(#radial-gradient-65);}.cls-49{fill:url(#radial-gradient-47);}.cls-49,.cls-50{opacity:.95;}.cls-50{fill:url(#radial-gradient-75);}.cls-51{fill:url(#radial-gradient-35);}.cls-51,.cls-52{opacity:.38;}.cls-52{fill:url(#radial-gradient-63);}.cls-53{fill:url(#radial-gradient-36);}.cls-53,.cls-54{opacity:.43;}.cls-54{fill:url(#radial-gradient-64);}.cls-55{fill:url(#radial-gradient-38);}.cls-55,.cls-56{opacity:.52;}.cls-56{fill:url(#radial-gradient-66);}.cls-57{fill:url(#radial-gradient-40);}.cls-57,.cls-58{opacity:.62;}.cls-58{fill:url(#radial-gradient-68);}.cls-59{fill:url(#radial-gradient-41);}.cls-59,.cls-60{opacity:.67;}.cls-60{fill:url(#radial-gradient-69);}.cls-61{fill:url(#radial-gradient-39);}.cls-61,.cls-62{opacity:.57;}.cls-62{fill:url(#radial-gradient-67);}.cls-63{fill:url(#radial-gradient-59);}.cls-63,.cls-64{opacity:.19;}.cls-64{fill:url(#radial-gradient-31);}.cls-28{fill:url(#radial-gradient-5);}.cls-29{fill:url(#radial-gradient-3);}.cls-30{fill:url(#radial-gradient-6);}.cls-31{fill:url(#radial-gradient-4);}.cls-32{fill:url(#radial-gradient-9);}.cls-33{fill:url(#radial-gradient-8);}.cls-34{fill:url(#radial-gradient-7);}.cls-35{fill:url(#radial-gradient-2);}.cls-65{fill:url(#radial-gradient-32);}.cls-65,.cls-66{opacity:.24;}.cls-66{fill:url(#radial-gradient-60);}.cls-67{fill:url(#radial-gradient-33);}.cls-67,.cls-68{opacity:.29;}.cls-68{fill:url(#radial-gradient-61);}.cls-69{fill:url(#radial-gradient-34);}.cls-69,.cls-70{opacity:.33;}.cls-70{fill:url(#radial-gradient-62);}.cls-71{fill:url(#radial-gradient-30);}.cls-71,.cls-72{opacity:.14;}.cls-72{fill:url(#radial-gradient-58);}.cls-73{fill:url(#radial-gradient-76);}.cls-74{fill:url(#radial-gradient-48);}.cls-9{fill:url(#radial-gradient-15);}.cls-75{fill:url(#radial-gradient-28);}.cls-75,.cls-76{opacity:.05;}.cls-76{fill:url(#radial-gradient-56);}.cls-2{fill:#fff;}.cls-77{fill:url(#radial-gradient-57);}.cls-77,.cls-78{opacity:.1;}.cls-78{fill:url(#radial-gradient-29);}.cls-36{fill:url(#radial-gradient);}</style><radialGradient id="radial-gradient" cx="227.94" cy="-597.69" fx="227.94" fy="-597.69" r="142.69" gradientTransform="translate(-26.5 292.68) scale(1.26 .09)" gradientUnits="userSpaceOnUse"><stop offset="0" stop-color="#fffd68"/><stop offset=".25" stop-color="#ffb211"/><stop offset=".28" stop-color="#ffa906"/><stop offset=".35" stop-color="#ce8804"/><stop offset=".42" stop-color="#986403"/><stop offset=".5" stop-color="#694602"/><stop offset=".58" stop-color="#432c01"/><stop offset=".65" stop-color="#261900"/><stop offset=".73" stop-color="#100b00"/><stop offset=".8" stop-color="#040200"/><stop offset=".87" stop-color="#000"/></radialGradient><radialGradient id="radial-gradient-2" cx="230.73" cy="-64.57" fx="230.73" fy="-64.57" r="142.65" gradientTransform="translate(29.23 366.77) rotate(-27.1) scale(1.16 .09)" xlink:href="#radial-gradient"/><radialGradient id="radial-gradient-3" cx="194.47" cy="238.16" fx="194.47" fy="238.16" r="142.63" gradientTransform="translate(91.08 416) rotate(-51.43) scale(1.26 .09)" xlink:href="#radial-gradient"/><radialGradient id="radial-gradient-4" cx="161.85" cy="420.43" fx="161.85" fy="420.43" r="142.66" gradientTransform="translate(178.09 428.31) rotate(-77.14) scale(1.26 .09)" xlink:href="#radial-gradient"/><radialGradient id="radial-gradient-5" cx="125.58" cy="400.46" fx="125.58" fy="400.46" r="142.68" gradientTransform="translate(260.62 400.51) rotate(-102.86) scale(1.26 .09)" xlink:href="#radial-gradient"/><radialGradient id="radial-gradient-6" cx="95.01" cy="153.73" fx="95.01" fy="153.73" r="142.63" gradientTransform="translate(324.93 340.31) rotate(-128.57) scale(1.26 .09)" xlink:href="#radial-gradient"/><radialGradient id="radial-gradient-7" cx="74.07" cy="-236.77" fx="74.07" fy="-236.77" r="142.71" gradientTransform="translate(354.9 258.69) rotate(-154.29) scale(1.26 .09)" xlink:href="#radial-gradient"/><radialGradient id="radial-gradient-8" cx="224.35" cy="-326.79" fx="224.35" fy="-326.79" r="119.15" gradientTransform="translate(-7.42 337.38) rotate(-14.01) scale(1.26 .09)" xlink:href="#radial-gradient"/><radialGradient id="radial-gradient-9" cx="205.86" cy="93.19" fx="205.86" fy="93.19" r="119.12" gradientTransform="translate(54.75 399.15) rotate(-39.72) scale(1.26 .09)" xlink:href="#radial-gradient"/><radialGradient id="radial-gradient-10" cx="176.2" cy="356.96" fx="176.2" fy="356.96" r="119.17" gradientTransform="translate(137.77 428.3) rotate(-65.44) scale(1.26 .09)" xlink:href="#radial-gradient"/><radialGradient id="radial-gradient-11" cx="141.33" cy="429.08" fx="141.33" fy="429.08" r="119.24" gradientTransform="translate(224.22 418.79) rotate(-91.15) scale(1.26 .09)" xlink:href="#radial-gradient"/><radialGradient id="radial-gradient-12" cx="107.62" cy="280.1" fx="107.62" fy="280.1" r="119.21" gradientTransform="translate(298.49 372.48) rotate(-116.87) scale(1.26 .09)" xlink:href="#radial-gradient"/><radialGradient id="radial-gradient-13" cx="81.69" cy="-54.85" fx="81.69" fy="-54.85" r="119.22" gradientTransform="translate(345.02 298.34) rotate(-142.58) scale(1.26 .09)" xlink:href="#radial-gradient"/><radialGradient id="radial-gradient-14" cx="69.01" cy="-518" fx="69.01" fy="-518" r="119.21" gradientTransform="translate(354.99 210.77) rotate(-168.29) scale(1.26 .09)" xlink:href="#radial-gradient"/><radialGradient id="radial-gradient-15" cx="269.73" cy="244.12" fx="269.73" fy="244.12" r="154.8" gradientUnits="userSpaceOnUse"><stop offset="0" stop-color="#fffd68"/><stop offset=".34" stop-color="#ffb211"/><stop offset=".39" stop-color="#ffa906"/><stop offset=".39" stop-color="#faa605"/><stop offset=".57" stop-color="#906003"/><stop offset=".72" stop-color="#422c01"/><stop offset=".82" stop-color="#120c00"/><stop offset=".87" stop-color="#000"/></radialGradient><radialGradient id="radial-gradient-16" cx="236.24" cy="-555.03" fx="236.24" fy="-555.03" r="142.71" xlink:href="#radial-gradient"/><radialGradient id="radial-gradient-17" cx="197.32" cy="780.26" fx="197.32" fy="780.26" r="142.68" gradientTransform="translate(78.42 405.17) rotate(-51.43) scale(1.25 .06)" xlink:href="#radial-gradient"/><radialGradient id="radial-gradient-18" cx="160.67" cy="540.87" fx="160.67" fy="540.87" r="142.7" gradientTransform="translate(178.09 428.31) rotate(-77.14) scale(1.26 .09)" xlink:href="#radial-gradient"/><radialGradient id="radial-gradient-19" cx="120.71" cy="501.9" fx="120.71" fy="501.9" r="142.7" gradientTransform="translate(260.62 400.51) rotate(-102.86) scale(1.26 .09)" xlink:href="#radial-gradient"/><radialGradient id="radial-gradient-20" cx="89.99" cy="171.51" fx="89.99" fy="171.51" r="142.74" gradientTransform="translate(324.93 340.31) rotate(-128.57) scale(1.26 .09)" xlink:href="#radial-gradient"/><radialGradient id="radial-gradient-21" cx="231.65" cy="-257.84" fx="231.65" fy="-257.84" r="119.12" gradientTransform="translate(-7.42 337.38) rotate(-14.01) scale(1.26 .09)" xlink:href="#radial-gradient"/><radialGradient id="radial-gradient-22" cx="210.25" cy="198.81" fx="210.25" fy="198.81" r="119.1" gradientTransform="translate(54.75 399.15) rotate(-39.72) scale(1.26 .09)" xlink:href="#radial-gradient"/><radialGradient id="radial-gradient-23" cx="176.81" cy="478.36" fx="176.81" fy="478.36" r="119.14" gradientTransform="translate(137.77 428.3) rotate(-65.44) scale(1.26 .09)" xlink:href="#radial-gradient"/><radialGradient id="radial-gradient-24" cx="137.12" cy="533.91" fx="137.12" fy="533.91" r="119.18" gradientTransform="translate(225.21 439) rotate(-91.15) scale(1.42 .09)" xlink:href="#radial-gradient"/><radialGradient id="radial-gradient-25" cx="117.66" cy="357.73" fx="117.66" fy="357.73" r="119.21" gradientTransform="translate(291.1 409.89) rotate(-110.62) scale(1.5 .09)" xlink:href="#radial-gradient"/><radialGradient id="radial-gradient-26" cx="73.23" cy="-19.56" fx="73.23" fy="-19.56" r="119.23" gradientTransform="translate(345.02 298.34) rotate(-142.58) scale(1.26 .09)" xlink:href="#radial-gradient"/><radialGradient id="radial-gradient-27" cx="60.27" cy="-536.58" fx="60.27" fy="-536.58" r="119.18" gradientTransform="translate(354.99 210.77) rotate(-168.29) scale(1.26 .09)" xlink:href="#radial-gradient"/><radialGradient id="radial-gradient-28" cx="256.19" cy="172.17" fx="256.19" fy="172.17" r="153.12" gradientUnits="userSpaceOnUse"><stop offset=".2" stop-color="#fffff9"/><stop offset=".55" stop-color="#fffdf4"/><stop offset=".93" stop-color="#fffaf3"/></radialGradient><radialGradient id="radial-gradient-29" cx="256.22" cy="172.85" fx="256.22" fy="172.85" r="151.56" gradientUnits="userSpaceOnUse"><stop offset=".2" stop-color="#fffff2"/><stop offset=".55" stop-color="#fffbea"/><stop offset=".93" stop-color="#fff6e7"/></radialGradient><radialGradient id="radial-gradient-30" cx="256.24" cy="173.53" fx="256.24" fy="173.53" r="150" gradientUnits="userSpaceOnUse"><stop offset=".2" stop-color="#ffffec"/><stop offset=".55" stop-color="#fff9df"/><stop offset=".93" stop-color="#fff1db"/></radialGradient><radialGradient id="radial-gradient-31" cx="256.27" cy="174.22" fx="256.27" fy="174.22" r="148.44" gradientUnits="userSpaceOnUse"><stop offset=".2" stop-color="#ffffe5"/><stop offset=".55" stop-color="#fff7d5"/><stop offset=".93" stop-color="#ffecce"/></radialGradient><radialGradient id="radial-gradient-32" cx="256.29" cy="174.9" fx="256.29" fy="174.9" r="146.88" gradientUnits="userSpaceOnUse"><stop offset=".2" stop-color="#ffffdf"/><stop offset=".55" stop-color="#fff5ca"/><stop offset=".61" stop-color="#fff2c8"/><stop offset=".93" stop-color="#ffe7c2"/></radialGradient><radialGradient id="radial-gradient-33" cx="256.31" cy="175.58" fx="256.31" fy="175.58" r="145.32" gradientUnits="userSpaceOnUse"><stop offset=".2" stop-color="#ffffd9"/><stop offset=".55" stop-color="#fff3c0"/><stop offset=".64" stop-color="#ffeebd"/><stop offset=".93" stop-color="#ffe3b6"/></radialGradient><radialGradient id="radial-gradient-34" cx="256.34" cy="176.26" fx="256.34" fy="176.26" r="143.76" gradientUnits="userSpaceOnUse"><stop offset=".2" stop-color="#ffffd2"/><stop offset=".55" stop-color="#fff1b5"/><stop offset=".68" stop-color="#ffe9b0"/><stop offset=".93" stop-color="#ffdeaa"/></radialGradient><radialGradient id="radial-gradient-35" cx="256.36" cy="176.95" fx="256.36" fy="176.95" r="142.2" gradientUnits="userSpaceOnUse"><stop offset=".2" stop-color="#ffc"/><stop offset=".2" stop-color="#fffecb"/><stop offset=".55" stop-color="#ffefaa"/><stop offset=".7" stop-color="#ffe4a4"/><stop offset=".93" stop-color="#ffd99e"/></radialGradient><radialGradient id="radial-gradient-36" cx="256.38" cy="177.63" fx="256.38" fy="177.63" r="140.64" gradientUnits="userSpaceOnUse"><stop offset=".2" stop-color="#ffffc6"/><stop offset=".24" stop-color="#fffcc1"/><stop offset=".55" stop-color="#ffeda0"/><stop offset=".72" stop-color="#ffe098"/><stop offset=".93" stop-color="#ffd592"/></radialGradient><radialGradient id="radial-gradient-37" cx="256.41" cy="178.31" fx="256.41" fy="178.31" r="139.08" gradientUnits="userSpaceOnUse"><stop offset=".2" stop-color="#ffffbf"/><stop offset=".26" stop-color="#fffab6"/><stop offset=".55" stop-color="#ffeb95"/><stop offset=".74" stop-color="#ffdb8c"/><stop offset=".93" stop-color="#ffd086"/></radialGradient><radialGradient id="radial-gradient-38" cx="256.43" cy="178.99" fx="256.43" fy="178.99" r="137.52" gradientUnits="userSpaceOnUse"><stop offset=".2" stop-color="#ffffb9"/><stop offset=".29" stop-color="#fff9ac"/><stop offset=".55" stop-color="#ffea8b"/><stop offset=".76" stop-color="#ffd67f"/><stop offset=".93" stop-color="#ffcb79"/></radialGradient><radialGradient id="radial-gradient-39" cx="256.45" cy="179.68" fx="256.45" fy="179.68" r="135.96" gradientUnits="userSpaceOnUse"><stop offset=".2" stop-color="#ffffb2"/><stop offset=".31" stop-color="#fff7a1"/><stop offset=".55" stop-color="#ffe880"/><stop offset=".77" stop-color="#ffd173"/><stop offset=".93" stop-color="#ffc66d"/></radialGradient><radialGradient id="radial-gradient-40" cx="256.48" cy="180.36" fx="256.48" fy="180.36" r="134.4" gradientUnits="userSpaceOnUse"><stop offset=".2" stop-color="#ffffac"/><stop offset=".32" stop-color="#fff597"/><stop offset=".55" stop-color="#ffe676"/><stop offset=".78" stop-color="#ffcd67"/><stop offset=".93" stop-color="#ffc261"/></radialGradient><radialGradient id="radial-gradient-41" cx="256.5" cy="181.04" fx="256.5" fy="181.04" r="132.84" gradientUnits="userSpaceOnUse"><stop offset=".2" stop-color="#ffffa6"/><stop offset=".34" stop-color="#fff38c"/><stop offset=".55" stop-color="#ffe46b"/><stop offset=".78" stop-color="#ffc85b"/><stop offset=".93" stop-color="#ffbd55"/></radialGradient><radialGradient id="radial-gradient-42" cx="256.52" cy="181.73" fx="256.52" fy="181.73" r="131.28" gradientUnits="userSpaceOnUse"><stop offset=".2" stop-color="#ffff9f"/><stop offset=".35" stop-color="#fff181"/><stop offset=".55" stop-color="#ffe260"/><stop offset=".55" stop-color="#ffe15f"/><stop offset=".79" stop-color="#ffc34f"/><stop offset=".93" stop-color="#ffb849"/></radialGradient><radialGradient id="radial-gradient-43" cx="256.55" cy="182.41" fx="256.55" fy="182.41" r="129.72" gradientUnits="userSpaceOnUse"><stop offset=".2" stop-color="#ff9"/><stop offset=".36" stop-color="#ffef77"/><stop offset=".55" stop-color="#ffe056"/><stop offset=".57" stop-color="#ffdd54"/><stop offset=".8" stop-color="#ffbf43"/><stop offset=".93" stop-color="#ffb43d"/></radialGradient><radialGradient id="radial-gradient-44" cx="256.57" cy="183.09" fx="256.57" fy="183.09" r="128.16" gradientUnits="userSpaceOnUse"><stop offset=".2" stop-color="#ffff93"/><stop offset=".37" stop-color="#ffed6c"/><stop offset=".55" stop-color="#ffde4b"/><stop offset=".58" stop-color="#ffd848"/><stop offset=".8" stop-color="#ffba37"/><stop offset=".93" stop-color="#ffaf31"/></radialGradient><radialGradient id="radial-gradient-45" cx="256.6" cy="183.77" fx="256.6" fy="183.77" r="126.6" gradientUnits="userSpaceOnUse"><stop offset=".2" stop-color="#ffff8c"/><stop offset=".38" stop-color="#ffeb62"/><stop offset=".55" stop-color="#ffdc41"/><stop offset=".6" stop-color="#ffd33c"/><stop offset=".81" stop-color="#ffb52a"/><stop offset=".93" stop-color="#ffaa24"/></radialGradient><radialGradient id="radial-gradient-46" cx="256.62" cy="184.46" fx="256.62" fy="184.46" r="125.04" gradientUnits="userSpaceOnUse"><stop offset=".2" stop-color="#ffff86"/><stop offset=".39" stop-color="#ffe957"/><stop offset=".55" stop-color="#ffda36"/><stop offset=".61" stop-color="#ffce2f"/><stop offset=".82" stop-color="#ffb01e"/><stop offset=".93" stop-color="#ffa518"/></radialGradient><radialGradient id="radial-gradient-47" cx="256.64" cy="185.14" fx="256.64" fy="185.14" r="123.48" gradientUnits="userSpaceOnUse"><stop offset=".2" stop-color="#ffff7f"/><stop offset=".4" stop-color="#ffe74d"/><stop offset=".55" stop-color="#ffd82c"/><stop offset=".62" stop-color="#ffca24"/><stop offset=".82" stop-color="#ffac12"/><stop offset=".93" stop-color="#ffa10c"/></radialGradient><radialGradient id="radial-gradient-48" cx="256.67" cy="185.82" fx="256.67" fy="185.82" r="121.91" gradientUnits="userSpaceOnUse"><stop offset=".2" stop-color="#ffff79"/><stop offset=".4" stop-color="#ffe542"/><stop offset=".55" stop-color="#ffd621"/><stop offset=".64" stop-color="#ffc517"/><stop offset=".82" stop-color="#ffa706"/><stop offset=".93" stop-color="#ff9c00"/></radialGradient><radialGradient id="radial-gradient-49" cx="57.38" cy="245.3" fx="57.38" fy="245.3" r="142.75" gradientTransform="translate(314.22 300.33) rotate(-138.56) scale(1.28 .09)" gradientUnits="userSpaceOnUse"><stop offset="0" stop-color="#fffd68"/><stop offset=".36" stop-color="#ffb211"/><stop offset=".41" stop-color="#ffa906"/><stop offset=".43" stop-color="#ef9e05"/><stop offset=".53" stop-color="#a86f03"/><stop offset=".62" stop-color="#6c4702"/><stop offset=".71" stop-color="#3d2801"/><stop offset=".79" stop-color="#1b1200"/><stop offset=".85" stop-color="#070400"/><stop offset=".89" stop-color="#000"/></radialGradient><radialGradient id="radial-gradient-50" cx="114.11" cy="690.53" fx="114.11" fy="690.53" r="142.67" gradientTransform="translate(217.37 385.14) rotate(-94.27) scale(1.28 .09)" xlink:href="#radial-gradient-49"/><radialGradient id="radial-gradient-51" cx="41.09" cy="-526.32" fx="41.09" fy="-526.32" r="142.69" gradientTransform="translate(317.45 193.49) rotate(-172.83) scale(1.28 .09)" xlink:href="#radial-gradient-49"/><radialGradient id="radial-gradient-52" cx="74.83" cy="-1635.6" fx="74.83" fy="-1635.6" r="142.6" gradientTransform="translate(250.23 93.67) rotate(137.9) scale(1.25 .08)" xlink:href="#radial-gradient-49"/><radialGradient id="radial-gradient-53" cx="105" cy="-2614.3" fx="105" fy="-2614.3" r="142.59" gradientTransform="translate(222.87 62.88) rotate(119.75) scale(1.32 .05)" xlink:href="#radial-gradient-49"/><radialGradient id="radial-gradient-54" cx="268.77" cy="242.73" fx="268.77" fy="242.73" r="114" gradientUnits="userSpaceOnUse"><stop offset="0" stop-color="#fffd68"/><stop offset=".35" stop-color="#ffb211"/><stop offset=".39" stop-color="#ffa906"/><stop offset=".4" stop-color="#faa605"/><stop offset=".58" stop-color="#906003"/><stop offset=".72" stop-color="#422c01"/><stop offset=".82" stop-color="#120c00"/><stop offset=".87" stop-color="#000"/></radialGradient><radialGradient id="radial-gradient-55" cx="268.27" cy="242.33" fx="268.27" fy="242.33" r="97.25" xlink:href="#radial-gradient-48"/><radialGradient id="radial-gradient-56" cx="268.13" cy="238.16" fx="268.13" fy="238.16" r="99.63" xlink:href="#radial-gradient-48"/><radialGradient id="radial-gradient-57" cx="268" cy="234.07" fx="268" fy="234.07" r="102.03" xlink:href="#radial-gradient-48"/><radialGradient id="radial-gradient-58" cx="267.87" cy="230.07" fx="267.87" fy="230.07" r="104.45" xlink:href="#radial-gradient-48"/><radialGradient id="radial-gradient-59" cx="267.75" cy="226.16" fx="267.75" fy="226.16" r="106.88" xlink:href="#radial-gradient-48"/><radialGradient id="radial-gradient-60" cx="267.62" cy="222.32" fx="267.62" fy="222.32" r="109.33" xlink:href="#radial-gradient-48"/><radialGradient id="radial-gradient-61" cx="267.5" cy="218.57" fx="267.5" fy="218.57" r="111.78" xlink:href="#radial-gradient-48"/><radialGradient id="radial-gradient-62" cx="267.38" cy="214.91" fx="267.38" fy="214.91" r="114.24" xlink:href="#radial-gradient-48"/><radialGradient id="radial-gradient-63" cx="267.27" cy="211.32" fx="267.27" fy="211.32" r="116.7" xlink:href="#radial-gradient-48"/><radialGradient id="radial-gradient-64" cx="267.15" cy="207.82" fx="267.15" fy="207.82" r="119.15" xlink:href="#radial-gradient-48"/><radialGradient id="radial-gradient-65" cx="267.04" cy="204.41" fx="267.04" fy="204.41" r="121.6" xlink:href="#radial-gradient-48"/><radialGradient id="radial-gradient-66" cx="266.93" cy="201.08" fx="266.93" fy="201.08" r="124.04" xlink:href="#radial-gradient-48"/><radialGradient id="radial-gradient-67" cx="266.83" cy="197.83" fx="266.83" fy="197.83" r="126.47" xlink:href="#radial-gradient-48"/><radialGradient id="radial-gradient-68" cx="266.73" cy="194.67" fx="266.73" fy="194.67" r="128.89" xlink:href="#radial-gradient-48"/><radialGradient id="radial-gradient-69" cx="266.63" cy="191.59" fx="266.63" fy="191.59" r="131.28" xlink:href="#radial-gradient-48"/><radialGradient id="radial-gradient-70" cx="266.53" cy="188.59" fx="266.53" fy="188.59" r="133.66" xlink:href="#radial-gradient-48"/><radialGradient id="radial-gradient-71" cx="266.44" cy="185.68" fx="266.44" fy="185.68" r="136.01" xlink:href="#radial-gradient-48"/><radialGradient id="radial-gradient-72" cx="266.35" cy="182.85" fx="266.35" fy="182.85" r="138.33" xlink:href="#radial-gradient-48"/><radialGradient id="radial-gradient-73" cx="266.26" cy="180.1" fx="266.26" fy="180.1" r="140.63" xlink:href="#radial-gradient-48"/><radialGradient id="radial-gradient-74" cx="266.17" cy="177.44" fx="266.17" fy="177.44" r="142.89" xlink:href="#radial-gradient-48"/><radialGradient id="radial-gradient-75" cx="266.09" cy="174.87" fx="266.09" fy="174.87" r="145.11" xlink:href="#radial-gradient-48"/><radialGradient id="radial-gradient-76" cx="266.01" cy="172.37" fx="266.01" fy="172.37" r="147.3" xlink:href="#radial-gradient-48"/></defs><g class="cls-3"><g id="sunny"><path class="cls-36" d="m441.33,237.75c0,7.24-80.63,13.11-180.11,13.11s-180.13-5.87-180.13-13.11,80.64-13.11,180.13-13.11,180.11,5.88,180.11,13.11Z"/><path class="cls-35" d="m410.65,164.96c3.31,6.43-59.75,45.3-140.81,86.76-81.07,41.51-149.47,69.9-152.77,63.47-3.31-6.47,59.75-45.33,140.83-86.8,81.07-41.46,149.48-69.9,152.76-63.43Z"/><path class="cls-29" d="m373.54,96.94c5.64,4.47-40.06,71.21-102.07,148.98-62.02,77.81-116.89,137.19-122.56,132.64-5.65-4.51,40.03-71.21,102.07-148.98,62.01-77.77,116.89-137.15,122.57-132.64Z"/><path class="cls-31" d="m301.31,62.17c7.04,1.57-5.16,81.51-27.3,178.48-22.15,97.01-45.82,174.36-52.88,172.73-7.06-1.65,5.17-81.6,27.31-178.53,22.13-97.01,45.79-174.32,52.86-172.69Z"/><path class="cls-28" d="m221.14,62.17c7.05-1.63,30.73,75.67,52.87,172.69,22.14,96.93,34.33,176.87,27.3,178.53-7.07,1.63-30.73-75.72-52.86-172.69-22.15-97.01-34.37-176.96-27.3-178.52Z"/><path class="cls-30" d="m148.91,96.94c5.67-4.52,60.54,54.86,122.56,132.64,62.02,77.77,107.72,144.48,102.07,148.98-5.68,4.56-60.56-54.82-122.57-132.64-62.03-77.77-107.72-144.52-102.07-148.98Z"/><path class="cls-34" d="m98.93,159.6c3.15-6.51,78.36,23.16,167.99,66.32,89.63,43.16,159.72,83.48,156.57,89.99-3.15,6.51-78.33-23.21-167.97-66.36-89.63-43.17-159.74-83.4-156.6-89.95Z"/><path class="cls-33" d="m406.01,203.27c1.46,5.88-62.67,26.95-143.29,47.04-80.62,20.09-147.15,31.67-148.62,25.8-1.46-5.87,62.7-26.95,143.3-47.04,80.62-20.14,147.14-31.67,148.6-25.8Z"/><path class="cls-32" d="m375.78,143.55c3.86,4.65-44.83,51.47-108.72,104.55-63.9,53.12-118.84,92.37-122.7,87.73-3.87-4.68,44.79-51.46,108.7-104.55,63.87-53.12,118.82-92.37,122.71-87.73Z"/><path class="cls-24" d="m322.59,102.85c5.52,2.51-18.03,65.81-52.55,141.37-34.54,75.55-66.99,134.82-72.5,132.26-5.49-2.47,18.03-65.77,52.58-141.37,34.53-75.56,66.96-134.77,72.48-132.26Z"/><path class="cls-23" d="m257.04,89.29c6.06-.14,12.32,67.12,13.99,150.17,1.66,83.09-1.89,150.53-7.94,150.61-6.06.17-12.31-67.09-13.99-150.14-1.65-83.09,1.89-150.52,7.93-150.64Z"/><path class="cls-12" d="m192.08,105.5c5.41-2.72,40.2,55.12,77.76,129.23,37.54,74.12,63.61,136.39,58.2,139.16-5.39,2.72-40.2-55.13-77.74-129.24-37.54-74.15-63.61-136.42-58.21-139.15Z"/><path class="cls-10" d="m140.59,148.28c3.67-4.81,60.15,32.22,126.13,82.71,65.98,50.48,116.48,95.3,112.82,100.12-3.7,4.76-60.17-32.27-126.13-82.71-66-50.49-116.51-95.31-112.83-100.12Z"/><path class="cls-11" d="m112.78,209.19c1.22-5.97,68.15,2.93,149.53,19.79,81.33,16.86,146.27,35.29,145.07,41.21-1.23,5.91-68.18-2.94-149.54-19.75-81.35-16.87-146.3-35.38-145.06-41.25Z"/><path class="cls-9" d="m424.53,244.1c0,85.51-69.31,154.82-154.82,154.82s-154.78-69.31-154.78-154.82,69.31-154.77,154.78-154.77,154.82,69.29,154.82,154.77Z"/><path class="cls-13" d="m451.81,241.67c0,7.23-80.64,13.12-180.11,13.12s-180.12-5.89-180.12-13.12,80.63-13.11,180.12-13.11,180.11,5.88,180.11,13.11Z"/><path class="cls-21" d="m383.79,103.32c4.02,3.2-42.72,68.45-104.33,145.72-61.62,77.25-114.81,137.31-118.81,134.13-3.99-3.15,42.72-68.37,104.36-145.67,61.6-77.26,114.79-137.32,118.78-134.18Z"/><path class="cls-22" d="m311.75,66.08c7.07,1.62-5.12,81.56-27.28,178.53-22.14,96.97-45.8,174.27-52.87,172.7-7.06-1.62,5.17-81.56,27.3-178.53,22.14-97.01,45.78-174.31,52.85-172.69Z"/><path class="cls-25" d="m231.6,66.08c7.07-1.61,30.73,75.69,52.87,172.69,22.15,96.97,34.35,176.91,27.28,178.53-7.07,1.57-30.72-75.74-52.85-172.7-22.13-96.97-34.36-176.9-27.3-178.53Z"/><path class="cls-26" d="m154.14,100.85c5.68-4.51,60.55,54.88,122.56,132.65,62.03,77.77,107.7,144.52,102.06,149.03-5.67,4.51-60.52-54.87-122.56-132.65-62.02-77.81-107.72-144.52-102.06-149.03Z"/><path class="cls-27" d="m416.49,207.19c1.46,5.87-62.7,26.95-143.3,47.04-80.62,20.09-147.14,31.66-148.6,25.79-1.47-5.87,62.69-26.9,143.3-47.03,80.62-20.1,147.14-31.67,148.6-25.8Z"/><path class="cls-18" d="m386.23,147.47c3.89,4.65-44.79,51.47-108.69,104.55-63.9,53.08-118.83,92.42-122.69,87.74-3.88-4.65,44.8-51.47,108.7-104.55,63.88-53.13,118.83-92.42,122.69-87.74Z"/><path class="cls-17" d="m333.06,106.78c5.48,2.55-18.03,65.8-52.56,141.36-34.54,75.6-67,134.81-72.49,132.3-5.51-2.51,18.03-65.81,52.57-141.37,34.54-75.6,66.97-134.81,72.49-132.3Z"/><path class="cls-16" d="m266.98,74.17c6.04-.13,12.46,75.51,14.35,168.99,1.87,93.44-1.5,169.29-7.55,169.42-6.05.13-12.47-75.52-14.35-168.99-1.88-93.44,1.51-169.3,7.56-169.42Z"/><path class="cls-14" d="m197.13,66.89c5.66-2.13,38.36,70.79,73.03,162.91,34.66,92.11,58.17,168.52,52.5,170.65-5.64,2.12-38.35-70.84-73-162.91-34.67-92.16-58.19-168.53-52.53-170.65Z"/><path class="cls-20" d="m151.06,152.19c3.68-4.82,60.15,32.23,126.13,82.71,66,50.49,116.5,95.3,112.8,100.11-3.67,4.82-60.14-32.22-126.12-82.7-65.98-50.49-116.48-95.31-112.81-100.12Z"/><path class="cls-19" d="m123.23,213.11c1.23-5.96,68.17,2.94,149.53,19.79,81.36,16.86,146.29,35.29,145.06,41.21-1.2,5.96-68.15-2.94-149.51-19.76-81.35-16.85-146.31-35.32-145.08-41.24Z"/><ellipse class="cls-2" cx="258.54" cy="243.71" rx="80.52" ry="80.5" transform="translate(-.43 .46) rotate(-.1)"/><path class="cls-75" d="m338.25,243.67c0,43.99-35.7,79.68-79.71,79.68s-79.71-35.7-79.71-79.68,35.69-79.69,79.71-79.69,79.71,35.66,79.71,79.69Z"/><path class="cls-78" d="m337.44,243.62c0,43.54-35.34,78.87-78.89,78.87s-78.89-35.33-78.89-78.87,35.32-78.88,78.89-78.88,78.89,35.29,78.89,78.88Z"/><path class="cls-71" d="m336.62,243.58c0,43.09-34.97,78.06-78.08,78.06s-78.08-34.97-78.08-78.06,34.96-78.07,78.08-78.07,78.08,34.93,78.08,78.07Z"/><path class="cls-64" d="m335.81,243.53c0,42.64-34.6,77.25-77.26,77.25s-77.27-34.61-77.27-77.25,34.6-77.25,77.27-77.25,77.26,34.57,77.26,77.25Z"/><path class="cls-65" d="m334.99,243.49c0,42.19-34.24,76.43-76.45,76.43s-76.45-34.25-76.45-76.43,34.23-76.44,76.45-76.44,76.45,34.21,76.45,76.44Z"/><path class="cls-67" d="m334.18,243.44c0,41.74-33.87,75.62-75.64,75.62s-75.64-33.88-75.64-75.62,33.87-75.63,75.64-75.63,75.64,33.84,75.64,75.63Z"/><path class="cls-69" d="m333.37,243.4c0,41.29-33.51,74.81-74.82,74.81s-74.83-33.52-74.83-74.81,33.51-74.82,74.83-74.82,74.82,33.48,74.82,74.82Z"/><path class="cls-51" d="m332.55,243.36c0,40.84-33.14,74-74.01,74s-74.02-33.16-74.02-74,33.14-74.01,74.02-74.01,74.01,33.12,74.01,74.01Z"/><path class="cls-53" d="m331.74,243.31c0,40.39-32.77,73.18-73.19,73.18s-73.2-32.79-73.2-73.18,32.78-73.2,73.2-73.2,73.19,32.75,73.19,73.2Z"/><path class="cls-47" d="m330.92,243.27c0,39.94-32.41,72.37-72.38,72.37s-72.39-32.43-72.39-72.37,32.41-72.39,72.39-72.39,72.38,32.39,72.38,72.39Z"/><path class="cls-55" d="m330.11,243.22c0,39.49-32.04,71.56-71.57,71.56s-71.58-32.07-71.58-71.56,32.05-71.58,71.58-71.58,71.57,32.03,71.57,71.58Z"/><path class="cls-61" d="m329.3,243.18c0,39.04-31.68,70.74-70.75,70.74s-70.76-31.7-70.76-70.74,31.69-70.77,70.76-70.77,70.75,31.66,70.75,70.77Z"/><path class="cls-57" d="m328.48,243.13c0,38.59-31.31,69.93-69.94,69.93s-69.95-31.34-69.95-69.93,31.32-69.96,69.95-69.96,69.94,31.3,69.94,69.96Z"/><path class="cls-59" d="m327.67,243.09c0,38.14-30.94,69.12-69.12,69.12s-69.14-30.98-69.14-69.12,30.96-69.15,69.14-69.15,69.12,30.94,69.12,69.15Z"/><path class="cls-37" d="m326.85,243.04c0,37.69-30.58,68.31-68.31,68.31s-68.32-30.62-68.32-68.31,30.6-68.34,68.32-68.34,68.31,30.57,68.31,68.34Z"/><path class="cls-43" d="m326.04,243c0,37.24-30.21,67.49-67.5,67.49s-67.51-30.25-67.51-67.49,30.23-67.53,67.51-67.53,67.5,30.21,67.5,67.53Z"/><path class="cls-39" d="m325.23,242.96c0,36.79-29.85,66.68-66.68,66.68s-66.7-29.89-66.7-66.68,29.87-66.72,66.7-66.72,66.68,29.85,66.68,66.72Z"/><path class="cls-41" d="m324.41,242.91c0,36.34-29.48,65.87-65.87,65.87s-65.88-29.53-65.88-65.87,29.5-65.91,65.88-65.91,65.87,29.49,65.87,65.91Z"/><path class="cls-45" d="m323.6,242.87c0,35.89-29.11,65.05-65.06,65.05s-65.07-29.16-65.07-65.05,29.14-65.1,65.07-65.1,65.06,29.12,65.06,65.1Z"/><path class="cls-49" d="m322.78,242.82c0,35.44-28.75,64.24-64.24,64.24s-64.26-28.8-64.26-64.24,28.78-64.29,64.26-64.29,64.24,28.76,64.24,64.29Z"/><path class="cls-74" d="m321.97,242.78c0,34.99-28.38,63.43-63.43,63.43s-63.44-28.44-63.44-63.43,28.41-63.48,63.44-63.48,63.43,28.4,63.43,63.48Z"/><path class="cls-4" d="m135.98,114.69c4.53-5.12,69.57,44.95,145.31,111.83,75.75,66.83,133.48,125.19,128.97,130.29-4.51,5.11-69.54-44.95-145.29-111.77-75.75-66.88-133.5-125.24-129-130.35Z"/><path class="cls-8" d="m252.36,52.41c6.8-.51,18.41,80.79,25.93,181.51,7.55,100.75,8.13,182.83,1.33,183.38-6.79.46-18.39-80.79-25.92-181.56-7.52-100.74-8.13-182.83-1.34-183.33Z"/><path class="cls-6" d="m78.01,209.23c.84-6.76,82.8-2,183.04,10.6,100.23,12.6,180.8,28.31,179.96,35.08-.84,6.77-82.81,1.99-183.04-10.6-100.25-12.64-180.82-28.31-179.96-35.08Z"/><path class="cls-5" d="m133.37,371.59c-4.12-4.56,52.03-62.03,125.41-128.35,73.37-66.32,136.23-116.38,140.35-111.82,4.12,4.6-51.99,62.07-125.4,128.34-73.38,66.32-136.22,116.38-140.36,111.83Z"/><path class="cls-7" d="m172.61,409.94c-3.37-1.91,35.65-76.57,87.17-166.65,51.48-90.16,95.99-161.67,99.36-159.76,3.34,1.91-35.68,76.55-87.19,166.7-51.5,90.1-95.99,161.63-99.34,159.7Z"/><path class="cls-15" d="m382.79,242.73c0,62.97-51.05,114-114.01,114s-114.02-51.03-114.02-114,51.04-113.99,114.02-113.99,114.01,51.04,114.01,113.99Z"/><path class="cls-1" d="m365.53,242.31c0,53.72-43.56,97.27-97.25,97.27s-97.27-43.54-97.27-97.27,43.55-97.23,97.27-97.23,97.25,43.5,97.25,97.23Z"/><path class="cls-76" d="m364.55,242.25c0,53.18-43.12,96.28-96.27,96.28s-96.29-43.1-96.29-96.28,43.11-96.25,96.29-96.25,96.27,43.07,96.27,96.25Z"/><path class="cls-77" d="m363.57,242.2c0,52.64-42.68,95.3-95.29,95.3s-95.31-42.66-95.31-95.3,42.67-95.27,95.31-95.27,95.29,42.63,95.29,95.27Z"/><path class="cls-72" d="m362.58,242.14c0,52.1-42.24,94.32-94.3,94.32s-94.33-42.23-94.33-94.32,42.23-94.29,94.33-94.29,94.3,42.2,94.3,94.29Z"/><path class="cls-63" d="m361.6,242.09c0,51.56-41.8,93.34-93.32,93.34s-93.35-41.79-93.35-93.34,41.79-93.31,93.35-93.31,93.32,41.76,93.32,93.31Z"/><path class="cls-66" d="m360.62,242.03c0,51.02-41.36,92.36-92.34,92.36s-92.36-41.35-92.36-92.36,41.35-92.33,92.36-92.33,92.34,41.32,92.34,92.33Z"/><path class="cls-68" d="m359.64,241.98c0,50.47-40.92,91.38-91.36,91.38s-91.38-40.91-91.38-91.38,40.91-91.35,91.38-91.35,91.36,40.89,91.36,91.35Z"/><path class="cls-70" d="m358.66,241.92c0,49.93-40.48,90.4-90.37,90.4s-90.4-40.47-90.4-90.4,40.47-90.37,90.4-90.37,90.37,40.45,90.37,90.37Z"/><path class="cls-52" d="m357.67,241.87c0,49.39-40.04,89.42-89.39,89.42s-89.42-40.03-89.42-89.42,40.03-89.39,89.42-89.39,89.39,40.02,89.39,89.39Z"/><path class="cls-54" d="m356.69,241.82c0,48.85-39.6,88.44-88.41,88.44s-88.44-39.59-88.44-88.44,39.59-88.41,88.44-88.41,88.41,39.58,88.41,88.41Z"/><path class="cls-48" d="m355.71,241.76c0,48.31-39.16,87.46-87.43,87.46s-87.45-39.15-87.45-87.46,39.16-87.43,87.45-87.43,87.43,39.14,87.43,87.43Z"/><path class="cls-56" d="m354.73,241.71c0,47.77-38.72,86.48-86.44,86.48s-86.47-38.71-86.47-86.48,38.72-86.45,86.47-86.45,86.44,38.71,86.44,86.45Z"/><path class="cls-62" d="m353.74,241.65c0,47.23-38.28,85.5-85.46,85.5s-85.49-38.27-85.49-85.5,38.28-85.47,85.49-85.47,85.46,38.27,85.46,85.47Z"/><path class="cls-58" d="m352.76,241.6c0,46.68-37.84,84.52-84.48,84.52s-84.51-37.83-84.51-84.52,37.84-84.5,84.51-84.5,84.48,37.84,84.48,84.5Z"/><path class="cls-60" d="m351.78,241.54c0,46.14-37.4,83.53-83.5,83.53s-83.53-37.39-83.53-83.53,37.4-83.52,83.53-83.52,83.5,37.4,83.5,83.52Z"/><path class="cls-38" d="m350.8,241.49c0,45.6-36.96,82.55-82.52,82.55s-82.54-36.95-82.54-82.55,36.96-82.54,82.54-82.54,82.52,36.96,82.52,82.54Z"/><path class="cls-44" d="m349.81,241.43c0,45.06-36.52,81.57-81.53,81.57s-81.56-36.51-81.56-81.57,36.52-81.56,81.56-81.56,81.53,36.53,81.53,81.56Z"/><path class="cls-40" d="m348.83,241.38c0,44.52-36.08,80.59-80.55,80.59s-80.58-36.07-80.58-80.59,36.08-80.58,80.58-80.58,80.55,36.09,80.55,80.58Z"/><path class="cls-42" d="m347.85,241.32c0,43.98-35.64,79.61-79.57,79.61s-79.6-35.63-79.6-79.61,35.64-79.6,79.6-79.6,79.57,35.66,79.57,79.6Z"/><path class="cls-46" d="m346.87,241.27c0,43.44-35.2,78.63-78.59,78.63s-78.62-35.2-78.62-78.63,35.2-78.62,78.62-78.62,78.59,35.22,78.59,78.62Z"/><path class="cls-50" d="m345.89,241.21c0,42.89-34.76,77.65-77.6,77.65s-77.63-34.76-77.63-77.65,34.76-77.64,77.63-77.64,77.6,34.78,77.6,77.64Z"/><path class="cls-73" d="m344.9,241.16c0,42.35-34.32,76.67-76.62,76.67s-76.65-34.32-76.65-76.67,34.32-76.66,76.65-76.66,76.62,34.35,76.62,76.66Z"/></g></g></svg>