<?xml version="1.0" encoding="utf-8"?>
<!-- Generator: Adobe Illustrator 27.8.1, SVG Export Plug-In . SVG Version: 6.00 Build 0)  -->
<svg version="1.1" id="Layer_2_00000132780442072314323040000015190481643371066286_"
	 xmlns="http://www.w3.org/2000/svg" xmlns:xlink="http://www.w3.org/1999/xlink" x="0px" y="0px" viewBox="0 0 520 487"
	 style="enable-background:new 0 0 520 487;" xml:space="preserve">
<style type="text/css">
	.st0{fill:url(#SVGID_1_);}
	.st1{fill:url(#SVGID_00000019661477192715849460000001763483844738825372_);}
</style>
<g>
	<g>
		
			<image style="overflow:visible;opacity:0.34;" width="361" height="361" xlink:href="A843F2209DB945AD.png"  transform="matrix(1 0 0 1 79 63)">
		</image>
		<g>
			
				<linearGradient id="SVGID_1_" gradientUnits="userSpaceOnUse" x1="202.6176" y1="-221.5781" x2="435.611" y2="-221.5781" gradientTransform="matrix(0.6903 0.7236 -0.7236 0.6903 -151.2762 134.9515)">
				<stop  offset="0" style="stop-color:#E9B94D"/>
				<stop  offset="0.2404" style="stop-color:#E8B349"/>
				<stop  offset="0.5685" style="stop-color:#E4A13E"/>
				<stop  offset="0.9458" style="stop-color:#DD852D"/>
				<stop  offset="1" style="stop-color:#DC802A"/>
			</linearGradient>
			<polygon class="st0" points="248.1,402.9 206.1,361.2 147.2,356.2 141.9,297.2 100,255.5 133.8,207 128.6,148 185.7,132.6 
				219.5,84.1 273.2,108.9 330.3,93.5 355.4,147.1 409.1,172 393.9,229.2 419,282.7 370.6,316.8 355.4,373.9 296.5,368.9 			"/>
		</g>
	</g>
	<g>
		
			<image style="overflow:visible;opacity:0.32;" width="277" height="277" xlink:href="A843F2209DB945B3.png"  transform="matrix(1 0 0 1 123 106)">
		</image>
		<g>
			
				<linearGradient id="SVGID_00000084512374010019830850000003022328681357857412_" gradientUnits="userSpaceOnUse" x1="173.4331" y1="181.4619" x2="419.9397" y2="181.4619" gradientTransform="matrix(0.9919 0.1267 -0.1267 0.9919 -11.9086 26.149)">
				<stop  offset="0" style="stop-color:#FFFFFF"/>
				<stop  offset="0.1062" style="stop-color:#FCF5E1"/>
				<stop  offset="0.2255" style="stop-color:#F9ECC7"/>
				<stop  offset="0.3577" style="stop-color:#F7E5B3"/>
				<stop  offset="0.5077" style="stop-color:#F6E1A5"/>
				<stop  offset="0.6906" style="stop-color:#F5DE9C"/>
				<stop  offset="1" style="stop-color:#F5DD9A"/>
			</linearGradient>
			<circle style="fill:url(#SVGID_00000084512374010019830850000003022328681357857412_);" cx="259.4" cy="243.7" r="123.2"/>
		</g>
	</g>
</g>
</svg>
