<?xml version="1.0" encoding="utf-8"?>
<!-- Generator: Adobe Illustrator 27.8.1, SVG Export Plug-In . SVG Version: 6.00 Build 0)  -->
<svg version="1.1" id="tornado" xmlns="http://www.w3.org/2000/svg" xmlns:xlink="http://www.w3.org/1999/xlink" x="0px" y="0px"
	 viewBox="0 0 520 487" style="enable-background:new 0 0 520 487;" xml:space="preserve">
<style type="text/css">
	.st0{fill:none;stroke:url(#SVGID_1_);stroke-width:6;stroke-linecap:round;stroke-miterlimit:10;}
	
		.st1{fill:none;stroke:url(#SVGID_00000127039292947973724000000010381646773636719529_);stroke-width:6;stroke-linecap:round;stroke-miterlimit:10;}
	
		.st2{fill:none;stroke:url(#SVGID_00000055689649765646947510000013961576480230362043_);stroke-width:6;stroke-linecap:round;stroke-miterlimit:10;}
</style>
<g>
	<linearGradient id="SVGID_1_" gradientUnits="userSpaceOnUse" x1="114.2988" y1="178.5055" x2="332.9831" y2="178.5055">
		<stop  offset="0.1568" style="stop-color:#CDC9C1"/>
		<stop  offset="0.453" style="stop-color:#C3BFB7"/>
		<stop  offset="0.9518" style="stop-color:#A9A59E"/>
		<stop  offset="1" style="stop-color:#A6A29B"/>
	</linearGradient>
	<path class="st0" d="M262.7,178.5c0-18.6,15.1-33.6,33.6-33.6c18.6,0,33.6,15.1,33.6,33.6s-15.1,33.6-33.6,33.6H117.3"/>
	
		<linearGradient id="SVGID_00000030445211710563627140000017842058040559205810_" gradientUnits="userSpaceOnUse" x1="205.4009" y1="488.8161" x2="407.0704" y2="488.8161" gradientTransform="matrix(1 0 0 -1 0 800)">
		<stop  offset="0.1568" style="stop-color:#CDC9C1"/>
		<stop  offset="0.453" style="stop-color:#C3BFB7"/>
		<stop  offset="0.9518" style="stop-color:#A9A59E"/>
		<stop  offset="1" style="stop-color:#A6A29B"/>
	</linearGradient>
	
		<path style="fill:none;stroke:url(#SVGID_00000030445211710563627140000017842058040559205810_);stroke-width:6;stroke-linecap:round;stroke-miterlimit:10;" d="
		M342.2,311.2c0,17.1,13.8,30.9,30.9,30.9s30.9-13.8,30.9-30.9c0-17.1-13.8-30.9-30.9-30.9H208.4"/>
	
		<linearGradient id="SVGID_00000021106206391159955590000007319631992189954217_" gradientUnits="userSpaceOnUse" x1="53" y1="202.2621" x2="466" y2="202.2621">
		<stop  offset="0.1568" style="stop-color:#CDC9C1"/>
		<stop  offset="0.453" style="stop-color:#C3BFB7"/>
		<stop  offset="0.9518" style="stop-color:#A9A59E"/>
		<stop  offset="1" style="stop-color:#A6A29B"/>
	</linearGradient>
	
		<path style="fill:none;stroke:url(#SVGID_00000021106206391159955590000007319631992189954217_);stroke-width:6;stroke-linecap:round;stroke-miterlimit:10;" d="
		M375.1,202.3c0-24.3,19.7-43.9,43.9-43.9S463,178,463,202.3s-19.7,43.9-43.9,43.9H56"/>
</g>
</svg>
