<?xml version="1.0" encoding="utf-8"?>
<!-- Generator: Adobe Illustrator 27.7.0, SVG Export Plug-In . SVG Version: 6.00 Build 0)  -->
<svg version="1.1" id="Layer_2" xmlns="http://www.w3.org/2000/svg" xmlns:xlink="http://www.w3.org/1999/xlink" x="0px" y="0px"
	 viewBox="0 0 378.7 125.8" style="enable-background:new 0 0 378.7 125.8;" xml:space="preserve">
<style type="text/css">
	.st0{fill:#685431;}
	.st1{filter:url(#Adobe_OpacityMaskFilter);}
	.st2{filter:url(#Adobe_OpacityMaskFilter_00000160912746591464648450000007896715581026980260_);}
	.st3{mask:url(#SVGID_1_);fill:url(#SVGID_00000150796493274532700900000004998792804936015026_);}
	.st4{fill:url(#SVGID_00000142855013416739441170000002708435054791938437_);}
	.st5{fill:#AB9E87;}
	.st6{opacity:0.3;fill:#685431;}
	.st7{opacity:0.4;fill:#685431;}
	.st8{opacity:0.5;fill:#A29782;}
	.st9{fill:#635C51;}
	.st10{fill:#4C483E;}
	.st11{fill:#48433C;}
	.st12{fill:#24221D;}
	.st13{filter:url(#Adobe_OpacityMaskFilter_00000070833087306819559110000011854600089647569852_);}
	.st14{filter:url(#Adobe_OpacityMaskFilter_00000076591334162685143690000000596366134966660541_);}
	
		.st15{mask:url(#SVGID_00000007390822829790465050000002058529199886529927_);fill:url(#SVGID_00000076586829852047188590000003213661532568158110_);}
	.st16{opacity:0.7;fill:url(#SVGID_00000120533909443353872170000000342679882060095406_);}
	.st17{fill:#3D3A32;}
	.st18{fill:#BAAB93;}
	.st19{fill:#605A4E;}
	.st20{fill:#423E36;}
	.st21{opacity:0.4;}
	.st22{filter:url(#Adobe_OpacityMaskFilter_00000082360505301650146920000016943344480215979954_);}
	.st23{filter:url(#Adobe_OpacityMaskFilter_00000005945989107131955660000000755937307918249090_);}
	
		.st24{mask:url(#SVGID_00000084496791950521801030000011354356419291688855_);fill:url(#SVGID_00000036221685700701293160000013855888096001331854_);}
	.st25{fill:url(#SVGID_00000008130359223657808710000014706404060734330270_);}
	.st26{filter:url(#Adobe_OpacityMaskFilter_00000149339497351487535120000006073674078837235369_);}
	.st27{filter:url(#Adobe_OpacityMaskFilter_00000160160527046456496370000004706376071893689473_);}
	
		.st28{mask:url(#SVGID_00000121989706624062287590000017839881361232300678_);fill:url(#SVGID_00000070806887544544349020000000630565414617897608_);}
	.st29{fill:url(#SVGID_00000148625146715953710930000014387339219014290095_);}
	.st30{fill:#7E7566;}
	.st31{fill:#2A2821;}
	.st32{fill:#7A7263;}
	.st33{opacity:0.5;fill:#E7E3D0;}
	.st34{opacity:0.5;fill:#585850;}
	.st35{fill:#5D584D;}
	.st36{fill:#3B3830;}
	.st37{opacity:0.5;fill:#E6E6EF;}
	.st38{filter:url(#Adobe_OpacityMaskFilter_00000042730925713870237610000010102684979187019922_);}
	.st39{filter:url(#Adobe_OpacityMaskFilter_00000011720555821574212760000016971789124180695190_);}
	
		.st40{mask:url(#SVGID_00000055699362656457621860000002282052401283763348_);fill:url(#SVGID_00000051383199043371529440000017024891813752056767_);}
	.st41{opacity:0.5;fill:url(#SVGID_00000028314807634942393280000007408765348767061659_);}
	.st42{fill:#4F4B42;}
	.st43{filter:url(#Adobe_OpacityMaskFilter_00000158009253987598373200000016745607103091487915_);}
	.st44{filter:url(#Adobe_OpacityMaskFilter_00000130631452654275941380000015772659731263454083_);}
	
		.st45{mask:url(#SVGID_00000075867222833408163550000003125767846972561299_);fill:url(#SVGID_00000173860611218924341960000009897107740137926296_);}
	.st46{opacity:0.5;fill:url(#SVGID_00000168076724032687131430000006674714482161447086_);}
	.st47{opacity:0.3;fill:#6A6456;}
	.st48{opacity:0.9;fill:#685431;}
	.st49{fill:url(#SVGID_00000002369581318908477560000012813787784700611206_);}
	.st50{fill:#4A463C;}
	.st51{fill:#222019;}
	.st52{fill:#A49882;}
	.st53{fill:url(#SVGID_00000141422546511431152070000010176109788367369403_);}
	.st54{fill:#9C917D;}
	.st55{opacity:0.5;fill:#9C917D;}
	.st56{fill:#575247;}
	.st57{opacity:0.9;fill:#2E2E2E;}
	.st58{fill:#E7E3D0;}
	.st59{fill:#403D35;}
	.st60{fill:#B1A38C;}
	.st61{opacity:0.5;fill:#685431;}
	.st62{opacity:0.8;fill:#685431;}
</style>
<g>
	<g>
		<path class="st0" d="M378.7,72.4c-0.3,19.6-86.1,55-190.7,53.3C83.4,124,1.3,88.5,0,66.2C-1.1,46.6,379,52.8,378.7,72.4z"/>
		<defs>
			<filter id="Adobe_OpacityMaskFilter" filterUnits="userSpaceOnUse" x="0" y="54.2" width="378.7" height="71.5">
				<feFlood  style="flood-color:white;flood-opacity:1" result="back"/>
				<feBlend  in="SourceGraphic" in2="back" mode="normal"/>
			</filter>
		</defs>
		<mask maskUnits="userSpaceOnUse" x="0" y="54.2" width="378.7" height="71.5" id="SVGID_1_">
			<g class="st1">
				<defs>
					
						<filter id="Adobe_OpacityMaskFilter_00000109016315165033613510000008599614628827111085_" filterUnits="userSpaceOnUse" x="0" y="54.2" width="378.7" height="71.5">
						<feFlood  style="flood-color:white;flood-opacity:1" result="back"/>
						<feBlend  in="SourceGraphic" in2="back" mode="normal"/>
					</filter>
				</defs>
				<mask maskUnits="userSpaceOnUse" x="0" y="54.2" width="378.7" height="71.5" id="SVGID_1_">
					<g style="filter:url(#Adobe_OpacityMaskFilter_00000109016315165033613510000008599614628827111085_);">
					</g>
				</mask>
				
					<linearGradient id="SVGID_00000127725739691002039850000004524286129288195250_" gradientUnits="userSpaceOnUse" x1="189.3526" y1="53.358" x2="189.3526" y2="145.7963">
					<stop  offset="0.2642" style="stop-color:#000000"/>
					<stop  offset="0.4665" style="stop-color:#535353"/>
					<stop  offset="0.7787" style="stop-color:#CECECE"/>
					<stop  offset="0.9166" style="stop-color:#FFFFFF"/>
				</linearGradient>
				<path style="mask:url(#SVGID_1_);fill:url(#SVGID_00000127725739691002039850000004524286129288195250_);" d="M378.7,72.4
					c-0.3,19.6-86.1,55-190.7,53.3C83.4,124,1.3,88.5,0,66.2C-1.1,46.6,379,52.8,378.7,72.4z"/>
			</g>
		</mask>
		
			<linearGradient id="SVGID_00000076585322244922157020000017450700854770163335_" gradientUnits="userSpaceOnUse" x1="189.3526" y1="53.358" x2="189.3526" y2="145.7963">
			<stop  offset="0.2642" style="stop-color:#C2C2C2"/>
			<stop  offset="0.3334" style="stop-color:#ACACAC"/>
			<stop  offset="0.7383" style="stop-color:#313131"/>
			<stop  offset="0.9166" style="stop-color:#000000"/>
		</linearGradient>
		<path style="fill:url(#SVGID_00000076585322244922157020000017450700854770163335_);" d="M378.7,72.4
			c-0.3,19.6-86.1,55-190.7,53.3C83.4,124,1.3,88.5,0,66.2C-1.1,46.6,379,52.8,378.7,72.4z"/>
		<path class="st5" d="M378.7,72.4c-0.3,19.6-86.1,40.5-190.7,38.8C83.4,109.5-0.3,85.8,0,66.2c0.3-19.6,85.4-34.1,189.9-32.4
			C294.5,35.5,379,52.8,378.7,72.4z"/>
		<path class="st5" d="M378.7,72.4c-0.3,19.6-86.1,40.5-190.7,38.8C83.4,109.5-0.3,85.8,0,66.2c0.3-19.6,85.4-34.1,189.9-32.4
			C294.5,35.5,379,52.8,378.7,72.4z"/>
		<g>
			<path class="st5" d="M45.7,74.3c31,18.7,152.1,29.9,234.8,13.5c77.2-15.2,72.4-26.9,64-36.3c-34.1-9.7-90.6-16.6-154.6-17.6
				c-73.2-1.2-136.8,5.5-168.5,16.4C20.5,52.3,20.7,59.2,45.7,74.3z"/>
			<path class="st6" d="M344.6,51.4c8.4,9.4,13.1,21.1-64,36.3c-82.8,16.3-203.9,5.1-234.8-13.5c-25-15-25.2-21.9-24.3-24
				C7.8,54.9,0.1,60.3,0,66.2c-0.3,19.6,83.4,43.3,188,45c104.6,1.7,190.4-19.2,190.7-38.8C378.8,64.8,366.2,57.6,344.6,51.4z"/>
		</g>
		<path class="st7" d="M273.3,38.8c0.4,6.3,0.6,12.6,1.4,18.9c0.6,4.1,1.3,8.4,3.1,12.2c2,4.2,5.1,7.9,7.8,11.7
			c5.1,7.3,9.7,14.9,14.5,22.4c47.4-7.5,78.4-19.8,78.6-31.5C378.9,58.4,336,45.6,273.3,38.8z"/>
		<path class="st7" d="M273.3,38.8c0.1,2.1,0.3,4.3,0.4,6.4c4,2.3,7.8,5.1,11.5,7.6c9.1,6.3,18.4,12.2,27.2,19
			c9.5,7.4,18.4,15.4,26.9,23.9c24.6-6.8,39.3-15.2,39.4-23.3C378.9,58.4,336,45.6,273.3,38.8z"/>
		<path class="st8" d="M67.4,64.2c4.4-2.3,9-4.3,13.4-6.5c2.3-1.2,4.6-2.5,6.9-3.5c2.1-0.9,4.8-1.2,4.9-4.1c0.1-2-0.3-4-0.5-6
			c-5.6,2.2-11.1,4.5-16.7,6.7c-13,5-26.4,9.6-38.3,17c-5.3,3.2-10.9,6.7-15.5,10.9c-1.4,1.3-2.7,2.7-4.1,4.1
			c4.9,2.3,10.7,4.7,17.4,6.9C44.1,79.4,55.3,70.8,67.4,64.2z"/>
		<g>
			<g>
				<path class="st9" d="M81.4,76c-9.2,4.5-19.6,15.3-19.6,15.3c18.9,7.3,65.1,11.2,65.1,11.2c5.3-5.7,19-18.2,19-18.2
					C124,83.9,81.4,76,81.4,76z M136.4,91.6L136.4,91.6c-18.3-1-54.5-7-54.5-7c-4.6,2.2-8.8,5.9-11.4,8.4c-2-0.5-3.8-1.1-5.4-1.6
					c0,0,7.9-8.6,17.2-13c0,0,37.5,7.8,59.3,8.3C141.7,86.8,139.4,88.8,136.4,91.6L136.4,91.6L136.4,91.6z"/>
				<polygon class="st10" points="136.4,91.6 136.4,91.6 136.4,91.6 				"/>
				<path class="st11" d="M82.4,78.4c-9.2,4.5-17.2,13-17.2,13c1.6,0.5,3.4,1.1,5.4,1.6c2.5-2.5,6.7-6.2,11.4-8.4c0,0,36.1,6,54.5,7
					c3-2.8,5.3-4.8,5.3-4.8C119.8,86.3,82.4,78.4,82.4,78.4z"/>
				<path class="st12" d="M82.4,78.4l-0.5,6.2c7.1,1.1,38.4,6.1,54.5,7c3-2.8,5.3-4.8,5.3-4.8C122.1,86.3,88.7,79.7,82.4,78.4z"/>
			</g>
			<path class="st0" d="M81.9,84.6c-4.6,2.2-8.8,5.9-11.4,8.4c19,4.8,55.9,8.3,55.9,8.3c2-2.2,7.4-7.3,10-9.8l0,0
				C118,90.6,81.9,84.6,81.9,84.6z"/>
			<defs>
				
					<filter id="Adobe_OpacityMaskFilter_00000018952975968873660750000011488394880134292376_" filterUnits="userSpaceOnUse" x="70.5" y="84.6" width="65.8" height="16.8">
					<feFlood  style="flood-color:white;flood-opacity:1" result="back"/>
					<feBlend  in="SourceGraphic" in2="back" mode="normal"/>
				</filter>
			</defs>
			
				<mask maskUnits="userSpaceOnUse" x="70.5" y="84.6" width="65.8" height="16.8" id="SVGID_00000071522945676278202920000012107146955334157980_">
				<g style="filter:url(#Adobe_OpacityMaskFilter_00000018952975968873660750000011488394880134292376_);">
					<defs>
						
							<filter id="Adobe_OpacityMaskFilter_00000011733644902880148870000012346666042013835697_" filterUnits="userSpaceOnUse" x="70.5" y="84.6" width="65.8" height="16.8">
							<feFlood  style="flood-color:white;flood-opacity:1" result="back"/>
							<feBlend  in="SourceGraphic" in2="back" mode="normal"/>
						</filter>
					</defs>
					
						<mask maskUnits="userSpaceOnUse" x="70.5" y="84.6" width="65.8" height="16.8" id="SVGID_00000071522945676278202920000012107146955334157980_">
						<g style="filter:url(#Adobe_OpacityMaskFilter_00000011733644902880148870000012346666042013835697_);">
						</g>
					</mask>
					
						<linearGradient id="SVGID_00000068634918260032621120000005449741812712520847_" gradientUnits="userSpaceOnUse" x1="103.9779" y1="88.0229" x2="101.9918" y2="104.1093">
						<stop  offset="0.2642" style="stop-color:#000000"/>
						<stop  offset="0.2947" style="stop-color:#2E2E2E"/>
						<stop  offset="0.3283" style="stop-color:#5A5A5A"/>
						<stop  offset="0.3656" style="stop-color:#818181"/>
						<stop  offset="0.4057" style="stop-color:#A3A3A3"/>
						<stop  offset="0.4494" style="stop-color:#C0C0C0"/>
						<stop  offset="0.4981" style="stop-color:#D7D7D7"/>
						<stop  offset="0.5536" style="stop-color:#E9E9E9"/>
						<stop  offset="0.6205" style="stop-color:#F6F6F6"/>
						<stop  offset="0.7099" style="stop-color:#FDFDFD"/>
						<stop  offset="0.9166" style="stop-color:#FFFFFF"/>
					</linearGradient>
					
						<path style="mask:url(#SVGID_00000071522945676278202920000012107146955334157980_);fill:url(#SVGID_00000068634918260032621120000005449741812712520847_);" d="
						M81.9,84.6c-4.6,2.2-8.8,5.9-11.4,8.4c19,4.8,55.9,8.3,55.9,8.3c2-2.2,7.4-7.3,10-9.8l0,0C118,90.6,81.9,84.6,81.9,84.6z"/>
				</g>
			</mask>
			
				<linearGradient id="SVGID_00000023251013731040869390000017659366065719998628_" gradientUnits="userSpaceOnUse" x1="103.9779" y1="88.0229" x2="101.9918" y2="104.1093">
				<stop  offset="0.2642" style="stop-color:#C2C2C2"/>
				<stop  offset="0.29" style="stop-color:#A4A4A4"/>
				<stop  offset="0.3285" style="stop-color:#7E7E7E"/>
				<stop  offset="0.3713" style="stop-color:#5B5B5B"/>
				<stop  offset="0.418" style="stop-color:#3F3F3F"/>
				<stop  offset="0.4699" style="stop-color:#282828"/>
				<stop  offset="0.5292" style="stop-color:#161616"/>
				<stop  offset="0.6006" style="stop-color:#090909"/>
				<stop  offset="0.696" style="stop-color:#020202"/>
				<stop  offset="0.9166" style="stop-color:#000000"/>
			</linearGradient>
			<path style="opacity:0.7;fill:url(#SVGID_00000023251013731040869390000017659366065719998628_);" d="M81.9,84.6
				c-4.6,2.2-8.8,5.9-11.4,8.4c19,4.8,55.9,8.3,55.9,8.3c2-2.2,7.4-7.3,10-9.8l0,0C118,90.6,81.9,84.6,81.9,84.6z"/>
		</g>
		<g>
			<path class="st12" d="M34.7,67.3c0,0-0.1,0-0.2-0.1c-10.3-5.9-13.4-14.4-13.4-14.5c-0.1-0.2,0-0.3,0.2-0.4c0.2-0.1,0.3,0,0.4,0.2
				c0,0.1,3.1,8.3,13.2,14.1c0.2,0.1,0.2,0.3,0.1,0.4C34.9,67.2,34.8,67.3,34.7,67.3z"/>
			<path class="st12" d="M36.1,66.9c0,0.6-0.7,1-1.6,1c-0.9,0-1.6-0.5-1.6-1c0-0.6,0.7-1.1,1.6-1.1C35.4,65.9,36.1,66.3,36.1,66.9z"
				/>
			<path class="st12" d="M23.1,52.4c0,0.6-0.7,1-1.6,1c-0.9,0-1.6-0.5-1.6-1c0-0.6,0.7-1,1.6-1C22.4,51.4,23.1,51.8,23.1,52.4z"/>
		</g>
		<g>
			<path class="st9" d="M49.4,68.6l3.3,1.2c1.6-1,2.7-1.6,2.7-1.6L49.3,66C33.4,75,25.9,86.4,25.9,86.4l1.6,2.6
				C36.9,74.8,49.4,68.6,49.4,68.6z"/>
			<path class="st17" d="M49.3,66c0.1,0.9,0.2,1.8,0.1,2.7l3.3,1.2c1.6-1,2.7-1.6,2.7-1.6L49.3,66z"/>
			<path class="st18" d="M52.7,69.8l-3.3-1.2c0,0-12.5,6.2-21.8,20.4l5.7,1.9L32.6,89C37.8,79.8,47.8,72.8,52.7,69.8z"/>
		</g>
		<path class="st18" d="M175.1,115.9l2.4-5c2.6-7,7.4-16.2,10.1-21l-4.5-0.1c-7.1,10-12,21.6-13.7,25.9l0,0.1L175.1,115.9z"/>
		<path class="st19" d="M228.9,96.1c0,1.9-2.7,3.5-6.2,3.5c-3.4,0.1-6.2-1.4-6.3-3.3c0-1.9,2.7-3.5,6.2-3.5
			C226.1,92.7,228.9,94.2,228.9,96.1z"/>
		<g>
			<path class="st9" d="M167.4,110.4l2,5.3c1.7-4.3,6.7-15.9,13.7-25.9h0l-0.8-3.4C176.7,93.5,167.4,110.4,167.4,110.4z"/>
			<path class="st17" d="M189.5,86.5l-7.1-0.1l0.8,3.4l4.4,0.1C188.7,87.8,189.5,86.5,189.5,86.5z"/>
		</g>
		<g>
			<polygon class="st12" points="223.8,110.9 221.1,80.5 221.8,80.6 224.3,110.9 			"/>
			<g>
				<path class="st12" d="M209.7,96.1c-1.8,0-3.6,0-5.4-0.1l0-0.6c9.5,0.4,18.7-0.4,27.7-1.2c3.6-0.3,7.4-0.6,11.1-0.9l0,0.6
					c-3.7,0.2-7.4,0.6-11,0.9C224.8,95.5,217.3,96.1,209.7,96.1z"/>
				<path class="st12" d="M205.8,95.8c0,0.5-0.7,0.9-1.5,0.9c-0.8,0-1.5-0.4-1.5-0.8c0-0.5,0.7-0.9,1.5-0.9
					C205.1,95,205.8,95.3,205.8,95.8z"/>
				<path class="st12" d="M244.8,93.5c0.1,0.5-0.6,0.9-1.4,1c-0.8,0.1-1.6-0.2-1.6-0.7c0-0.5,0.6-0.9,1.4-1
					C244,92.8,244.8,93,244.8,93.5z"/>
			</g>
		</g>
		<path class="st12" d="M5.5,75.3c0,0,8.6-12.9,36.1-21.6l-0.2-0.3c0,0-23.6,6.2-36.3,21.5L5.5,75.3z"/>
		<g>
			<path class="st12" d="M32.3,60.7C31.8,62.8,29,64,26,63.4c-3-0.6-5.2-2.9-4.7-5c0.4-2.1,3.2-3.3,6.3-2.7
				C30.6,56.3,32.7,58.6,32.3,60.7z"/>
			<path class="st20" d="M31.3,61.1c-0.4,1.8-2.7,2.8-5.3,2.3c-2.5-0.5-4.3-2.4-4-4.2c0.4-1.8,2.7-2.8,5.3-2.3
				C29.8,57.5,31.6,59.3,31.3,61.1z"/>
			<path class="st12" d="M28.9,61.6c-0.2,1.2-1.8,1.8-3.4,1.5c-1.7-0.3-2.8-1.6-2.6-2.7c0.2-1.2,1.8-1.8,3.4-1.5
				C28,59.2,29.2,60.4,28.9,61.6z"/>
		</g>
		<g>
			<path class="st12" d="M230.4,95.2c0,2.3-3.4,4.3-7.6,4.4c-4.3,0.1-7.7-1.8-7.8-4.1c0-2.3,3.4-4.3,7.6-4.4
				C226.9,91,230.3,92.9,230.4,95.2z"/>
			<path class="st20" d="M228.9,96.1c0,1.9-2.7,3.5-6.2,3.5c-3.4,0.1-6.2-1.4-6.3-3.3c0-1.9,2.7-3.5,6.2-3.5
				C226.1,92.7,228.9,94.2,228.9,96.1z"/>
			<path class="st12" d="M226.2,97.6c0,1.1-1.5,2-3.5,2c-1.9,0-3.5-0.8-3.5-1.9c0-1.1,1.5-2,3.5-2C224.6,95.7,226.2,96.5,226.2,97.6
				z"/>
		</g>
		<g>
			<g>
				<path class="st12" d="M253.3,92.8l-0.1-0.6c12.5-1.6,25-3.8,37.1-6.5l0.1,0.6C278.4,89.1,265.9,91.3,253.3,92.8z"/>
				<path class="st12" d="M254.8,92.4c0.1,0.5-0.6,0.9-1.4,1c-0.8,0.1-1.6-0.2-1.6-0.7c-0.1-0.5,0.6-0.9,1.4-1
					C254.1,91.6,254.8,91.9,254.8,92.4z"/>
				<path class="st12" d="M292.4,85.8c0.1,0.5-0.6,0.9-1.4,1c-0.8,0.1-1.6-0.2-1.6-0.7c0-0.5,0.6-0.9,1.4-1
					C291.7,85,292.4,85.4,292.4,85.8z"/>
			</g>
			<path class="st12" d="M267.6,76.1c0,0,6.5,14.9,11.6,30.7l0.7-0.1c0,0-6.6-19.3-11.8-30.7L267.6,76.1z"/>
		</g>
		<g>
			<g>
				<path class="st12" d="M306.3,82.1c0,0.5-0.6,0.9-1.4,1c-0.9,0.1-1.6-0.2-1.6-0.7c0-0.5,0.6-0.9,1.4-1
					C305.6,81.3,306.3,81.6,306.3,82.1z"/>
				<path class="st12" d="M305.3,82.5l-0.2-0.6c10.5-2.9,20.8-6.3,30.8-10l0.2,0.6C326.1,76.3,315.7,79.7,305.3,82.5z"/>
				<path class="st12" d="M306.3,82.1c0,0.5-0.6,0.9-1.4,1c-0.9,0.1-1.6-0.2-1.6-0.7c0-0.5,0.6-0.9,1.4-1
					C305.6,81.3,306.3,81.6,306.3,82.1z"/>
				<path class="st12" d="M337.5,72c0,0.5-0.6,0.9-1.4,1c-0.9,0.1-1.6-0.2-1.6-0.7c-0.1-0.5,0.6-0.9,1.4-1
					C336.8,71.3,337.5,71.6,337.5,72z"/>
			</g>
			<path class="st12" d="M308.5,66c0,0,22.1,17.4,33.4,28.9l0.8-0.2c0,0-17.1-16.1-33.7-28.9L308.5,66z"/>
		</g>
		<g>
			<path class="st12" d="M329.7,75.3c0.3,2.2-2.7,4.4-6.7,4.9c-4,0.5-7.4-0.9-7.7-3c-0.3-2.2,2.7-4.4,6.7-4.9
				C326,71.8,329.4,73.2,329.7,75.3z"/>
			<path class="st20" d="M328.4,76.3c0.2,1.8-2.2,3.5-5.4,4c-3.2,0.4-6-0.7-6.2-2.5c-0.2-1.8,2.2-3.5,5.4-3.9
				C325.5,73.4,328.2,74.5,328.4,76.3z"/>
			<path class="st12" d="M326.3,77.9c0.1,1-1.3,2.1-3.2,2.3c-1.9,0.2-3.6-0.4-3.7-1.5c-0.1-1,1.3-2.1,3.2-2.3
				C324.5,76.2,326.1,76.8,326.3,77.9z"/>
		</g>
		<path class="st18" d="M32.6,89c0,0,58.9,20,134.8,21.4C167.4,110.4,94.1,111.8,32.6,89z"/>
		<path class="st18" d="M199.5,111.2c0,0,128.3-0.3,171.8-28.7C371.3,82.5,339.1,111.3,199.5,111.2z"/>
		<g>
			<path class="st12" d="M280.6,87.8c0.3,2.3-2.9,4.7-7.1,5.2c-4.2,0.5-7.9-0.9-8.2-3.2c-0.3-2.3,2.9-4.7,7.1-5.2
				C276.6,84,280.3,85.5,280.6,87.8z"/>
			<path class="st20" d="M279.2,88.8c0.2,1.9-2.3,3.8-5.7,4.2c-3.4,0.4-6.4-0.7-6.6-2.6c-0.2-1.9,2.3-3.8,5.7-4.2
				C276,85.8,279,86.9,279.2,88.8z"/>
			<path class="st12" d="M276.8,90.6c0.1,1.1-1.3,2.2-3.3,2.4c-2,0.2-3.7-0.4-3.8-1.5c-0.2-1.1,1.3-2.2,3.3-2.4
				C274.9,88.8,276.6,89.5,276.8,90.6z"/>
		</g>
		<g class="st21">
			<defs>
				
					<filter id="Adobe_OpacityMaskFilter_00000014636416008596575150000011008554506417281171_" filterUnits="userSpaceOnUse" x="36.2" y="33.7" width="342.5" height="53.1">
					<feFlood  style="flood-color:white;flood-opacity:1" result="back"/>
					<feBlend  in="SourceGraphic" in2="back" mode="normal"/>
				</filter>
			</defs>
			
				<mask maskUnits="userSpaceOnUse" x="36.2" y="33.7" width="342.5" height="53.1" id="SVGID_00000107551863844806564580000001014446497825746869_">
				<g style="filter:url(#Adobe_OpacityMaskFilter_00000014636416008596575150000011008554506417281171_);">
					<defs>
						
							<filter id="Adobe_OpacityMaskFilter_00000012458102871159446630000006734058782533520316_" filterUnits="userSpaceOnUse" x="36.2" y="33.7" width="342.5" height="53.1">
							<feFlood  style="flood-color:white;flood-opacity:1" result="back"/>
							<feBlend  in="SourceGraphic" in2="back" mode="normal"/>
						</filter>
					</defs>
					
						<mask maskUnits="userSpaceOnUse" x="36.2" y="33.7" width="342.5" height="53.1" id="SVGID_00000107551863844806564580000001014446497825746869_">
						<g style="filter:url(#Adobe_OpacityMaskFilter_00000012458102871159446630000006734058782533520316_);">
						</g>
					</mask>
					
						<linearGradient id="SVGID_00000175296962128674787480000010908364616024996271_" gradientUnits="userSpaceOnUse" x1="200.1169" y1="115.9133" x2="212.6407" y2="21.6869">
						<stop  offset="0.2642" style="stop-color:#000000"/>
						<stop  offset="0.4665" style="stop-color:#535353"/>
						<stop  offset="0.7787" style="stop-color:#CECECE"/>
						<stop  offset="0.9166" style="stop-color:#FFFFFF"/>
					</linearGradient>
					
						<path style="mask:url(#SVGID_00000107551863844806564580000001014446497825746869_);fill:url(#SVGID_00000175296962128674787480000010908364616024996271_);" d="
						M378.7,72.4c0.3-19.6-84.2-36.9-188.8-38.6c-61.7-1-116.6,3.6-151.3,11.6c-0.3,0.1-7.4,2.9,4.1,14.2
						C54.4,71.1,140,92.8,246.5,85.1c0,0,76.7-6.8,83.2-23.7c0,0-2.5-6.6,7.8-5.8c10.3,0.8,45.3,7.1,35.4,25.8
						C376.6,78.4,378.7,75.4,378.7,72.4z"/>
				</g>
			</mask>
			
				<linearGradient id="SVGID_00000036946742139347723040000001360886089470355118_" gradientUnits="userSpaceOnUse" x1="200.1169" y1="115.9133" x2="212.6407" y2="21.6869">
				<stop  offset="0.2642" style="stop-color:#C2C2C2"/>
				<stop  offset="0.3334" style="stop-color:#ACACAC"/>
				<stop  offset="0.7383" style="stop-color:#313131"/>
				<stop  offset="0.9166" style="stop-color:#000000"/>
			</linearGradient>
			<path style="fill:url(#SVGID_00000036946742139347723040000001360886089470355118_);" d="M378.7,72.4
				c0.3-19.6-84.2-36.9-188.8-38.6c-61.7-1-116.6,3.6-151.3,11.6c-0.3,0.1-7.4,2.9,4.1,14.2C54.4,71.1,140,92.8,246.5,85.1
				c0,0,76.7-6.8,83.2-23.7c0,0-2.5-6.6,7.8-5.8c10.3,0.8,45.3,7.1,35.4,25.8C376.6,78.4,378.7,75.4,378.7,72.4z"/>
		</g>
		<g class="st21">
			<defs>
				
					<filter id="Adobe_OpacityMaskFilter_00000099621904322290055150000000468024279549319570_" filterUnits="userSpaceOnUse" x="117.4" y="33.7" width="213.9" height="45.5">
					<feFlood  style="flood-color:white;flood-opacity:1" result="back"/>
					<feBlend  in="SourceGraphic" in2="back" mode="normal"/>
				</filter>
			</defs>
			
				<mask maskUnits="userSpaceOnUse" x="117.4" y="33.7" width="213.9" height="45.5" id="SVGID_00000021803987713512195130000010703715174541587880_">
				<g style="filter:url(#Adobe_OpacityMaskFilter_00000099621904322290055150000000468024279549319570_);">
					<defs>
						
							<filter id="Adobe_OpacityMaskFilter_00000094583164733042504600000013428867018385429638_" filterUnits="userSpaceOnUse" x="117.4" y="33.7" width="213.9" height="45.5">
							<feFlood  style="flood-color:white;flood-opacity:1" result="back"/>
							<feBlend  in="SourceGraphic" in2="back" mode="normal"/>
						</filter>
					</defs>
					
						<mask maskUnits="userSpaceOnUse" x="117.4" y="33.7" width="213.9" height="45.5" id="SVGID_00000021803987713512195130000010703715174541587880_">
						<g style="filter:url(#Adobe_OpacityMaskFilter_00000094583164733042504600000013428867018385429638_);">
						</g>
					</mask>
					
						<linearGradient id="SVGID_00000032606512201496861790000011921837609875595671_" gradientUnits="userSpaceOnUse" x1="214.2809" y1="117.7957" x2="226.8045" y2="23.5706">
						<stop  offset="0.2642" style="stop-color:#000000"/>
						<stop  offset="0.4665" style="stop-color:#535353"/>
						<stop  offset="0.7787" style="stop-color:#CECECE"/>
						<stop  offset="0.9166" style="stop-color:#FFFFFF"/>
					</linearGradient>
					
						<path style="mask:url(#SVGID_00000021803987713512195130000010703715174541587880_);fill:url(#SVGID_00000032606512201496861790000011921837609875595671_);" d="
						M126.8,44.5c7.9,6.9,16.3,13.1,25.8,17.6c32.8,15.8,70,18.4,106,16.4c17.8-1,35.8-3.8,52.2-11.1c5.7-2.5,12.3-5.2,16.4-10
						c2.3-2.7,3.6-5.9,4.2-9.3c-34.6-7.9-85.1-13.4-141.4-14.3c-25.7-0.4-50.2,0.1-72.5,1.5C120.4,38.8,123.8,41.9,126.8,44.5z"/>
				</g>
			</mask>
			
				<linearGradient id="SVGID_00000020374740268816779420000015950128103103823285_" gradientUnits="userSpaceOnUse" x1="214.2809" y1="117.7957" x2="226.8045" y2="23.5706">
				<stop  offset="0.2642" style="stop-color:#C2C2C2"/>
				<stop  offset="0.3334" style="stop-color:#ACACAC"/>
				<stop  offset="0.7383" style="stop-color:#313131"/>
				<stop  offset="0.9166" style="stop-color:#000000"/>
			</linearGradient>
			<path style="fill:url(#SVGID_00000020374740268816779420000015950128103103823285_);" d="M126.8,44.5
				c7.9,6.9,16.3,13.1,25.8,17.6c32.8,15.8,70,18.4,106,16.4c17.8-1,35.8-3.8,52.2-11.1c5.7-2.5,12.3-5.2,16.4-10
				c2.3-2.7,3.6-5.9,4.2-9.3c-34.6-7.9-85.1-13.4-141.4-14.3c-25.7-0.4-50.2,0.1-72.5,1.5C120.4,38.8,123.8,41.9,126.8,44.5z"/>
		</g>
		<g>
			<path class="st12" d="M160.6,106.2L160.6,106.2c-0.6,0-0.9-0.1-0.9-0.1l-17.5-1.9c-0.6-0.2-0.9-0.5-1-1c-0.2-0.7,0.4-1.4,0.5-1.4
				c7.8-8.2,14-14.4,14.1-14.4c1.3-1.1,3.3-1.3,4.7-1.3c0.7,0,1.1,0.1,1.1,0.1l12.5,0.9c0.5,0.1,0.9,0.3,1.1,0.7
				c0.4,0.7-0.2,1.7-0.3,1.8l-10.4,14.4C163.2,105.9,161.5,106.2,160.6,106.2z"/>
			<path class="st18" d="M142.4,103.6l17.4,1.9c0.1,0,0.4,0.1,0.8,0.1l0,0c0.9,0,2.3-0.4,3.4-2l10.4-14.4c0.1-0.2,0.4-0.8,0.2-1.2
				c-0.1-0.2-0.3-0.3-0.6-0.3l-12.5-0.9c0,0-0.4-0.1-1.1-0.1c-1.1,0-3.1,0.1-4.3,1.1c0,0.1-6.2,6.2-14,14.4
				c-0.1,0.1-0.4,0.6-0.3,0.9C141.8,103.3,142,103.5,142.4,103.6z"/>
			<g>
				<g>
					<path class="st30" d="M158,88.1c0,0.2-0.3,0.4-0.6,0.4c-0.3,0-0.6-0.2-0.6-0.4c0-0.2,0.3-0.4,0.6-0.4
						C157.7,87.7,158,87.9,158,88.1z"/>
				</g>
				<g>
					<path class="st30" d="M174,88.6c0,0.2-0.3,0.4-0.6,0.4c-0.3,0-0.6-0.2-0.6-0.4c0-0.2,0.3-0.4,0.6-0.4
						C173.7,88.1,174,88.3,174,88.6z"/>
				</g>
				<g>
					<path class="st30" d="M162.3,104.1c0,0.2-0.3,0.4-0.6,0.4c-0.3,0-0.6-0.2-0.6-0.4c0-0.3,0.3-0.5,0.6-0.5
						C162.1,103.6,162.3,103.8,162.3,104.1z"/>
				</g>
				<g>
					<path class="st30" d="M143.8,102.8c0,0.2-0.3,0.4-0.6,0.4c-0.3,0-0.6-0.2-0.6-0.4c0-0.2,0.3-0.4,0.6-0.4
						C143.5,102.4,143.8,102.6,143.8,102.8z"/>
				</g>
			</g>
		</g>
		<g>
			<path class="st12" d="M49.3,88.4L49.3,88.4l-0.2,0c-3-0.7-7.1-1.8-8.7-2.2l-0.1,0l-0.1-0.1c-0.2-0.2-0.3-0.4-0.4-0.6l-0.1-0.2
				l0.1-0.1c5.6-6.6,15-13,17.8-14.8l0.1,0c0.6-0.2,1.3-0.3,2.1-0.3l0.1,0c3.2,1.1,7.7,2.2,9.6,2.6l0.1,0l0.1,0.1
				c0.1,0.1,0.2,0.2,0.3,0.4l0,0.1v0.1c0,0.2,0,0.4-0.1,0.6l0,0.1l-0.1,0c-8.8,4.5-16.2,11.8-18.2,14l-0.1,0.1l-0.1,0
				C50.8,88.3,50.1,88.4,49.3,88.4z"/>
			<path class="st18" d="M49.2,87.8L49.2,87.8c0.7,0,1.4-0.1,1.9-0.2c2.1-2.2,9.4-9.5,18.2-14c0,0,0-0.1,0-0.1c0,0-0.1-0.1-0.1-0.1
				c-2.3-0.5-6.4-1.6-9.5-2.6c-0.6,0-1.2,0-1.8,0.2c-2.8,1.8-11.9,8-17.5,14.5c0,0.1,0.1,0.1,0.1,0.2C42,86,46.2,87.1,49.2,87.8z"/>
			<g>
				<g>
					<path class="st30" d="M59.1,71.6c0,0.2-0.3,0.4-0.6,0.4c-0.3,0-0.6-0.2-0.6-0.4c0-0.2,0.3-0.4,0.6-0.4
						C58.9,71.1,59.1,71.3,59.1,71.6z"/>
				</g>
				<g>
					<path class="st30" d="M42.3,85c0,0.2-0.3,0.4-0.6,0.4c-0.3,0-0.6-0.2-0.6-0.4c0-0.2,0.3-0.5,0.6-0.5
						C42.1,84.6,42.3,84.8,42.3,85z"/>
				</g>
				<g>
					<path class="st30" d="M50.2,86.8c0,0.2-0.3,0.5-0.6,0.5c-0.3,0-0.6-0.2-0.6-0.5c0-0.2,0.3-0.4,0.6-0.4
						C49.9,86.4,50.2,86.6,50.2,86.8z"/>
				</g>
				<g>
					<path class="st30" d="M67.5,73.7c0,0.2-0.3,0.4-0.6,0.4c-0.3,0-0.6-0.2-0.6-0.4c0-0.2,0.3-0.5,0.6-0.5
						C67.3,73.3,67.5,73.5,67.5,73.7z"/>
				</g>
			</g>
		</g>
		<path class="st18" d="M182.3,86.4c0,0-6.4,8.4-14.9,23.9C167.4,110.4,174.9,94.4,182.3,86.4z"/>
		<path class="st18" d="M25.9,86.4c0,0,7.8-11.2,23.3-20.4C49.3,66,34.5,73,25.9,86.4z"/>
		<g>
			<g>
				<path class="st31" d="M84,89c2.8,0.1,5.1,1.2,5.1,2.7c0,1.4-2.4,2.5-5.2,2.5c-2.9,0-5.1-1.2-5.1-2.6C78.8,90.1,81.1,89,84,89z"
					/>
				<path class="st32" d="M79.3,89c0,0-0.1,2.2-0.1,2.4c0,1.3,2.1,2.4,4.7,2.4c2.4,0.1,4.4-0.8,4.7-2h0l0.2-2.7l-2.5,0.3
					c-0.7-0.2-1.5-0.3-2.4-0.4c-0.8,0-1.7,0.1-2.3,0.3L79.3,89z"/>
				<path class="st33" d="M80.4,89.2c0,0.6,0,3-0.1,3.8c0.4,0.2,0.8,0.4,1.3,0.5c0-0.7,0.1-4.1,0.1-4.1c0,0-0.1,0-0.1,0L80.4,89.2z"
					/>
				<path class="st34" d="M79.6,89.1l-0.2,0c0,0-0.1,2.2-0.1,2.4c0,0.3,0.1,0.7,0.4,1C79.5,91.3,79.6,89.4,79.6,89.1z"/>
				<path class="st34" d="M86.1,93.6c1.3-0.3,2.3-1,2.5-1.7h0l0.2-2.7l-2.5,0.3c0,0,0,0,0,0C86.2,90.9,86.1,92.2,86.1,93.6z"/>
				<path class="st35" d="M84.1,86.8c2.6,0,4.7,1.1,4.7,2.4c0,1.3-2.2,2.3-4.8,2.3c-2.6-0.1-4.7-1.1-4.7-2.4
					C79.4,87.7,81.5,86.7,84.1,86.8z"/>
				<path class="st36" d="M84.1,87.6c1.4,0,2.5,0.6,2.5,1.3c0,0.7-1.1,1.2-2.5,1.2c-1.4,0-2.5-0.6-2.5-1.3
					C81.6,88.1,82.7,87.6,84.1,87.6z"/>
				<g>
					<path class="st36" d="M81.6,88.8c0,0.2,0.1,0.4,0.3,0.6c0.3-0.5,1.3-0.9,2.4-0.8c1,0,1.8,0.3,2.2,0.7c0.1-0.1,0.1-0.2,0.1-0.4
						c0-0.7-1.1-1.3-2.5-1.3C82.7,87.6,81.6,88.1,81.6,88.8z"/>
					<path class="st31" d="M84.2,88.6c-1.1,0-2.1,0.3-2.4,0.8c0.4,0.4,1.3,0.7,2.2,0.7c1.1,0,2.1-0.3,2.4-0.8
						C86.1,88.9,85.2,88.6,84.2,88.6z"/>
				</g>
			</g>
			<path class="st37" d="M80.1,90.4c0,0,2.4,1.8,6.9,0.6C87.1,91,83.1,92.4,80.1,90.4z"/>
		</g>
		<g>
			<g>
				<path class="st31" d="M100.7,91.3c2.8,0.1,5.1,1.2,5.1,2.7c0,1.4-2.3,2.5-5.2,2.5c-2.8-0.1-5.1-1.2-5.1-2.7
					C95.5,92.3,97.8,91.2,100.7,91.3z"/>
				<path class="st32" d="M96,91.3c0,0-0.1,2.2-0.1,2.4c0,1.3,2.1,2.4,4.7,2.4c2.4,0,4.4-0.8,4.7-2h0l0.1-2.6l-2.5,0.3
					c-0.7-0.2-1.5-0.3-2.4-0.3c-0.9,0-1.7,0.1-2.4,0.3L96,91.3z"/>
				<path class="st33" d="M97.1,91.5c0,0.6,0,3-0.1,3.8c0.4,0.2,0.8,0.4,1.3,0.6c0-0.7,0.1-4.1,0.1-4.1c0,0-0.1,0-0.1,0L97.1,91.5z"
					/>
				<path class="st34" d="M96.2,91.3l-0.2,0c0,0-0.1,2.2-0.1,2.4c0,0.3,0.1,0.7,0.4,1C96.2,93.6,96.2,91.6,96.2,91.3z"/>
				<path class="st34" d="M102.8,95.9c1.3-0.3,2.3-1,2.5-1.8h0l0.1-2.6l-2.5,0.3c0,0,0,0,0,0C102.8,93.1,102.8,94.5,102.8,95.9z"/>
				<path class="st35" d="M100.8,89c2.6,0.1,4.7,1.1,4.7,2.4c0,1.3-2.2,2.3-4.8,2.3c-2.6,0-4.7-1.1-4.7-2.4C96,90,98.1,89,100.8,89z
					"/>
				<path class="st36" d="M100.7,89.9c1.4,0,2.5,0.6,2.5,1.3c0,0.7-1.2,1.2-2.5,1.2c-1.4,0-2.5-0.6-2.5-1.3
					C98.2,90.4,99.3,89.8,100.7,89.9z"/>
				<g>
					<path class="st36" d="M98.2,91.1c0,0.2,0.1,0.4,0.3,0.6c0.3-0.5,1.3-0.8,2.4-0.8c1,0,1.8,0.3,2.2,0.7c0.1-0.1,0.1-0.2,0.1-0.4
						c0-0.7-1.1-1.3-2.5-1.3C99.3,89.8,98.2,90.4,98.2,91.1z"/>
					<path class="st31" d="M100.9,90.8c-1.1,0-2.1,0.3-2.4,0.8c0.4,0.4,1.3,0.7,2.2,0.7c1.1,0,2.1-0.3,2.4-0.8
						C102.7,91.1,101.9,90.8,100.9,90.8z"/>
				</g>
			</g>
			<path class="st37" d="M96.8,92.6c0,0,2.4,1.8,6.9,0.6C103.7,93.2,99.7,94.7,96.8,92.6z"/>
		</g>
		<g>
			<g>
				<path class="st31" d="M118.8,93.9c2.8,0.1,5.1,1.2,5.1,2.7c0,1.4-2.4,2.5-5.2,2.5c-2.9-0.1-5.2-1.2-5.1-2.7
					C113.6,95,116,93.8,118.8,93.9z"/>
				<path class="st32" d="M114.2,93.9c0,0-0.1,2.2-0.1,2.4c0,1.3,2.1,2.4,4.7,2.4c2.4,0,4.4-0.8,4.7-2h0l0.1-2.6l-2.5,0.3
					c-0.7-0.2-1.5-0.3-2.4-0.4c-0.8,0-1.7,0.1-2.4,0.3L114.2,93.9z"/>
				<path class="st33" d="M115.2,94.1c0,0.6,0,3-0.1,3.8c0.4,0.2,0.8,0.4,1.3,0.5c0-0.7,0.1-4.1,0.1-4.1c0,0-0.1,0-0.1,0L115.2,94.1
					z"/>
				<path class="st34" d="M114.4,93.9l-0.2,0c0,0-0.1,2.2-0.1,2.4c0,0.3,0.1,0.7,0.4,0.9C114.4,96.2,114.4,94.2,114.4,93.9z"/>
				<path class="st34" d="M121,98.5c1.3-0.3,2.3-1,2.5-1.8h0l0.1-2.6l-2.5,0.3c0,0,0,0,0,0C121,95.7,120.9,97.1,121,98.5z"/>
				<path class="st35" d="M118.9,91.6c2.6,0.1,4.7,1.1,4.7,2.4c0,1.3-2.2,2.3-4.8,2.3c-2.6,0-4.7-1.1-4.7-2.4
					C114.2,92.6,116.3,91.6,118.9,91.6z"/>
				<path class="st36" d="M118.9,92.5c1.4,0,2.5,0.6,2.5,1.3c0,0.7-1.1,1.3-2.5,1.2c-1.4,0-2.5-0.6-2.5-1.3
					C116.4,93,117.5,92.4,118.9,92.5z"/>
				<g>
					<path class="st36" d="M116.4,93.7c0,0.2,0.1,0.4,0.3,0.6c0.3-0.5,1.3-0.9,2.4-0.8c1,0,1.8,0.3,2.2,0.7c0.1-0.1,0.1-0.2,0.1-0.4
						c0-0.7-1.1-1.3-2.5-1.3C117.5,92.4,116.4,93,116.4,93.7z"/>
					<path class="st31" d="M119.1,93.4c-1.1,0-2.1,0.3-2.4,0.8c0.4,0.4,1.3,0.7,2.2,0.7c1.1,0,2.1-0.3,2.4-0.8
						C120.9,93.7,120,93.4,119.1,93.4z"/>
				</g>
			</g>
			<path class="st37" d="M114.9,95.2c0,0,2.4,1.8,6.9,0.6C121.9,95.8,117.9,97.3,114.9,95.2z"/>
		</g>
		<path class="st18" d="M81.4,76c0,0,33.6,6.5,63.6,8.3c0,0-40.1-2.5-63.6-7.6c0,0-11.1,6.3-18.9,13.9C62.5,90.7,70.7,81.5,81.4,76z
			"/>
		<g>
			<defs>
				
					<filter id="Adobe_OpacityMaskFilter_00000035521550537299523410000015952382657421559684_" filterUnits="userSpaceOnUse" x="30.8" y="93.6" width="311.5" height="32.2">
					<feFlood  style="flood-color:white;flood-opacity:1" result="back"/>
					<feBlend  in="SourceGraphic" in2="back" mode="normal"/>
				</filter>
			</defs>
			
				<mask maskUnits="userSpaceOnUse" x="30.8" y="93.6" width="311.5" height="32.2" id="SVGID_00000019662866513181246120000006923895102180880558_">
				<g style="filter:url(#Adobe_OpacityMaskFilter_00000035521550537299523410000015952382657421559684_);">
					<defs>
						
							<filter id="Adobe_OpacityMaskFilter_00000097484708690514747530000009043729568709445768_" filterUnits="userSpaceOnUse" x="30.8" y="93.6" width="311.5" height="32.2">
							<feFlood  style="flood-color:white;flood-opacity:1" result="back"/>
							<feBlend  in="SourceGraphic" in2="back" mode="normal"/>
						</filter>
					</defs>
					
						<mask maskUnits="userSpaceOnUse" x="30.8" y="93.6" width="311.5" height="32.2" id="SVGID_00000019662866513181246120000006923895102180880558_">
						<g style="filter:url(#Adobe_OpacityMaskFilter_00000097484708690514747530000009043729568709445768_);">
						</g>
					</mask>
					
						<linearGradient id="SVGID_00000176043619946187972870000000250204943904915877_" gradientUnits="userSpaceOnUse" x1="30.7831" y1="109.6683" x2="342.2892" y2="109.6683">
						<stop  offset="0.2642" style="stop-color:#000000"/>
						<stop  offset="0.4665" style="stop-color:#535353"/>
						<stop  offset="0.7787" style="stop-color:#CECECE"/>
						<stop  offset="0.9166" style="stop-color:#FFFFFF"/>
					</linearGradient>
					
						<path style="mask:url(#SVGID_00000019662866513181246120000006923895102180880558_);fill:url(#SVGID_00000176043619946187972870000000250204943904915877_);" d="
						M30.8,93.6c33.3,16.3,90.8,31.1,157.2,32.2c63.2,1,119.5-11.5,154.3-25.9C177.5,141.7,60.4,104.7,30.8,93.6z"/>
				</g>
			</mask>
			
				<linearGradient id="SVGID_00000170237713685892238810000006462030188914085051_" gradientUnits="userSpaceOnUse" x1="30.7831" y1="109.6683" x2="342.2892" y2="109.6683">
				<stop  offset="0.2642" style="stop-color:#C2C2C2"/>
				<stop  offset="0.3334" style="stop-color:#ACACAC"/>
				<stop  offset="0.7383" style="stop-color:#313131"/>
				<stop  offset="0.9166" style="stop-color:#000000"/>
			</linearGradient>
			<path style="opacity:0.5;fill:url(#SVGID_00000170237713685892238810000006462030188914085051_);" d="M30.8,93.6
				c33.3,16.3,90.8,31.1,157.2,32.2c63.2,1,119.5-11.5,154.3-25.9C177.5,141.7,60.4,104.7,30.8,93.6z"/>
		</g>
		<g>
			<path class="st30" d="M185.1,63.2c0,0.2-0.3,0.4-0.6,0.4c-0.3,0-0.6-0.2-0.6-0.4c0-0.2,0.3-0.4,0.6-0.4
				C184.8,62.8,185.1,63,185.1,63.2z"/>
		</g>
	</g>
	<g>
		<g>
			<path class="st5" d="M93.5,37.1c-0.2,1.9-0.3,3.7-0.2,5.5c3.6-1.3,7.2-2.6,10.9-3.8c2.7-0.9,5.4-1.7,8.2-2.2
				c1.1-0.2,2.4-0.4,3.4-1c0.1,0,0.1-0.1,0.2-0.1C108.3,35.9,100.8,36.5,93.5,37.1z"/>
			<path class="st42" d="M309.8,39.6C287.3,28.9,238.5,20.9,181.7,20C125,19,75.9,25.4,53,35.4l-13.7-0.2l0,13
				c-0.3,16.9,63,31.6,141.4,32.9c78.3,1.3,142.1-11.3,142.4-28.2v-13L309.8,39.6z"/>
			<defs>
				
					<filter id="Adobe_OpacityMaskFilter_00000072274239942815762080000004542478666605634176_" filterUnits="userSpaceOnUse" x="39.4" y="19.9" width="283.7" height="61.3">
					<feFlood  style="flood-color:white;flood-opacity:1" result="back"/>
					<feBlend  in="SourceGraphic" in2="back" mode="normal"/>
				</filter>
			</defs>
			
				<mask maskUnits="userSpaceOnUse" x="39.4" y="19.9" width="283.7" height="61.3" id="SVGID_00000152949107007427162670000002191162959489325225_">
				<g style="filter:url(#Adobe_OpacityMaskFilter_00000072274239942815762080000004542478666605634176_);">
					<defs>
						
							<filter id="Adobe_OpacityMaskFilter_00000124846691568907552050000000391717110112715662_" filterUnits="userSpaceOnUse" x="39.4" y="19.9" width="283.7" height="61.3">
							<feFlood  style="flood-color:white;flood-opacity:1" result="back"/>
							<feBlend  in="SourceGraphic" in2="back" mode="normal"/>
						</filter>
					</defs>
					
						<mask maskUnits="userSpaceOnUse" x="39.4" y="19.9" width="283.7" height="61.3" id="SVGID_00000152949107007427162670000002191162959489325225_">
						<g style="filter:url(#Adobe_OpacityMaskFilter_00000124846691568907552050000000391717110112715662_);">
						</g>
					</mask>
					
						<linearGradient id="SVGID_00000124138697236821718280000003537663033388819100_" gradientUnits="userSpaceOnUse" x1="93.4006" y1="50.5333" x2="194.7842" y2="50.5333">
						<stop  offset="0.2642" style="stop-color:#000000"/>
						<stop  offset="0.4665" style="stop-color:#535353"/>
						<stop  offset="0.7787" style="stop-color:#CECECE"/>
						<stop  offset="0.9166" style="stop-color:#FFFFFF"/>
					</linearGradient>
					
						<path style="mask:url(#SVGID_00000152949107007427162670000002191162959489325225_);fill:url(#SVGID_00000124138697236821718280000003537663033388819100_);" d="
						M309.8,39.6C287.3,28.9,238.5,20.9,181.7,20C125,19,75.9,25.4,53,35.4l-13.7-0.2l0,13c-0.3,16.9,63,31.6,141.4,32.9
						c78.3,1.3,142.1-11.3,142.4-28.2v-13L309.8,39.6z"/>
				</g>
			</mask>
			
				<linearGradient id="SVGID_00000088123114527743161450000014335904083259174807_" gradientUnits="userSpaceOnUse" x1="93.4006" y1="50.5333" x2="194.7842" y2="50.5333">
				<stop  offset="0.2642" style="stop-color:#C2C2C2"/>
				<stop  offset="0.3334" style="stop-color:#ACACAC"/>
				<stop  offset="0.7383" style="stop-color:#313131"/>
				<stop  offset="0.9166" style="stop-color:#000000"/>
			</linearGradient>
			<path style="opacity:0.5;fill:url(#SVGID_00000088123114527743161450000014335904083259174807_);" d="M309.8,39.6
				C287.3,28.9,238.5,20.9,181.7,20C125,19,75.9,25.4,53,35.4l-13.7-0.2l0,13c-0.3,16.9,63,31.6,141.4,32.9
				c78.3,1.3,142.1-11.3,142.4-28.2v-13L309.8,39.6z"/>
			<path class="st47" d="M39.4,36.1v5.1c-0.3,16.9,63,31.6,141.4,32.9c78.3,1.3,142.1-11.3,142.4-28.2v-6L39.4,36.1z"/>
			<path class="st8" d="M53,35.4h-0.4v26.1c3.2,1.5,6.9,3,11.1,4.4V31.5C59.7,32.7,56.1,34,53,35.4z"/>
			<path class="st48" d="M309.8,39.6c-7.3-3.5-17.3-6.6-29.4-9.4v43.7c26.2-5.1,42.5-12.5,42.6-21.1v-13L309.8,39.6z"/>
			<path class="st48" d="M309.8,39.6c-0.8-0.4-1.5-0.7-2.3-1.1v27.9c9.9-4,15.5-8.6,15.6-13.6v-13L309.8,39.6z"/>
			<path class="st5" d="M319.3,33.6c-5.3-5-14.4-9.1-14.4-9.1c-56.5-25.5-125-23.7-125-23.7C97.9,3.3,58.4,21.3,52.4,24.3
				c-8.3,3.2-13,6.9-13,10.8c-0.2,14.7,63.1,27.7,141.4,29c78.3,1.3,142.1-9.6,142.3-24.3C323.1,37.7,321.8,35.7,319.3,33.6z"/>
			<path class="st8" d="M283.3,25.1c-3.9-3.7-10.7-6.7-10.7-6.7C230.9-0.5,180.2,0.9,180.2,0.9C119.7,2.6,90.5,16,86,18.2
				c-6.1,2.4-9.6,5.1-9.6,8C76.2,37.1,123,46.6,180.9,47.6c57.9,1,104.9-7.1,105.1-17.9C286,28.1,285.1,26.6,283.3,25.1z"/>
			
				<radialGradient id="SVGID_00000054251079967062438400000003268555557464923039_" cx="172.1209" cy="-10.4458" r="66.1432" gradientUnits="userSpaceOnUse">
				<stop  offset="0.4624" style="stop-color:#C2C2C2"/>
				<stop  offset="0.5518" style="stop-color:#888888"/>
				<stop  offset="0.6398" style="stop-color:#585858"/>
				<stop  offset="0.7225" style="stop-color:#323232"/>
				<stop  offset="0.7985" style="stop-color:#161616"/>
				<stop  offset="0.8656" style="stop-color:#060606"/>
				<stop  offset="0.9166" style="stop-color:#000000"/>
			</radialGradient>
			<path style="fill:url(#SVGID_00000054251079967062438400000003268555557464923039_);" d="M247.6,16.6c-2.5-2.4-6.9-4.4-6.9-4.4
				C213.5,0,180.6,0.9,180.6,0.9c-39.4,1.1-58.3,9.8-61.2,11.3c-4,1.6-6.2,3.3-6.2,5.2c-0.1,7.1,30.3,13.3,67.9,13.9
				c37.6,0.6,68.2-4.6,68.3-11.7C249.4,18.6,248.7,17.6,247.6,16.6z"/>
			<g>
				<path class="st8" d="M195.3,1.1c-9.6-0.4-15.4-0.3-15.4-0.3c-15,0.4-28.6,1.4-40.9,2.7c-63.2,11-86.3,43-86.4,43.1
					c3.4,1.4,7.4,2.8,11.9,4.1C69.5,45.4,109.5,5,195.3,1.1z"/>
			</g>
			<path class="st50" d="M322.5,42.3C184.5,16,60.2,21.3,59,21.4l1.2-0.4c1.2-0.1,124.6-5.7,262.5,20.6L322.5,42.3z"/>
			<path class="st51" d="M161,63.8h-0.3c-29.9-1.3-57.2-4.3-78.9-8.6l-0.6-0.1l0.5-0.4c24.9-22.1,57.1-34.1,79.7-40.3
				c24.5-6.7,43.4-8.1,43.5-8.1l0.9-0.1l-0.7,0.6c-38.2,34.3-44,56.5-44,56.8L161,63.8z"/>
			<path class="st20" d="M82.5,54.3c21.5,4.3,48.5,7.2,78,8.5c0.7-2.5,7.8-24.1,43.5-56.2c-4,0.4-21.1,2.2-42.5,8
				C139.1,20.7,107.3,32.5,82.5,54.3z"/>
			<path class="st52" d="M86.1,56.2c19.6,3.9,40.6,5.9,67.6,7c0.7-2.3,10.9-24.1,43.5-53.5c-3.7,0.4-23.4,2.9-42.6,9.5
				C134.5,26.1,108.7,36.3,86.1,56.2z"/>
			
				<linearGradient id="SVGID_00000080891463356408963700000015924073832336119980_" gradientUnits="userSpaceOnUse" x1="119.8569" y1="106.9946" x2="141.9215" y2="32.154">
				<stop  offset="0.4624" style="stop-color:#C2C2C2"/>
				<stop  offset="0.5518" style="stop-color:#888888"/>
				<stop  offset="0.6398" style="stop-color:#585858"/>
				<stop  offset="0.7225" style="stop-color:#323232"/>
				<stop  offset="0.7985" style="stop-color:#161616"/>
				<stop  offset="0.8656" style="stop-color:#060606"/>
				<stop  offset="0.9166" style="stop-color:#000000"/>
			</linearGradient>
			<path style="fill:url(#SVGID_00000080891463356408963700000015924073832336119980_);" d="M86.1,56.2c19.6,3.9,40.6,5.9,67.6,7
				c0.7-2.3,10.9-24.1,43.5-53.5c-3.7,0.4-23.4,2.9-42.6,9.5C134.5,26.1,108.7,36.3,86.1,56.2z"/>
			<path class="st0" d="M46.5,43.7c0,0,38.5,24.4,167.9,20.5C214.4,64.3,100,66.9,46.5,43.7z"/>
			<g>
				<path class="st10" d="M296.3,36.9c0,2.8-10.1,5.1-22.4,5.1c-12.4,0-22.4-2.3-22.4-5.1c0-2.8,10-5.1,22.4-5.1
					C286.2,31.8,296.3,34.1,296.3,36.9z"/>
				<g>
					<path class="st10" d="M294.9,38.6c0.9-0.5,1.3-1.1,1.3-1.7c0-2.8-10.1-5.1-22.4-5.1c-12.4,0-22.4,2.3-22.4,5.1
						c0,0.6,0.5,1.2,1.3,1.7c3.1-1.9,11.4-3.3,21.1-3.3C283.5,35.3,291.8,36.7,294.9,38.6z"/>
					<path class="st10" d="M294.9,38.6c-3.1-1.9-11.4-3.3-21.1-3.3c-9.7,0-18,1.4-21.1,3.3c3.1,1.9,11.4,3.3,21.1,3.3
						C283.5,42,291.8,40.6,294.9,38.6z"/>
				</g>
				<path class="st54" d="M260,28.8v12l0,0c0,0,0,0,0,0.1c3.8,0.7,8.6,1.1,13.9,1.1c5.2,0,10-0.4,13.9-1.1c0,0,0,0,0-0.1V28.8H260z"
					/>
				<path class="st54" d="M266.5,28.8v12.9c0.7,0.1,1.4,0.1,2.2,0.1V28.8H266.5z"/>
				<path class="st55" d="M277.7,28.8v13.1c3.7-0.1,7.2-0.5,10-1c0,0,0,0,0-0.1V28.8H277.7z"/>
				<path class="st55" d="M283,28.8v12.8c1.7-0.2,3.2-0.4,4.7-0.6c0,0,0,0,0-0.1V28.8H283z"/>
				<path class="st18" d="M287.7,28.8c0,1.7-6.2,3.1-13.9,3.1c-7.7,0-13.9-1.4-13.9-3.1s6.2-3.1,13.9-3.1
					C281.5,25.6,287.7,27,287.7,28.8z"/>
				<g>
					<path class="st54" d="M282.6,29.1c0.5-0.2,0.7-0.5,0.7-0.8c0-1.2-4.2-2.1-9.5-2.1c-5.2,0-9.5,1-9.5,2.1c0,0.3,0.3,0.6,0.7,0.8
						c1.4-0.8,4.8-1.3,8.7-1.3C277.8,27.8,281.2,28.3,282.6,29.1z"/>
					<path class="st54" d="M282.6,29.1c-1.4-0.8-4.8-1.3-8.7-1.3c-3.9,0-7.3,0.5-8.7,1.3c1.4,0.8,4.8,1.3,8.7,1.3
						C277.8,30.4,281.2,29.9,282.6,29.1z"/>
					<path class="st54" d="M282.6,29.1c-1.4-0.8-4.8-1.3-8.7-1.3c-3.9,0-7.3,0.5-8.7,1.3c1.4,0.8,4.8,1.3,8.7,1.3
						C277.8,30.4,281.2,29.9,282.6,29.1z"/>
				</g>
				<path class="st54" d="M260.1,29.1c0,0,1.6,3.6,18.9,2.6C278.9,31.7,262.7,33.4,260.1,29.1z"/>
			</g>
			<g>
				<path class="st10" d="M85.1,21.8c0,1.4-5.5,1.5-11.5,1.5c-6,0-10.3,0-10.1-1.5c0.2-1.3,4.8-2.4,10.8-2.4
					C80.2,19.3,85.1,20.4,85.1,21.8z"/>
				<path class="st54" d="M64.4,14.1v8.6v0v0c2.7,0.5,6.2,0.8,9.9,0.8c3.7,0,7.2-0.3,9.9-0.8l0,0v-8.6H64.4z"/>
				<path class="st54" d="M69.1,14.1v9.2c0.5,0,1,0.1,1.6,0.1v-9.4H69.1z"/>
				<path class="st55" d="M77,14.1v9.4c2.7-0.1,5.1-0.4,7.2-0.7l0,0v-8.6H77z"/>
				<path class="st55" d="M80.9,14.1v9.1c1.2-0.1,2.3-0.3,3.3-0.5l0,0v-8.6H80.9z"/>
				<path class="st18" d="M84.2,14.1c0,1.2-4.4,2.2-9.9,2.2c-5.5,0-9.9-1-9.9-2.2c0-1.2,4.4-2.2,9.9-2.2
					C79.8,11.9,84.2,12.9,84.2,14.1z"/>
				<g>
					<path class="st54" d="M80.5,14.3c0.3-0.2,0.5-0.4,0.5-0.6c0-0.8-3-1.5-6.8-1.5c-3.7,0-6.8,0.7-6.8,1.5c0,0.2,0.2,0.4,0.5,0.6
						c1-0.5,3.4-1,6.3-1C77.1,13.4,79.5,13.8,80.5,14.3z"/>
					<path class="st54" d="M80.5,14.3c-1-0.5-3.4-1-6.3-1c-2.8,0-5.2,0.4-6.3,1c1,0.5,3.4,0.9,6.3,0.9
						C77.1,15.3,79.5,14.9,80.5,14.3z"/>
					<path class="st54" d="M80.5,14.3c-1-0.5-3.4-1-6.3-1c-2.8,0-5.2,0.4-6.3,1c1,0.5,3.4,0.9,6.3,0.9
						C77.1,15.3,79.5,14.9,80.5,14.3z"/>
				</g>
				<path class="st54" d="M64.4,14.3c0,0,1.1,2.6,13.5,1.9C77.9,16.2,66.3,17.4,64.4,14.3z"/>
			</g>
			<path class="st5" d="M50.1,38.1c0,0,4.3,5,18,6.6c0,0,41.5-34.6,80-42l-12.8,0.2L53.1,36L50.1,38.1z"/>
			<g>
				<g>
					<path class="st20" d="M43,46.5c-0.1-1-0.5-1.8-1-1.8L41,44.8l0.2,3.7l1.2-0.2v0C42.8,48.2,43.1,47.4,43,46.5z"/>
					<path class="st56" d="M42,46.6c0.1,1-0.3,1.9-0.8,1.9c-0.5,0-0.9-0.8-1-1.8c-0.1-1,0.3-1.9,0.8-1.9
						C41.5,44.8,41.9,45.6,42,46.6z"/>
					<path class="st57" d="M41.5,46.6c0,0.5-0.1,1-0.4,1c-0.3,0-0.5-0.4-0.5-0.9c0-0.5,0.1-1,0.4-1C41.3,45.7,41.5,46.1,41.5,46.6z"
						/>
				</g>
				<g>
					<path class="st20" d="M81.5,63.1c-0.1-1-0.5-1.8-1-1.8l-1.1,0.1l0.2,3.7l1.2-0.2l0,0C81.3,64.8,81.6,64,81.5,63.1z"/>
					<path class="st56" d="M80.5,63.2c0.1,1-0.3,1.9-0.8,1.9c-0.5,0-0.9-0.8-1-1.8c-0.1-1,0.3-1.9,0.8-1.9
						C80,61.4,80.4,62.2,80.5,63.2z"/>
					<path class="st57" d="M80,63.2c0,0.5-0.1,0.9-0.4,1c-0.2,0-0.5-0.4-0.5-0.9c0-0.5,0.1-1,0.4-1C79.8,62.3,80,62.7,80,63.2z"/>
				</g>
				<g>
					<path class="st20" d="M159.6,73.2c-0.1-1-0.5-1.8-1-1.8l-1.1,0.1l0.2,3.7L159,75v0C159.4,74.9,159.7,74.1,159.6,73.2z"/>
					<path class="st56" d="M158.5,73.3c0.1,1-0.3,1.9-0.8,1.9c-0.5,0-0.9-0.8-1-1.8c-0.1-1,0.3-1.9,0.8-1.9
						C158,71.5,158.5,72.3,158.5,73.3z"/>
					<path class="st57" d="M158.1,73.3c0,0.5-0.2,1-0.4,1c-0.2,0-0.5-0.4-0.5-0.9c0-0.5,0.1-1,0.4-1
						C157.9,72.4,158.1,72.8,158.1,73.3z"/>
				</g>
				<g>
					<path class="st20" d="M279.2,66.8c0.1-1,0.5-1.8,1-1.8l1.1,0.1l-0.2,3.7l-1.2-0.2l0,0C279.4,68.5,279.1,67.7,279.2,66.8z"/>
					<path class="st56" d="M280.2,66.9c-0.1,1,0.3,1.9,0.8,1.9c0.5,0,0.9-0.8,1-1.8c0.1-1-0.3-1.9-0.8-1.9
						C280.7,65.1,280.3,65.9,280.2,66.9z"/>
					<path class="st57" d="M280.7,66.9c0,0.5,0.1,1,0.4,1c0.2,0,0.5-0.4,0.5-0.9c0-0.5-0.1-1-0.4-1C280.9,66,280.7,66.4,280.7,66.9z
						"/>
				</g>
			</g>
			<g>
				<g>
					<path class="st58" d="M52.3,37.7c0.2-0.5,0.4-0.9,0.6-1.3C52.7,36.8,52.5,37.2,52.3,37.7z"/>
					<path class="st58" d="M52.9,36.4c0.1-0.1,0.1-0.2,0.2-0.3C53,36.2,52.9,36.3,52.9,36.4z"/>
					<path class="st58" d="M52,38.4c0.1-0.2,0.2-0.5,0.3-0.7C52.2,38,52.1,38.2,52,38.4z"/>
					<path class="st18" d="M124,0.4c-14.2,1.8-40.7,11.2-68,31.7c0,0-1.6,1.4-3,3.8c3.4-6.1,9.5-3.6,9.5-3.6
						c7.5,2.1,5.7,11.1,5.7,11.1S109.1,9.4,144,3C144,3,138.2-1.4,124,0.4z"/>
					<path class="st54" d="M123.6,0.5c-2.5,0.4-5.4,0.9-8.6,1.8c1.6,0.5,3.1,1.3,4.4,2.9c1.2,1.5,1.8,3.2,2.2,5
						c2.7-1.2,5.4-2.2,8.1-3.2C129.1,3.9,126.5,1.2,123.6,0.5z"/>
					<path class="st54" d="M130.8,6.5C135.2,5,139.7,3.8,144,3c0,0-5.2-3.8-17.6-2.8C128.7,1.5,130.4,3.9,130.8,6.5z"/>
					<path class="st54" d="M118.8,6.6c-1.8-2.2-3.9-3-6.3-3.7c-1.9,0.5-3.9,1.2-5.9,1.9c4,1.4,6.3,5,6.8,9.2
						c2.3-1.2,4.7-2.3,7.1-3.4C120.2,9.1,119.7,7.7,118.8,6.6z"/>
					<path class="st54" d="M104.3,5.5c-1.7,0.6-3.5,1.3-5.4,2c4.4,0.8,7.4,5.1,8.1,9.7c1.7-0.9,3.4-1.8,5.1-2.7
						C111.7,10.1,109.1,6.4,104.3,5.5z"/>
					<path class="st54" d="M105.9,18c-0.7-5.1-4.4-9.8-9.7-9.2C84,13.9,70.1,21.6,56,32.2c0,0-1.6,1.4-3,3.8
						c3.4-6.1,9.5-3.6,9.5-3.6c7.5,2.1,5.7,11.1,5.7,11.1S84.8,29.7,105.9,18z"/>
					<path class="st20" d="M62.6,32.4c0,0-6.1-2.5-9.5,3.6c-0.1,0.1-0.1,0.2-0.2,0.3c0,0,0,0,0,0c-0.2,0.4-0.4,0.8-0.6,1.3
						c-0.1,0.2-0.2,0.5-0.3,0.7c0,0,8.8,4.2,16.3,5.1C68.3,43.5,70,34.5,62.6,32.4z"/>
					<path class="st12" d="M61.5,35.4c0,0-4.2-1.7-6.6,2.5c0,0.1-0.1,0.1-0.1,0.2c0,0,0,0,0,0c-0.2,0.3-0.3,0.6-0.4,0.9
						c-0.1,0.2-0.1,0.3-0.2,0.5c0,0,6.1,2.9,11.2,3.5C65.4,43,66.6,36.8,61.5,35.4z"/>
					<path class="st12" d="M61.5,35.4c0,0-4.2-1.7-6.6,2.5c0,0.1-0.1,0.1-0.1,0.2c0,0,0,0,0,0c-0.2,0.3-0.3,0.6-0.4,0.9
						c-0.1,0.2-0.1,0.3-0.2,0.5c0,0,6.1,2.9,11.2,3.5C65.4,43,66.6,36.8,61.5,35.4z"/>
					<path class="st59" d="M61.6,36.7c0,0-3.5-1.4-5.4,2.1c0,0.1-0.1,0.1-0.1,0.2c0,0,0,0,0,0c-0.1,0.2-0.2,0.5-0.3,0.7
						c-0.1,0.1-0.1,0.3-0.2,0.4c0,0,5,2.3,9.3,2.8C64.8,42.9,65.8,37.9,61.6,36.7z"/>
					<path class="st58" d="M52.9,36.4C52.9,36.4,52.9,36.4,52.9,36.4C52.9,36.4,52.9,36.4,52.9,36.4z"/>
					<path class="st60" d="M61.5,32.1c9.1-8.9,20.7-15,32-20.7c6.6-3.4,13.4-6.4,20.3-8.9C98.8,6.6,77.7,15.9,56,32.2
						c0,0-1.6,1.4-3,3.8C55.6,31.5,59.6,31.7,61.5,32.1z"/>
					<path class="st61" d="M126.2,3.4c-8.2,2-16.1,5.4-23.7,9C89.7,18.7,78,26.6,66.9,35.4c2.3,3.4,1.4,8.1,1.4,8.1S109.1,9.4,144,3
						c0,0-0.9-0.7-3-1.4C136,1.9,131,2.2,126.2,3.4z"/>
					<path class="st61" d="M129.6,5.3c-8,2.6-15.7,5.7-23.2,9.5c-13.7,6.9-26.2,16.1-38,25.9c0.1,1.6-0.2,2.8-0.2,2.8
						S109.1,9.4,144,3c0,0-0.3-0.2-0.8-0.5C138.6,3.1,134.1,3.9,129.6,5.3z"/>
				</g>
				<path class="st20" d="M88,15.4c-1,0-1.7,0.4-1.7,0.8c0,0.1,0.1,0.2,0.2,0.4c-13.2,6.6-23.2,16.1-23.2,16.1l0.5,0.2
					c8.5-8.4,19.8-14.2,23.5-15.9C87.5,17,87.7,17,88,17c1,0,1.7-0.4,1.7-0.8C89.7,15.8,88.9,15.4,88,15.4z"/>
			</g>
			<path class="st5" d="M197.2,54.6c0,0,10.8,2.8,28.6-0.4c0,0,11.9-25,35.2-44.2c0,0-9.5-2.2-13.7-2.9C247.4,7,209,25.6,197.2,54.6
				z"/>
			<g>
				<g>
					<path class="st58" d="M199.1,53.6c0.3-1.4,0.7-2.8,1.1-4.2C199.2,51.8,199.1,53.6,199.1,53.6z"/>
					<path class="st20" d="M210.5,41.4c-6.1,0.8-9,4.9-10.3,8c-0.5,1.4-0.9,2.8-1.1,4.2c0,0,14.6,2,25.7-0.4
						C224.8,53.2,222.2,39.8,210.5,41.4z"/>
					<path class="st12" d="M210.8,44.5c-4.6,0.7-6.8,3.7-7.8,6.2c-0.4,1-0.7,2.1-0.9,3.2c0,0,11.1,1.5,19.6-0.4
						C221.7,53.5,219.8,43.3,210.8,44.5z"/>
					<path class="st59" d="M211.1,46.7c-3.6,0.5-5.3,2.9-6.1,4.8c-0.3,0.8-0.5,1.7-0.7,2.5c0,0,8.7,1.2,15.4-0.3
						C219.6,53.7,218.1,45.7,211.1,46.7z"/>
					<path class="st18" d="M260,9.8c0,0-3.4-5.6-15.6-2.1c-11.4,3.2-37.4,22-44.2,41.8c1.3-3.2,4.2-7.2,10.3-8
						c11.8-1.7,14.3,11.8,14.3,11.8S237,29.1,260,9.8z"/>
					<path class="st54" d="M240.6,17.8c-3.7-2.4-8.5-3-12.5-1.3c-11.3,8-23.6,20.3-27.9,33c1.3-3.2,4.2-7.2,10.3-8
						c11.8-1.7,14.3,11.8,14.3,11.8s7.1-14,20.7-29.2C244.4,21.5,242.9,19.3,240.6,17.8z"/>
					<path class="st54" d="M255.5,13.7c1.4-1.3,2.9-2.6,4.5-3.9c0,0-2.8-4.7-12.8-2.8C250.8,7.9,253.7,10.3,255.5,13.7z"/>
					<path class="st54" d="M243.5,8c-1.3,0.4-2.6,1-4.2,1.7c0.9,0,1.7,0.1,2.6,0.3c2.1,0.6,4.2,1.5,5.8,3c1.5,1.4,2.6,3.1,3.4,4.9
						c1.1-1.1,2.2-2.2,3.4-3.2C252.4,10.4,248.3,7.8,243.5,8z"/>
					<path class="st54" d="M246.2,13.6c-1.9-1.4-4.3-2.5-6.7-2.6c-0.9,0-1.8,0.1-2.8,0.1c-1.8,1-3.7,2.1-5.6,3.4
						c3.2-0.5,6.6,0.1,9.6,1.8c2.7,1.5,4.5,4,5.7,6.7c1.2-1.3,2.5-2.7,3.8-4C249.4,16.8,248,14.9,246.2,13.6z"/>
					<path class="st60" d="M242.7,8.3c-8.1,4-15.7,11.2-21.7,17.8c-4.5,5.1-7.6,9.6-10.9,15.4c0.1,0,0.2-0.1,0.3-0.1
						c0.6-0.1,1.1-0.1,1.7-0.1c1.6-3.8,4.2-7.1,6.9-10.1c3.9-4.4,8-8.6,12.5-12.5c4.8-4.2,9.9-7.7,15.3-11c0.4-0.3,0.9-0.5,1.4-0.8
						c-1.2,0.2-2.4,0.5-3.8,0.8C243.9,7.9,243.3,8.1,242.7,8.3z"/>
					<path class="st61" d="M257.2,7.7c-1.3,0.5-2.6,1.1-3.9,1.8c-5.4,3.1-10.5,6.9-15.1,11.1c-7.5,6.7-13.4,14.8-18.5,23.4
						c4.1,3.5,5.2,9.3,5.2,9.3S237,29.1,260,9.8C260,9.8,259.2,8.6,257.2,7.7z"/>
					<path class="st61" d="M253.6,13.8c-4.5,3.6-8.6,7.4-12.4,11.8c-3.9,4.5-7.9,9.2-11.1,14.3c-2.3,3.6-3.8,7.5-5.9,11.2
						c0.4,1.3,0.6,2.2,0.6,2.2S237,29.1,260,9.8c0,0,0-0.1-0.1-0.1C257.7,11,255.5,12.2,253.6,13.8z"/>
				</g>
				<g>
					<path class="st20" d="M212.6,41.3c0,0,4.4-10.4,17.5-20.9h0.9c0,0-10.4,7.7-17.6,20.9L212.6,41.3z"/>
					<path class="st20" d="M231.8,20.4c0,0.4-0.8,0.8-1.7,0.8c-1,0-1.7-0.4-1.7-0.8s0.8-0.8,1.7-0.8C231.1,19.6,231.8,20,231.8,20.4
						z"/>
				</g>
			</g>
		</g>
		<path class="st62" d="M47.9,58.9c0,0,37.1,25.9,166.6,22C214.4,80.9,99.5,84.4,47.9,58.9z"/>
		<g>
			<path class="st12" d="M152.5,58.1c0-0.8-0.6-1.5-1.4-1.6c-35.3-1.8-54.2-6.3-54.4-6.4c-0.8-0.2-1.6,0.3-1.8,1.1c0,0,0,0.1,0,0.1
				c0.4-0.3,0.8-0.4,1.3-0.3c0.2,0.1,19.2,4.6,54.4,6.4c0.8,0,1.4,0.7,1.4,1.6c0,0.1,0,0.1,0,0.2C152.2,58.9,152.5,58.5,152.5,58.1z
				"/>
			<path class="st20" d="M150.6,57.4c-35.2-1.8-54.3-6.3-54.4-6.4c-0.5-0.1-0.9,0-1.3,0.3c-0.1,0.8,0.3,1.5,1.1,1.7
				c0.2,0.1,19.4,4.6,55,6.5c0,0,0.1,0,0.1,0c0.4,0,0.7-0.1,0.9-0.3c0-0.1,0-0.1,0-0.2C152,58.1,151.4,57.4,150.6,57.4z"/>
		</g>
		<g>
			<path class="st12" d="M106.5,45c0.1,0,11.8,2.4,47.9,5.9c0.8,0.1,1.3,0.7,1.3,1.5c0.2-0.2,0.3-0.5,0.4-0.8
				c0.1-0.8-0.5-1.6-1.3-1.6C118.6,46.4,107,44,106.8,44c-0.8-0.2-1.6,0.4-1.8,1.1c0,0.1,0,0.2,0,0.3
				C105.4,45.1,105.9,44.9,106.5,45z"/>
			<path class="st20" d="M106.2,46.9c0.5,0.1,11.9,2.4,48.3,5.9c0,0,0.1,0,0.1,0c0.4,0,0.8-0.2,1.1-0.5c0-0.8-0.6-1.4-1.3-1.5
				c-36.2-3.5-47.8-5.9-47.9-5.9c-0.6-0.1-1.1,0.1-1.4,0.5C105.1,46.2,105.5,46.8,106.2,46.9z"/>
		</g>
		<g>
			<path class="st12" d="M116.7,38.2c0.1,0,15.4,3,44.5,5.3c0.6,0.1,1.1,0.5,1.3,1.1c0-0.1,0-0.2,0.1-0.3c0.1-0.8-0.5-1.5-1.4-1.6
				c-29.2-2.3-44.4-5.3-44.5-5.3c-0.8-0.2-1.6,0.4-1.8,1.2c0,0.2,0,0.5,0.1,0.7C115.2,38.5,115.9,38.1,116.7,38.2z"/>
			<path class="st20" d="M116.1,40.3c0.1,0.1,15.5,3.1,44.9,5.4c0,0,0.1,0,0.1,0c0.7,0,1.2-0.4,1.4-1.1c-0.2-0.6-0.7-1-1.3-1.1
				c-29.2-2.3-44.4-5.3-44.5-5.3c-0.8-0.1-1.5,0.3-1.7,1C115.1,39.7,115.6,40.2,116.1,40.3z"/>
		</g>
		<g>
			<path class="st12" d="M128.9,31.5c0.1,0,14.2,2.8,38.7,4.8c0.6,0,1.2,0.5,1.3,1.1c0-0.1,0-0.2,0.1-0.3c0.1-0.8-0.5-1.5-1.4-1.6
				c-24.5-2-38.5-4.8-38.7-4.8c-0.8-0.2-1.6,0.4-1.8,1.2c0,0.2,0,0.5,0,0.7C127.3,31.8,128.1,31.3,128.9,31.5z"/>
			<path class="st20" d="M128.3,33.7c0.1,0,14.3,2.9,39,4.9c0,0,0.1,0,0.1,0c0.7,0,1.3-0.5,1.4-1.1c-0.1-0.6-0.7-1.1-1.3-1.1
				c-24.5-2-38.5-4.8-38.7-4.8c-0.8-0.2-1.5,0.3-1.7,1.1C127.3,33.1,127.7,33.6,128.3,33.7z"/>
		</g>
		<g>
			<path class="st12" d="M142,25.4c0.1,0,12.4,2.3,31.5,4.2c0.7,0.1,1.2,0.6,1.3,1.2c0,0,0-0.1,0-0.1c0.1-0.8-0.5-1.6-1.3-1.6
				c-19.1-1.9-31.4-4.2-31.5-4.2c-0.8-0.2-1.6,0.4-1.7,1.2c0,0.2,0,0.4,0,0.5l0,0C140.4,25.8,141.2,25.2,142,25.4z"/>
			<path class="st20" d="M141.5,27.8c0.1,0,12.5,2.3,31.7,4.2c0,0,0.1,0,0.1,0c0.7,0,1.3-0.5,1.5-1.2c-0.1-0.7-0.6-1.2-1.3-1.2
				c-19.1-1.9-31.4-4.2-31.5-4.2c-0.8-0.1-1.6,0.4-1.7,1.2l0,0C140.4,27.2,140.8,27.7,141.5,27.8z"/>
		</g>
		<g>
			<path class="st12" d="M176.3,22.9c-10.3-1-19.9-2.6-20-2.6c-0.8-0.1-1.6,0.4-1.7,1.2c0,0,0,0.1,0,0.1c0.3-0.4,0.9-0.7,1.4-0.6
				c0.1,0,9.7,1.5,20,2.6c0.8,0.1,1.4,0.8,1.3,1.6c0,0,0,0,0,0c0.2-0.2,0.3-0.5,0.3-0.8C177.7,23.7,177.1,23,176.3,22.9z"/>
			<path class="st20" d="M176,23.6c-10.3-1-19.9-2.6-20-2.6c-0.6-0.1-1.1,0.2-1.4,0.6c-0.1,0.8,0.5,1.5,1.2,1.6
				c0.1,0,9.8,1.6,20.2,2.6c0,0,0.1,0,0.2,0c0.5,0,0.9-0.2,1.2-0.6c0,0,0,0,0,0C177.4,24.4,176.8,23.7,176,23.6z"/>
		</g>
		<g>
			<path class="st12" d="M171.9,18.2c0.1,0,5.3,0.7,8.2,1c0.5,0.1,0.8,0.4,1,0.8c0-0.1,0.1-0.2,0.1-0.3c0.1-0.7-0.4-1.2-1.1-1.3
				c-2.9-0.3-8.2-1-8.2-1c-0.6-0.1-1.3,0.4-1.3,1c0,0.2,0,0.4,0.1,0.6C170.9,18.4,171.4,18.1,171.9,18.2z"/>
			<path class="st20" d="M171.6,19.7c0.1,0,5.4,0.7,8.3,1c0,0,0.1,0,0.1,0c0.5,0,0.9-0.3,1.1-0.7c-0.2-0.4-0.5-0.7-1-0.8
				c-2.9-0.3-8.2-1-8.2-1c-0.5-0.1-1.1,0.2-1.3,0.7C170.8,19.3,171.2,19.6,171.6,19.7z"/>
		</g>
		<g>
			<path class="st30" d="M41.7,33.7c0,0.2-0.3,0.4-0.6,0.4c-0.3,0-0.6-0.2-0.6-0.4c0-0.2,0.3-0.4,0.6-0.4
				C41.5,33.2,41.7,33.4,41.7,33.7z"/>
		</g>
		<g>
			<path class="st30" d="M69,50.5c0,0.2-0.3,0.4-0.6,0.4c-0.3,0-0.6-0.2-0.6-0.4c0-0.2,0.3-0.4,0.6-0.4C68.8,50.1,69,50.3,69,50.5z"
				/>
		</g>
		<g>
			<path class="st30" d="M283.9,56.4c0,0.2-0.3,0.4-0.6,0.4c-0.3,0-0.6-0.2-0.6-0.4c0-0.2,0.3-0.4,0.6-0.4
				C283.6,56,283.9,56.2,283.9,56.4z"/>
		</g>
	</g>
</g>
</svg>
